<svg xmlns="http://www.w3.org/2000/svg" viewBox="0 0 764.93 338"><defs><style>.cls-1{fill:#cbcbcb;}.cls-2{fill:#e5e5e5;}.cls-3{fill:#eee;}.cls-4{fill:#f1f1f1;}.cls-5{fill:#d5d5d5;}.cls-6{fill:#b5b5b5;}.cls-7{fill:#b9b9b9;}.cls-8{fill:#445876;}.cls-9{fill:#d2d0cf;}.cls-10{fill:#5a759d;}.cls-11{fill:#e4e4e4;}.cls-12{fill:#909090;}.cls-13{fill:#fff;}.cls-14{fill:#edeced;}.cls-15{fill:#f1f3f6;}.cls-16{fill:#6a6f76;}.cls-17{fill:#919192;}.cls-18{fill:#353536;}.cls-19{fill:#555554;}.cls-20{fill:#232323;}.cls-21{fill:#4c4c4c;}.cls-22,.cls-27,.cls-29{fill:none;stroke-miterlimit:10;}.cls-22{stroke:#232323;stroke-width:0.34px;}.cls-23{fill:#76cd83;}.cls-24{fill:#dcdcdc;}.cls-25{fill:#71bb7a;}.cls-26{fill:#f8f8f8;}.cls-27{stroke:#919192;}.cls-27,.cls-29{stroke-width:0.49px;}.cls-28{fill:#e1e1e1;}.cls-29{stroke:#ee3a3a;}.cls-30{fill:#e7e7e7;}.cls-31{fill:#686868;}</style></defs><title>Asset 6</title><g id="Layer_2" data-name="Layer 2"><g id="Layer_1-2" data-name="Layer 1"><ellipse class="cls-1" cx="382.47" cy="315.59" rx="382.47" ry="22.41"/><path class="cls-2" d="M123.78,0H643a8.3,8.3,0,0,1,8.3,8.3V308.57a0,0,0,0,1,0,0H115.47a0,0,0,0,1,0,0V8.3A8.3,8.3,0,0,1,123.78,0Z"/><path class="cls-3" d="M315.76,0h1.15A2.05,2.05,0,0,1,319,2.05V305.9a0,0,0,0,1,0,0h-5.25a0,0,0,0,1,0,0V2.05A2.05,2.05,0,0,1,315.76,0Z"/><path class="cls-3" d="M481.53,0h1.15a2.05,2.05,0,0,1,2.05,2.05v306.5a0,0,0,0,1,0,0h-5.25a0,0,0,0,1,0,0V2.05A2.05,2.05,0,0,1,481.53,0Z"/><path class="cls-4" d="M231.46,161.65l5.23-8.18s15.7-5.56,29.11-4.9c0,0,30.74,2,41.86,10.79,0,0,12.42,8.18,16,13.41l4.58,5.23.33,2.29-1,.66-1.31,4.25s-1.64,5.56-12.76,4.9l-6.86-1.31-31.4-6.54s-12.43-3.92-15.7-1.63l-6.21-3-2.62-2-2.61-1.31S231.46,163,231.46,161.65Z"/><path class="cls-5" d="M240,168.84s14.06,4.58,17,3.28,8.83-5.24,13.4,2.28,10.8-2.61,18.65,1,18.64,5.88,24.2,5.23,15.55-2.48,15.55-2.48-6.18,14.81-30.6,9.67c-11.69-2.46-23.51-7.21-29.16-8.48a31.1,31.1,0,0,0-6-.77l-7.67-.23S240.94,171.46,240,168.84Z"/><path class="cls-6" d="M282.42,306.9l1.63,4.07v9.5H514.66V311l4.07-4.21S282.42,306.17,282.42,306.9Z"/><polygon class="cls-4" points="282.91 214.46 282.91 307.03 518.08 307.03 518.08 228.31 426.59 228.31 416.6 215.82 282.91 214.46"/><path class="cls-6" d="M282.58,215.82v-.5c0-3,2.91-5.47,6.49-5.47h44.09L338,204H518.08V228H425l-7.25-11.26Z"/><rect class="cls-7" x="294.96" y="222.33" width="116.61" height="25.52" rx="9.31"/><rect class="cls-8" x="299.52" y="229.94" width="106.84" height="14.12" rx="5.15"/><rect class="cls-7" x="294.96" y="253.28" width="116.61" height="19.55" rx="7.13"/><rect class="cls-8" x="299.52" y="256.27" width="106.84" height="14.12" rx="5.15"/><rect class="cls-7" x="294.96" y="276.63" width="116.61" height="19.55" rx="7.13"/><rect class="cls-8" x="299.52" y="279.34" width="106.84" height="14.12" rx="5.15"/><path class="cls-9" d="M227.53,193.29s2,.27,1,6.24c0,0,0,4.07,7.17,3.8l35.5,1.36V203.6s-16.45-8.28-22.64-8.28C248.54,195.32,232.09,194.1,227.53,193.29Z"/><path class="cls-10" d="M228.18,194.1s26.71.81,32.25,5.16l11.08,5.43,131.92,1.63s26.38-1.9,33.22-1.63h80.78s7.17-1.09,8.14-3.26.66-6.79.66-6.79-3.91-7-17.59-7H428s-8.47,6.1-13.68,3.93c0,0-9.12-6-25.73-5.7,0,0-83.07-.54-85.35-.54S270,174.42,249.52,177.4C249.52,177.4,223.46,179.31,228.18,194.1Z"/><path class="cls-9" d="M290.92,204.87l42,.63s-6.49-13.67-30.14-9.54C302.74,196,291.68,198.51,290.92,204.87Z"/><path class="cls-11" d="M336.33,205.5s-1.31,1.63-9.12,3.26l-8.15,2.17a12.9,12.9,0,0,0-.32,2.45s-7.17-1.09-8.15-.55v-4.34s-.58-2.45,4.27-3.4Z"/><path class="cls-11" d="M304,215.93s16.91.8,17.94,0-3.09-2.93-6.47-3.46S305.44,213.28,304,215.93Z"/><ellipse class="cls-12" cx="300.17" cy="202.24" rx="0.98" ry="0.81"/><ellipse class="cls-12" cx="321.34" cy="202.24" rx="0.98" ry="0.81"/><rect class="cls-13" x="442.76" y="64.02" width="125.02" height="48.24" rx="9.23"/><rect class="cls-14" x="493.78" y="80.07" width="29.8" height="23.93" rx="8.44"/><rect class="cls-15" x="495.83" y="79.86" width="27.75" height="22.28" rx="7.85"/><rect class="cls-16" x="514.67" y="79.86" width="2.74" height="26.54"/><rect class="cls-17" x="502" y="74.29" width="2.74" height="16.38"/><rect class="cls-17" x="514.67" y="74.62" width="2.74" height="16.05"/><path class="cls-18" d="M502.68,79.53s-1.37,0-1.37-.33a3.28,3.28,0,0,0-.34-1s-.69-3,0-4.59V71h.34v-.33a11.2,11.2,0,0,1,3.77-1.31l.69.33.34,1s1,4.26.68,5.25a12.37,12.37,0,0,1-.68,2,7.39,7.39,0,0,0-.34,1.31v.33S502.68,79.43,502.68,79.53Z"/><path class="cls-18" d="M510.76,72l.83-.36,6.51.32s1.37.66,1.37,1.64,0,2-1.37,2.62a3.59,3.59,0,0,1-1,.33,1.69,1.69,0,0,0-2.06.33l-1.71.33h-2a2.25,2.25,0,0,1-1.3-.52"/><ellipse class="cls-19" cx="510.9" cy="74.45" rx="1.98" ry="2.46"/><ellipse class="cls-20" cx="510.9" cy="74.45" rx="1.37" ry="1.47"/><path class="cls-21" d="M501,103.72v6h.68l.69-6A2.74,2.74,0,0,0,501,103.72Z"/><path class="cls-21" d="M513.3,103.72v6H514l.68-6A2.73,2.73,0,0,0,513.3,103.72Z"/><path class="cls-21" d="M502.68,106.36v7.9h.69l.68-7.9A2.21,2.21,0,0,0,502.68,106.36Z"/><path class="cls-21" d="M515.36,106.36v7.9H516l.69-7.9A2.22,2.22,0,0,0,515.36,106.36Z"/><path class="cls-20" d="M504.74,69.37l.34,5.76a6.79,6.79,0,0,1-.69,2c-.34.34,0,1.35,0,1.35v1h1.38a2.13,2.13,0,0,1,.34-1.35c.34-.68.68-1,.68-1.7v-2s-.34-3-1-4.06v-.68A1.53,1.53,0,0,0,504.74,69.37Z"/><path class="cls-17" d="M501.31,74.94v1.64a13.81,13.81,0,0,1,3.08-1.31V74A17.13,17.13,0,0,0,501.31,74.94Z"/><rect class="cls-16" x="502" y="89.69" width="2.74" height="16.71"/><path class="cls-22" d="M503,113.93s-.34,3.61-.34,4.26c0,0-.34,2.62.69,3s1.37,2,1.37,2"/><path class="cls-22" d="M515.87,114.1a14.27,14.27,0,0,0,0,3.93s0,3.6-1,4.58"/><path class="cls-21" d="M502.34,122.48s-1.71,20-1.71,20.49-.35,5.06.68,5.31a2.8,2.8,0,0,0,2.06-.5v-6.33L504.74,127l.34-4.55S502.34,121.47,502.34,122.48Z"/><path class="cls-21" d="M511.25,122.78s1.71-1,2.74,0c0,0-.59,14.12-1.23,18.76a12.58,12.58,0,0,0-.09,2.21c.13,2.94.51,9.76,1.32,9.5,1-.33,0-16.38-.35-19L513,120.48s2-.32,2.4.33c0,0,1,16.38,1.37,17.69s1,13.77-.69,16.39c0,0-1.37,3-4.45,0a27.65,27.65,0,0,1-1.37-11.8C510.94,136.24,511.93,124.42,511.25,122.78Z"/><path class="cls-22" d="M513.47,109.51s-1.2,7.7.17,8.35,1.72,3,1.72,3"/><path class="cls-22" d="M501.14,109.84s-.68,10.15.69,10.81,1,4.26,1,4.26"/><path class="cls-15" d="M537.31,85.53c8,.09,6.52-3.68,6.52-3.68l.84-10.34,1.31-.67,8,.09.06,1.9s2.34.57,2.35.88l-1.13,27.65S554,103.94,552,104l-.74,3s-6.77,1-11.17-1.74c0,0-3.73-2.43-5.71-2.06l-2.32.07.13-17.15Z"/><path class="cls-23" d="M544.58,73.24l.13-1.79a4.5,4.5,0,0,1,1.24-.63l.62,0s7.23,0,7.57.26l-.28,1.59S545.23,72.9,544.58,73.24Z"/><path class="cls-14" d="M552.17,103.49l-.26,2.23-.62,1.29s-7.28.84-9.31-.37c0,0-2.4-2.47-7.75-3.58,0,0,6.28-.82,9.3,0Z"/><path class="cls-14" d="M532.17,86.21l.07,17.11,2.24-2.28s1.61-1.31,8.25-.23a48.54,48.54,0,0,0,11.26.62l1,.29.8-12S548.57,92,544.5,88.9l-1.42-4.54Z"/><ellipse class="cls-15" cx="549.81" cy="105.19" rx="0.47" ry="0.45"/><path class="cls-24" d="M534.25,85.9s-.42,4.46.68,4.61a6.38,6.38,0,0,0,1.88,0v9.83a4.76,4.76,0,0,0-2.35.65c-.63.6-2.2,2.4-2.2,2.4V86.16Z"/><path class="cls-23" d="M554.5,76.26a16.86,16.86,0,0,0-5.58-.18,10.92,10.92,0,0,0-2.21.42c-.59.3-.87.89-.76,4.63,0,0,.49,6,2.65,7.7,0,0,3.07,1.64,5-2.45a15.39,15.39,0,0,0,1.89-7s.21-2.89-1-3.14Z"/><path class="cls-25" d="M555.32,79.89l-7.47,8s1.27,2.42,4,.64C551.88,88.58,555.74,84.33,555.32,79.89Z"/><rect class="cls-15" x="548.11" y="78.24" width="5.33" height="1.16" rx="0.41"/><path class="cls-26" d="M550.08,74.3a33.78,33.78,0,0,0,.63-3.35V69.12a4.48,4.48,0,0,1,4.14-.3.66.66,0,0,0-.32.91,1.32,1.32,0,0,0-1.75,1.06,9.13,9.13,0,0,0,.32,3.66A5.17,5.17,0,0,0,550.08,74.3Z"/><path class="cls-21" d="M463.59,109.84s.7,23.67,11.5,21,7.67-15.66,7.67-15.66l-.7-32-1.74-1S479.8,95,479.45,100s-1.74,15.33-.7,18.33.35,10-6.27,7.34c0,0-4.18-.34-4.18-11.34L467.25,107s-1.74-.33-2.44.67,0-2.67,0-2.67h-1S462.72,108.68,463.59,109.84Z"/><path class="cls-27" d="M464.89,101.74a18.86,18.86,0,0,0-.65,3.42"/><path class="cls-28" d="M457.57,101.64l5.46,1.89,16.18-.21s1.61-2.37,1.68-3.58S457.57,101.64,457.57,101.64Z"/><rect class="cls-15" x="453.64" y="76.02" width="27.23" height="25.66" rx="5.1"/><rect class="cls-21" x="455.34" y="77.52" width="24.4" height="23" rx="5.1"/><path class="cls-24" d="M476.67,88.82a8.31,8.31,0,0,1-2.66,6.1,9.28,9.28,0,0,1-12.58.13,8.36,8.36,0,0,1,0-12.45,9.26,9.26,0,0,1,12.58.13A8.3,8.3,0,0,1,476.67,88.82Zm0,0a8.3,8.3,0,0,0-2.7-6,9.06,9.06,0,0,0-12.26.12,8.11,8.11,0,0,0,0,11.85,9.06,9.06,0,0,0,12.26.12A8.32,8.32,0,0,0,476.67,88.82Z"/><line class="cls-29" x1="467.49" y1="88.83" x2="467.49" y2="95.94"/><polygon class="cls-30" points="167.84 40.97 167.84 128.98 220.84 129.46 220.35 42.91 167.84 40.97"/><polygon class="cls-13" points="168.96 42.1 168.96 130.1 221.96 130.59 221.48 44.04 168.96 42.1"/><path class="cls-31" d="M184.72,58.34a10.27,10.27,0,0,1,0,2c-.13.1-.28.06-.43.06l-2.78,0-3.48,0-.39,0a3.57,3.57,0,0,0,0,.92,5.83,5.83,0,0,0,0,.84.45.45,0,0,0,.41.13h1.32l5.68.07a.61.61,0,0,1,.4.06,8.7,8.7,0,0,1,0,1.89c-.1.13-.25.09-.38.09l-3.32,0-5.26,0-1,0-.28,0a.93.93,0,0,1,0-.22v-9.7c.1-.1.23-.07.35-.06l2.57,0,6.88.11a.83.83,0,0,1,.47.06,10.62,10.62,0,0,1,0,1.87.4.4,0,0,1-.35.07l-1.57,0-5.39-.08a1.28,1.28,0,0,0-.51,0,2,2,0,0,0,0,.24c0,.43,0,.86,0,1.29s0,.34.37.35l2.65.05,3.73,0C184.49,58.31,184.61,58.33,184.72,58.34Z"/><path class="cls-31" d="M191.33,57.06a7.25,7.25,0,0,1,1.68,0c.11.11.08.26.08.39,0,.64,0,1.27,0,1.91a.65.65,0,0,0,.05.39c.14,0,.23,0,.31-.09l1.43-.92,2.3-1.49a1.1,1.1,0,0,1,.7-.2c.56,0,1.13,0,1.7,0H200c.05.15-.06.17-.12.21l-2.58,1.8-.44.32a1.21,1.21,0,0,0-.16.16,1,1,0,0,0,.21.42l2.52,3.7.43.67c-.14.12-.28.07-.41.08h-1.68c-.22-.33-.45-.64-.67-1l-.69-1-.66-.95a7.9,7.9,0,0,0-.7-.94,1.21,1.21,0,0,0-.2.09l-1.55,1a.45.45,0,0,0-.24.44c0,.58,0,1.16,0,1.75,0,.13,0,.27,0,.41a1.51,1.51,0,0,1-.59.06h-.58a1.18,1.18,0,0,1-.56,0,.41.41,0,0,1,0-.12c0-2.33,0-4.65,0-7A.51.51,0,0,1,191.33,57.06Z"/><path class="cls-31" d="M213.55,64.33a7.65,7.65,0,0,1-1.83,0,3.76,3.76,0,0,1-.23-.36c-.2-.33-.4-.66-.59-1a.35.35,0,0,0-.33-.2h-3.31a.49.49,0,0,0-.56.32c-.15.31-.33.61-.5.91l-.2.33a8.79,8.79,0,0,1-1.73,0,.76.76,0,0,1,0-.16c1.27-2.37,2.52-4.75,3.8-7.13.51,0,1,0,1.52,0,.29.47.53,1,.8,1.44l.79,1.46.78,1.46.78,1.46C213,63.35,213.3,63.83,213.55,64.33Zm-3.64-3.14a.42.42,0,0,0,0-.14l-.93-2a.44.44,0,0,0-.1-.08s-.08,0-.09.08c-.35.66-.69,1.32-1,2a.48.48,0,0,0,0,.12.34.34,0,0,0,.11,0h1.78A2,2,0,0,0,209.91,61.19Z"/><path class="cls-31" d="M193,69.68a6.51,6.51,0,0,1,0,1.08s0,.1-.08.14l-.22.19-3.45,2.78a1.3,1.3,0,0,0-.36.34c0,.13.16.1.25.1h3.31l.4,0a3.76,3.76,0,0,1,0,1.38.66.66,0,0,1-.15,0l-6.46,0a.64.64,0,0,1-.17,0,8.11,8.11,0,0,1,0-1.21l.36-.29,3.53-2.74a1.58,1.58,0,0,0,.36-.31c0-.12-.08-.12-.15-.13h-3.56l-.44,0a3.43,3.43,0,0,1,0-1.29s.07,0,.11,0l6.55,0Z"/><path class="cls-31" d="M214,71.33a10.83,10.83,0,0,1-1.27,0,2.43,2.43,0,0,1-.14-.2.65.65,0,0,0-.37-.26,2.73,2.73,0,0,0-.48-.1,5.89,5.89,0,0,0-1.57,0,1.89,1.89,0,0,0-.48.13.9.9,0,0,0-.3.21.42.42,0,0,0,.15.71,2.9,2.9,0,0,0,1,.22l1.65.08a3,3,0,0,1,.94.18,1.44,1.44,0,0,1,1,1.28,1.49,1.49,0,0,1,0,.21,1.71,1.71,0,0,1-1,1.77,3.94,3.94,0,0,1-.82.27,6.63,6.63,0,0,1-2.84,0,3,3,0,0,1-1.08-.41,1.63,1.63,0,0,1-.77-1.22.24.24,0,0,1,0-.12s0,0,.05-.1c.47-.06.95,0,1.41,0a.57.57,0,0,1,.08.08,1,1,0,0,0,.92.65,9.56,9.56,0,0,0,1.2,0,4.91,4.91,0,0,0,.77-.1,1.43,1.43,0,0,0,.38-.17.54.54,0,0,0,.25-.57.48.48,0,0,0-.39-.43,2.87,2.87,0,0,0-.57-.11l-1.74-.07a2.75,2.75,0,0,1-1.51-.52,1.72,1.72,0,0,1-.44-2.36,1.41,1.41,0,0,1,.63-.53,3.57,3.57,0,0,1,.78-.26,7,7,0,0,1,2.84,0,3,3,0,0,1,1,.37A1.43,1.43,0,0,1,214,71.33Z"/><path class="cls-31" d="M202.53,72.1c.05-.44,0-.84,0-1.23a9.19,9.19,0,0,1,0-1.17,8.07,8.07,0,0,1,1.3,0,1.35,1.35,0,0,1,.08.24c0,.11,0,.22,0,.33,0,1.68,0,3.37,0,5.06,0,.13,0,.27,0,.41a1.55,1.55,0,0,1-.67.06c-.22,0-.44,0-.68,0a1.67,1.67,0,0,1,0-.29c0-.51,0-1,0-1.53a.82.82,0,0,0-.06-.43.57.57,0,0,0-.14,0H199a.58.58,0,0,0-.16.05,5.16,5.16,0,0,0-.05,1.11c0,.36,0,.72,0,1.06a3.75,3.75,0,0,1-1.43,0,1.6,1.6,0,0,1,0-.23c0-1.23,0-5.41.06-5.78a1.92,1.92,0,0,1,.68,0h.62a.35.35,0,0,1,.11.33v1.66c0,.14,0,.27,0,.43a1.57,1.57,0,0,0,.25,0h3.15A2.43,2.43,0,0,0,202.53,72.1Z"/><path class="cls-31" d="M182.07,71.22a7.83,7.83,0,0,1-1.13.55c-.06-.07-.14-.13-.19-.2a2.15,2.15,0,0,0-1.66-.82,3.15,3.15,0,0,0-1.18.16,1.82,1.82,0,0,0-.77,2.9,2.3,2.3,0,0,0,2,.78,2,2,0,0,0,1.24-.51c.23-.2.45-.41.69-.63.38.21.75.44,1.13.7a1.54,1.54,0,0,1-.14.23,3.81,3.81,0,0,1-3.49,1.5,4.16,4.16,0,0,1-1.29-.29,3,3,0,0,1-1.92-2.49,3.44,3.44,0,0,1,0-1.32,2.64,2.64,0,0,1,1.18-1.69,4.11,4.11,0,0,1,3.93-.33,3.28,3.28,0,0,1,1.41,1.17A3.22,3.22,0,0,1,182.07,71.22Z"/><path class="cls-31" d="M192,80.11l.42,0h2.9a3.77,3.77,0,0,1,.58,0A1.29,1.29,0,0,1,197,81.51a2.59,2.59,0,0,1-.1.61.93.93,0,0,1-.75.69l-.46.11a4.23,4.23,0,0,0,.59.77c.19.24.41.47.61.74a.45.45,0,0,1-.13.06h-1a.43.43,0,0,1-.36-.18l-.84-1.07-.3-.36a6.3,6.3,0,0,0-1.15,0,2.48,2.48,0,0,0-.07.8,3.77,3.77,0,0,1,0,.75,1.43,1.43,0,0,1-.5,0h-.48c-.14-.15-.1-.3-.1-.45,0-.87,0-1.74,0-2.61v-.91C192,80.39,192,80.27,192,80.11Zm1.16,1.8c.76,0,1.5,0,2.24,0a.92.92,0,0,0,.36-.1.38.38,0,0,0,.18-.39.33.33,0,0,0-.27-.32,2.35,2.35,0,0,0-.37,0h-1.94a.86.86,0,0,0-.23,0A1.42,1.42,0,0,0,193.17,81.91Z"/><path class="cls-31" d="M188.17,81.29h-.95l-.14-.16a.61.61,0,0,0-.39-.21,4,4,0,0,0-1.61,0,1,1,0,0,0-.34.15.34.34,0,0,0,.07.64,2.2,2.2,0,0,0,.76.16l1.25.06a3.68,3.68,0,0,1,.65.11,1.12,1.12,0,0,1,.88,1.11,1.34,1.34,0,0,1-.94,1.48,3.73,3.73,0,0,1-1.14.23,5,5,0,0,1-1.68-.13,1.89,1.89,0,0,1-.81-.41,1,1,0,0,1-.4-.92,5.21,5.21,0,0,1,1.11-.06.9.9,0,0,0,.9.57,7.53,7.53,0,0,0,1,0,1.78,1.78,0,0,0,.45-.08.91.91,0,0,0,.26-.13.43.43,0,0,0-.11-.76,2.59,2.59,0,0,0-.61-.1l-1,0a2.33,2.33,0,0,1-1-.24l-.32-.19a1.31,1.31,0,0,1,.24-2.22,2.69,2.69,0,0,1,.55-.17,5.17,5.17,0,0,1,2.18,0,3.41,3.41,0,0,1,.69.27,1,1,0,0,1,.55.79A.51.51,0,0,1,188.17,81.29Z"/><path class="cls-31" d="M209.39,80.13a5.25,5.25,0,0,1,1.05,0c.08.55,0,1.07.05,1.6a.47.47,0,0,0,.15.06c.86,0,1.71,0,2.57,0l.14,0a2.51,2.51,0,0,0,0-.27c0-.32,0-.64,0-1l0-.37.18,0c.26,0,.52,0,.76,0s.1.22.1.32v2c0,.6,0,1.19,0,1.79v.34a2.92,2.92,0,0,1-1,0,1.51,1.51,0,0,1-.05-.28c0-.36,0-.72,0-1.08a.51.51,0,0,0-.08-.37,1.08,1.08,0,0,0-.19,0h-2.49s-.07,0-.14.05a4.84,4.84,0,0,0,0,.85,5.76,5.76,0,0,1,0,.83,5.09,5.09,0,0,1-1,0,1.23,1.23,0,0,1-.05-.25c0-1.31,0-2.63,0-3.94A1.13,1.13,0,0,1,209.39,80.13Z"/><path class="cls-31" d="M201.52,84.55a2.59,2.59,0,0,1-1,0,1.38,1.38,0,0,1,0-.26c0-1.28,0-2.57,0-3.85,0-.07,0-.13,0-.22a3.12,3.12,0,0,1,.86,0,.34.34,0,0,1,.18.09,2.61,2.61,0,0,1,.24.23l2.44,2.42a3.45,3.45,0,0,0,.28.26s.09,0,.14.06a.59.59,0,0,0,.06-.38c0-.75,0-1.49,0-2.24a.8.8,0,0,1,.06-.42,3.45,3.45,0,0,1,.85,0,.5.5,0,0,1,.07.37c0,.84,0,1.68,0,2.52,0,.32,0,.64,0,1,0,.16,0,.32,0,.5a2.23,2.23,0,0,1-1,0c-.08,0-.16-.1-.23-.17l-1.89-1.8-.78-.74a1.37,1.37,0,0,0-.2-.13c-.11.14-.07.28-.08.42l0,1.94C201.54,84.25,201.53,84.38,201.52,84.55Z"/><path class="cls-31" d="M178.68,81.46l2.09,3a1.73,1.73,0,0,1-.24.05c-.26,0-.52,0-.78,0a.47.47,0,0,1-.45-.23L178,82.49l-.26-.34a2,2,0,0,0-.19.07c-.32.23-.62.47-.93.7a.36.36,0,0,0-.17.35c0,.27,0,.53,0,.79s0,.24,0,.39a4.17,4.17,0,0,1-1.06,0c0-.13,0-.25,0-.37V80.4a1.86,1.86,0,0,1,0-.33,4.35,4.35,0,0,1,1,0,1.14,1.14,0,0,1,0,.24c0,.36,0,.72,0,1.08,0,.12,0,.24,0,.4a.91.91,0,0,0,.24-.1l1-.76.93-.71a.72.72,0,0,1,.49-.16h1.08l.25,0a6.8,6.8,0,0,1-.92.7C179.32,81,179,81.19,178.68,81.46Z"/><path class="cls-31" d="M211.19,90.54c-.07.48,0,.91-.06,1.32a1.67,1.67,0,0,1-.89,0,1.08,1.08,0,0,1,0-.19c0-.64,0-3.17,0-3.49a1.85,1.85,0,0,1,.23,0h2.65a2.33,2.33,0,0,1,.53.07,1,1,0,0,1,.79.75,1.57,1.57,0,0,1-.05,1,.79.79,0,0,1-.53.49,4.36,4.36,0,0,1-.46.12,1.39,1.39,0,0,0,.1.21c.23.28.47.55.7.82a2,2,0,0,1,.18.25c0,.09-.09.08-.14.08-.23,0-.47,0-.7,0a.46.46,0,0,1-.42-.21c-.24-.32-.5-.62-.74-1a.55.55,0,0,0-.52-.25C211.66,90.55,211.44,90.54,211.19,90.54Zm0-.88a.31.31,0,0,0,.12,0l1.81,0a.8.8,0,0,0,.31-.09.29.29,0,0,0,.17-.34.26.26,0,0,0-.22-.26A1.51,1.51,0,0,0,213,89h-1.61a2,2,0,0,0-.23.06A1.71,1.71,0,0,0,211.19,89.66Z"/><path class="cls-31" d="M175.35,91.81c0-.09,0-.17,0-.24,0-.82,0-3.13,0-3.45a.85.85,0,0,1,.23,0h2.52a2.86,2.86,0,0,1,.58.06,1.47,1.47,0,0,1,1.11.95,2.16,2.16,0,0,1,.05,1.46,1.71,1.71,0,0,1-1.31,1.2,1.89,1.89,0,0,1-.53.08h-2.44A.82.82,0,0,1,175.35,91.81Zm.89-.88.15,0c.47,0,.94,0,1.41,0a2.15,2.15,0,0,0,.56-.12.86.86,0,0,0,.46-.4,1,1,0,0,0-.84-1.58h-1.53a1.29,1.29,0,0,0-.24.05,1.92,1.92,0,0,0,0,.22c0,.56,0,1.13,0,1.69C176.19,90.85,176.22,90.88,176.24,90.93Z"/><path class="cls-31" d="M194.41,91.81l-.18,0c-.29,0-.58,0-.89,0-.07-.09-.15-.18-.22-.28l-1-1.39c-.08-.11-.16-.22-.26-.34a1.61,1.61,0,0,0-.23.12c-.21.15-.41.32-.63.47a.5.5,0,0,0-.22.46c0,.23,0,.47,0,.7,0,.06,0,.11,0,.18a1.59,1.59,0,0,1-.89,0,.55.55,0,0,1,0-.17c0-1.13,0-2.27,0-3.4a.38.38,0,0,1,0-.13,2,2,0,0,1,.24,0,4.46,4.46,0,0,1,.63,0c.1.48,0,1,.07,1.44a2.09,2.09,0,0,0,.26-.13c.49-.36,1-.72,1.46-1.1a.84.84,0,0,1,.64-.22c.26,0,.53,0,.79,0l.2,0a2,2,0,0,1-.51.41c-.16.13-.33.25-.5.37l-.5.37a5.27,5.27,0,0,0,.55.86l.58.85Z"/><path class="cls-31" d="M197,88.11a3,3,0,0,1,.84,0,1.09,1.09,0,0,1,0,.24c0,.3,0,.61,0,.91,0,.11,0,.22,0,.34a3.2,3.2,0,0,0,.75,0q.38,0,.75,0h.76a1.23,1.23,0,0,0,0-.25c0-.29,0-.58,0-.87,0-.12,0-.24,0-.37a2.21,2.21,0,0,1,.81,0,10.75,10.75,0,0,1,0,1.26v1.2c0,.41,0,.82,0,1.26a1.83,1.83,0,0,1-.84,0c-.07-.45,0-.89,0-1.33a2.14,2.14,0,0,0-.75-.06c-.26,0-.52,0-.79,0a2.64,2.64,0,0,0-.74,0,2.19,2.19,0,0,0-.05.67c0,.21,0,.43,0,.67a2.43,2.43,0,0,1-.85,0,10.32,10.32,0,0,1,0-1.24c0-.4,0-.81,0-1.21Z"/><path class="cls-31" d="M207.05,90.45l.68.42a2,2,0,0,1-.14.23,2.54,2.54,0,0,1-3.26.49,2,2,0,0,1-.1-3.19,2.63,2.63,0,0,1,2.78-.07,1.87,1.87,0,0,1,.66.73,3.13,3.13,0,0,1-.66.33,2.61,2.61,0,0,1-.24-.22,1.62,1.62,0,0,0-2-.14,1.14,1.14,0,0,0-.25,1.56,1.29,1.29,0,0,0,.89.55,1.45,1.45,0,0,0,1.26-.37Z"/><path class="cls-31" d="M182.67,88.08h.91c.26.43.45.91.68,1.36s.43.89.64,1.33c.11,0,.13,0,.16-.1.36-.72.71-1.44,1.06-2.16l.21-.4a3.38,3.38,0,0,1,.9,0c0,.07,0,.12,0,.17l-1.74,3.43a.35.35,0,0,1-.08.12,3.84,3.84,0,0,1-.83,0c-.2-.29-1.36-2.54-1.8-3.51C182.72,88.26,182.71,88.19,182.67,88.08Z"/><path class="cls-31" d="M186.71,95.12h2.21a1.21,1.21,0,0,1,1.17,1.25,1.41,1.41,0,0,1,0,.29A1.31,1.31,0,0,1,189,97.9l-.17,0h-2a.93.93,0,0,1-.13,0,1.1,1.1,0,0,1,0-.16c0-.81,0-1.63,0-2.44A.67.67,0,0,1,186.71,95.12Zm.64,2.13a.76.76,0,0,0,.16,0c.34,0,.68,0,1,0a1,1,0,0,0,.24,0,.8.8,0,0,0,0-1.55,1.32,1.32,0,0,0-.28,0h-.87a1.6,1.6,0,0,0-.23,0A4.69,4.69,0,0,0,187.35,97.25Z"/><path class="cls-31" d="M212.7,95.1a5.3,5.3,0,0,1,.62.11,1.53,1.53,0,0,1,1.06,2,1.42,1.42,0,0,1-1,1,2.43,2.43,0,0,1-1.31,0,1.57,1.57,0,0,1-.9-2.31,1.38,1.38,0,0,1,.86-.61C212.24,95.16,212.48,95.14,212.7,95.1Zm0,.63c-.18,0-.35,0-.5.1a.78.78,0,0,0-.6.91.87.87,0,0,0,.53.73,1.29,1.29,0,0,0,1.12,0,.89.89,0,0,0,.53-.86.83.83,0,0,0-.61-.8A3.94,3.94,0,0,0,212.73,95.73Z"/><path class="cls-31" d="M183.87,95.73a.82.82,0,0,1-.44,0,.3.3,0,0,1-.18-.08.61.61,0,0,0-.45-.17q-.33,0-.66,0a.55.55,0,0,0-.37.16.21.21,0,0,0,0,.35,1.08,1.08,0,0,0,.35.1c.29,0,.58,0,.87.06a1.94,1.94,0,0,1,.48.09.64.64,0,0,1,.45.5.86.86,0,0,1-.53,1.08l-.12.05a3,3,0,0,1-1.71,0,1.24,1.24,0,0,1-.36-.19.62.62,0,0,1-.26-.55.94.94,0,0,1,.57,0c.05,0,.11.06.15.12a.51.51,0,0,0,.31.19,2.16,2.16,0,0,0,1,0,.46.46,0,0,0,.19-.08.3.3,0,0,0,.13-.29.23.23,0,0,0-.19-.2,2.08,2.08,0,0,0-.36-.06l-.79,0a1.14,1.14,0,0,1-.61-.23.77.77,0,0,1-.32-.76.74.74,0,0,1,.49-.66,2,2,0,0,1,.73-.12,2.54,2.54,0,0,1,1.13.15.7.7,0,0,1,.48.58A.12.12,0,0,1,183.87,95.73Z"/><path class="cls-31" d="M175.36,95.2l.21,0a.62.62,0,0,1,.59.21c.47.48,1,1,1.44,1.42a4,4,0,0,0,.32.29c.14,0,.13-.12.13-.2V95.23a.66.66,0,0,1,.56,0,7.48,7.48,0,0,1,0,1.34c0,.46,0,.91,0,1.38a.8.8,0,0,1-.88-.2c-.48-.49-1-.95-1.5-1.42a1.14,1.14,0,0,0-.23-.15c-.1.61,0,1.19-.09,1.75a.75.75,0,0,1-.55,0,1.62,1.62,0,0,1,0-.19c0-.79,0-1.58,0-2.36A1,1,0,0,1,175.36,95.2Z"/><path class="cls-31" d="M208.59,102.51c.19.33.46.54.62.83a1.27,1.27,0,0,1-.65,0,.58.58,0,0,1-.18-.17c-.17-.2-.33-.41-.49-.61a.32.32,0,0,0-.28-.15c-.15,0-.3,0-.47,0a1.57,1.57,0,0,0,0,.25c0,.21,0,.41,0,.63a1.07,1.07,0,0,1-.59,0c0-.16,0-.3,0-.43,0-.68,0-1.35,0-2,.1,0,.18,0,.26,0h1.53a3.07,3.07,0,0,1,.53.06.57.57,0,0,1,.42.32.92.92,0,0,1,0,.91.79.79,0,0,1-.27.24A2.79,2.79,0,0,1,208.59,102.51Zm-1.49-.61a12.42,12.42,0,0,0,1.36,0,.27.27,0,0,0,.12,0,.24.24,0,0,0,.15-.22.22.22,0,0,0-.16-.22.64.64,0,0,0-.24,0h-1a1,1,0,0,0-.2,0Z"/><path class="cls-31" d="M204.85,95.24a1.37,1.37,0,0,1,.57,0c.11.36,0,.72.08,1.06a5.51,5.51,0,0,0,1.72,0,2.51,2.51,0,0,0,0-.27c0-.26,0-.52,0-.78a.84.84,0,0,1,.58-.06.58.58,0,0,1,.05.16v2.49a.38.38,0,0,1,0,.13,1,1,0,0,1-.56,0c-.08-.33,0-.67-.07-1a6.09,6.09,0,0,0-1.71,0c-.12.31,0,.66-.1,1a.83.83,0,0,1-.58,0,6.77,6.77,0,0,1,0-.9c0-.32,0-.64,0-1A4.52,4.52,0,0,1,204.85,95.24Z"/><path class="cls-31" d="M175.35,103.23v-2.4a1.57,1.57,0,0,1,.28-.06l1.66,0a1.36,1.36,0,0,1,.29,0,1,1,0,0,1,.72.62,1.44,1.44,0,0,1,0,1.1,1.09,1.09,0,0,1-.75.65,1.76,1.76,0,0,1-.45.07h-1.58Zm.56-.57a4.74,4.74,0,0,0,1.24,0,.5.5,0,0,0,.13,0,.7.7,0,0,0-.17-1.36c-.32,0-.64,0-1,0a.75.75,0,0,0-.23.07,8.68,8.68,0,0,0,0,.88C175.9,102.37,175.91,102.5,175.91,102.66Z"/><path class="cls-31" d="M201.78,96a1,1,0,0,1-.15.1l-.32.14-.25-.21a1.26,1.26,0,0,0-1.39-.06.88.88,0,0,0,0,1.4,1.11,1.11,0,0,0,1.31,0c.12-.09.23-.2.36-.31l.25.14.24.17c0,.07-.06.12-.09.16a1.87,1.87,0,0,1-2.44.34,1.48,1.48,0,0,1,0-2.41,1.83,1.83,0,0,1,1.85-.11A1.38,1.38,0,0,1,201.78,96Z"/><path class="cls-31" d="M197.59,103.43a2.16,2.16,0,0,1-.86-.16,1.35,1.35,0,0,1-.76-1.39,1.24,1.24,0,0,1,1-1.13,2.2,2.2,0,0,1,1.11,0,1.36,1.36,0,0,1,1,1.68,1.26,1.26,0,0,1-1,.94A4.09,4.09,0,0,1,197.59,103.43Zm.9-1.4a.74.74,0,0,0-.55-.74,1.39,1.39,0,0,0-.9,0,.73.73,0,0,0-.44.94.82.82,0,0,0,.52.55,1.3,1.3,0,0,0,.78,0A.8.8,0,0,0,198.49,102Z"/><path class="cls-31" d="M194,103.29a2.31,2.31,0,0,1-.69,0l-.47-.69-.46-.65a2,2,0,0,0-.68.48s0,.15-.06.23a2.88,2.88,0,0,1,0,.58,1.41,1.41,0,0,1-.54,0,3.51,3.51,0,0,1,0-.85c0-.27,0-.55,0-.82s0-.55,0-.83a1,1,0,0,1,.56,0c.13.29,0,.62.1,1a1.16,1.16,0,0,0,.23-.14c.27-.19.54-.39.79-.6a.87.87,0,0,1,.72-.24,2.08,2.08,0,0,0,.35,0c.05.12,0,.15-.07.19l-.54.39a2.38,2.38,0,0,0-.27.22,1.48,1.48,0,0,0,.14.25c.24.37.49.73.74,1.1C193.85,103,193.92,103.14,194,103.29Z"/><path class="cls-31" d="M214.54,101.59a.6.6,0,0,1-.59-.1.44.44,0,0,0-.27-.09c-.22,0-.44,0-.66,0a.47.47,0,0,0-.19.06.24.24,0,0,0-.17.22c0,.11.09.16.18.2a1.4,1.4,0,0,0,.28.06l.5,0c.12,0,.25,0,.37,0,.56.08.73.37.64.94a.59.59,0,0,1-.31.41,2.28,2.28,0,0,1-2,0c-.19-.13-.24-.22-.27-.53.15-.09.32,0,.5,0,.33.43.79.34,1.24.28A.51.51,0,0,0,214,103a.25.25,0,0,0,0-.44.87.87,0,0,0-.32-.06l-.66,0a1,1,0,0,1-.54-.19.63.63,0,0,1-.31-.63.6.6,0,0,1,.43-.6,2.94,2.94,0,0,1,.73-.13,2,2,0,0,1,.92.17.59.59,0,0,1,.34.35A.66.66,0,0,1,214.54,101.59Z"/><path class="cls-31" d="M186.05,101.64c-.09.59,0,1.1-.08,1.61a.79.79,0,0,1-.48,0,.27.27,0,0,1-.05-.13v-2c0-.09,0-.19,0-.3l.26,0a.51.51,0,0,1,.44.17c.43.44.88.88,1.32,1.31.09.08.15.2.32.21a.58.58,0,0,0,0-.18v-1c0-.15,0-.3,0-.46a.72.72,0,0,1,.48,0,7.94,7.94,0,0,1,0,1.19c0,.4,0,.8,0,1.22a.64.64,0,0,1-.72-.14c-.39-.39-.8-.77-1.2-1.15Z"/><path class="cls-31" d="M201.73,101.83a5.31,5.31,0,0,0,1.5,0c.13-.3,0-.62.09-.94a.63.63,0,0,1,.49,0,6.32,6.32,0,0,1,0,1.23,8.21,8.21,0,0,1,0,1.21.82.82,0,0,1-.49,0,1.21,1.21,0,0,1-.05-.46c0-.13,0-.27,0-.42a1.14,1.14,0,0,0-.3-.06,10.3,10.3,0,0,0-1.24,0c-.09.3,0,.6-.07.89a1.19,1.19,0,0,1-.5,0,7.57,7.57,0,0,1,0-1.25c0-.4,0-.8,0-1.2a.71.71,0,0,1,.49,0c.11.11.07.24.08.36A2,2,0,0,0,201.73,101.83Z"/><path class="cls-31" d="M192.41,95.17H193a10.46,10.46,0,0,1,.51,1c.17.33.32.67.5,1a1,1,0,0,0,.15-.16c.24-.49.47-1,.71-1.45l.21-.4a1.38,1.38,0,0,1,.64,0,.47.47,0,0,1,0,.17L194.41,98h-.63A24.13,24.13,0,0,1,192.41,95.17Z"/><path class="cls-31" d="M182.41,101.55l-.16-.14a1,1,0,0,0-1-.23.78.78,0,0,0-.65.8.84.84,0,0,0,.7.76.94.94,0,0,0,.78-.18l.29-.24a1,1,0,0,1,.42.23c0,.12-.05.17-.1.23a1.65,1.65,0,0,1-2.06.26,1.25,1.25,0,0,1-.59-1.24,1.12,1.12,0,0,1,.73-1,1.54,1.54,0,0,1,2,.52C182.74,101.47,182.56,101.48,182.41,101.55Z"/><path class="cls-31" d="M200.69,107.54l-.06.58a.32.32,0,0,1-.35,0,6.29,6.29,0,0,1,0-1.76.22.22,0,0,1,.11,0c.47,0,.94,0,1.4,0a.58.58,0,0,1,.26,1.07c-.07,0-.15.06-.24.1.06.25.31.36.37.59a.61.61,0,0,1-.46,0l-.31-.39C201.16,107.48,201.16,107.48,200.69,107.54Zm0-.44.92,0a.21.21,0,0,0,.21-.2c0-.1-.09-.18-.22-.2h-.88A.3.3,0,0,0,200.73,107.1Z"/><path class="cls-31" d="M205.6,108.31l-.3,0a1,1,0,0,1-.75-1.4.89.89,0,0,1,.49-.48,1.54,1.54,0,0,1,1.06,0,1,1,0,0,1,.66,1.07.94.94,0,0,1-.88.84Zm.75-1a.57.57,0,0,0-.43-.61,1.56,1.56,0,0,0-.57,0,.56.56,0,0,0-.33.9.83.83,0,0,0,1.14.12A.65.65,0,0,0,206.35,107.34Z"/><path class="cls-31" d="M184,108.05a6.32,6.32,0,0,1,0-1.71,1.7,1.7,0,0,1,.22,0c.38,0,.75,0,1.12,0a.77.77,0,0,1,.82.75.86.86,0,0,1-.67,1,1,1,0,0,1-.24,0H184.1A.35.35,0,0,1,184,108.05Zm.38-.39a1.77,1.77,0,0,0,.2,0h.58l.2,0a.53.53,0,0,0,.34-.55.48.48,0,0,0-.41-.45,2.48,2.48,0,0,0-.9,0A2.41,2.41,0,0,0,184.37,107.66Z"/><path class="cls-31" d="M207.19,112.6a4.69,4.69,0,0,1,0-1.55,10.63,10.63,0,0,1,1.26,0c.3,0,.41.18.36.48,0,.06,0,.13-.06.21a.62.62,0,0,1,.13.53.37.37,0,0,1-.29.31h-.13C208.06,112.62,207.63,112.62,207.19,112.6Zm.88-.28c.07,0,.21,0,.34,0s.08-.08.08-.12a.27.27,0,0,0-.07-.14s0,0-.07,0h-.67c-.08,0-.13.08-.13.17a.14.14,0,0,0,.12.15Zm-.07-.63a2.43,2.43,0,0,0,.33,0,.17.17,0,0,0,.09-.11.11.11,0,0,0-.1-.15c-.22,0-.44,0-.65,0s-.11.07-.11.15a.13.13,0,0,0,.12.14A2.5,2.5,0,0,0,208,111.69Z"/><path class="cls-31" d="M194.08,106.72a.35.35,0,0,1-.39,0,.92.92,0,0,0-.76-.08s-.09,0-.11,0a.3.3,0,0,0-.08.17.17.17,0,0,0,.1.12,1.28,1.28,0,0,0,.28.07l.41,0a1.36,1.36,0,0,1,.29,0,.42.42,0,0,1,.33.33.53.53,0,0,1-.14.57.78.78,0,0,1-.18.11,1.68,1.68,0,0,1-1.21,0,.43.43,0,0,1-.33-.43.5.5,0,0,1,.47.06.9.9,0,0,0,.87.07.2.2,0,0,0,.12-.2.16.16,0,0,0-.14-.17,4.23,4.23,0,0,0-.5,0,1,1,0,0,1-.55-.14.51.51,0,0,1-.24-.53.43.43,0,0,1,.3-.37,1.63,1.63,0,0,1,1.21,0A.35.35,0,0,1,194.08,106.72Z"/><path class="cls-31" d="M188.36,106.28h.34s.05,0,.05.08c0,.18,0,.37,0,.6a.83.83,0,0,0,.21-.1l.56-.43c.28-.21.32-.22.74-.11-.15.22-.42.3-.59.52a2.71,2.71,0,0,0,.38.63,3.39,3.39,0,0,1,.38.63l-.42,0c-.29-.3-.45-.68-.74-1a1.5,1.5,0,0,0-.53.37l0,.56-.32,0s-.06-.08-.06-.12C188.35,107.43,188.36,106.88,188.36,106.28Z"/><path class="cls-31" d="M210.71,108.23a.4.4,0,0,1-.48-.1l-.84-.81-.23-.19c-.12,0-.12.1-.12.16s0,.31,0,.46,0,.3,0,.47h-.33a8.24,8.24,0,0,1,0-1.72.38.38,0,0,1,.51.09l.85.85.3.27a1,1,0,0,0,.07-.2c0-.21,0-.42,0-.63s0-.24,0-.34a.22.22,0,0,1,.28,0A6.66,6.66,0,0,1,210.71,108.23Z"/><path class="cls-31" d="M177.3,108l-.35,0,0-.59a1,1,0,0,0-.57-.06,1.15,1.15,0,0,0-.52,0c-.14.19,0,.42-.13.61l-.11,0-.16,0a6.69,6.69,0,0,1,0-1.75h.32l.06.66a2.36,2.36,0,0,0,1.08,0c.14-.18,0-.42.1-.63s.19-.08.32,0a3,3,0,0,1,0,.85C177.32,107.41,177.3,107.7,177.3,108Z"/><path class="cls-31" d="M214,111.14a1.08,1.08,0,0,1,.19,0h.95a1,1,0,0,1,.24,0,.42.42,0,0,1,.31.35.48.48,0,0,1-.28.57l-.13.08.33.49a.39.39,0,0,1-.52-.14c0-.07-.11-.12-.15-.19a.46.46,0,0,0-.59-.19l-.08.53H214A5.86,5.86,0,0,1,214,111.14Zm.31.31,0,.33h.76a.21.21,0,0,0,.15,0,.19.19,0,0,0,.07-.13s-.05-.09-.08-.13-.05,0-.08,0A4.31,4.31,0,0,0,214.27,111.45Z"/><path class="cls-31" d="M181.14,106.27h.34c0,.08,0,.15,0,.21,0,.3,0,.61,0,.91,0,.49-.24.7-.72.74a2.81,2.81,0,0,1-.58,0,.6.6,0,0,1-.61-.65c0-.36,0-.72,0-1.08a.43.43,0,0,1,0-.13h.26s0,.06,0,.09c0,.25,0,.49,0,.74a2.26,2.26,0,0,0,0,.37.33.33,0,0,0,.32.32,1.48,1.48,0,0,0,.42,0,.41.41,0,0,0,.39-.41c0-.09,0-.19,0-.29C181.13,106.84,181.13,106.58,181.14,106.27Z"/><path class="cls-31" d="M198,107.53l.25.17s0,.08,0,.1a1.23,1.23,0,0,1-1.47.31.93.93,0,0,1-.52-.87.85.85,0,0,1,.5-.84,1.15,1.15,0,0,1,1.48.37L198,107l-.17-.12a.73.73,0,0,0-.77-.14.53.53,0,0,0-.4.48.57.57,0,0,0,.3.59.68.68,0,0,0,.75,0Z"/><path class="cls-31" d="M203.64,111.06a6.72,6.72,0,0,1,1.19,0,.67.67,0,0,1,.66.67.75.75,0,0,1-.52.8.47.47,0,0,1-.16,0,2.29,2.29,0,0,1-.37,0h-.8a1.93,1.93,0,0,1,0-.75A2.29,2.29,0,0,1,203.64,111.06Zm.33,1.18a1.82,1.82,0,0,0,.84,0,.4.4,0,0,0,.29-.44.42.42,0,0,0-.33-.42,2.06,2.06,0,0,0-.82,0A2.77,2.77,0,0,0,204,112.24Z"/><path class="cls-31" d="M190.74,111.3c-.39-.09-.71,0-1-.09V111a5.46,5.46,0,0,1,1.68,0,.26.26,0,0,1-.11.35l-.64.52-.21.21a.48.48,0,0,0,.39.11.9.9,0,0,1,.58,0l0,.2a5.77,5.77,0,0,1-1.66,0,.25.25,0,0,1,.09-.35l.68-.54Z"/><path class="cls-31" d="M176.19,112.44l-.38-.07a.84.84,0,0,1-.63-1,.72.72,0,0,1,.43-.57,1.17,1.17,0,0,1,1,0,.86.86,0,0,1,.51.78.83.83,0,0,1-.54.76C176.45,112.4,176.31,112.41,176.19,112.44Zm0-1.41-.29.06a.47.47,0,0,0-.34.42.51.51,0,0,0,.25.49.65.65,0,0,0,.73,0,.53.53,0,0,0,.24-.57.47.47,0,0,0-.39-.37Z"/><path class="cls-31" d="M196.68,112.49c0-.51,0-1,0-1.46a.26.26,0,0,1,.34,0l.06.54a1.28,1.28,0,0,0,.21-.11l.4-.3a.56.56,0,0,1,.61-.15c0,.08,0,.11-.08.15l-.36.29c.14.4.45.68.61,1a.42.42,0,0,1-.35,0c-.23-.23-.36-.56-.62-.81a.75.75,0,0,0-.4.31,1.71,1.71,0,0,0-.09.49Z"/><path class="cls-31" d="M210.6,112.26a.35.35,0,0,1,.4,0,.73.73,0,0,0,.74.07.24.24,0,0,0,.13-.15.17.17,0,0,0-.13-.18l-.41,0a1,1,0,0,1-.48-.11.4.4,0,0,1-.22-.41.41.41,0,0,1,.28-.38,1.41,1.41,0,0,1,1,0,.25.25,0,0,1,.2.27.24.24,0,0,1-.3,0,.92.92,0,0,0-.61-.09.39.39,0,0,0-.15.06.33.33,0,0,0-.07.13.13.13,0,0,0,.06.1,1.09,1.09,0,0,0,.31.08l.53.07a.36.36,0,0,1,.33.33.42.42,0,0,1-.2.46.65.65,0,0,1-.22.11,1.89,1.89,0,0,1-.82,0,.52.52,0,0,1-.33-.23A1.56,1.56,0,0,1,210.6,112.26Z"/><path class="cls-31" d="M213.16,106.49l.22,0,.17,0c.27.4.41.86.66,1.25l.06,0,0,0a.43.43,0,0,0,0-.07c.19-.38.39-.76.57-1.13a.36.36,0,0,1,.36,0,10.77,10.77,0,0,1-.83,1.72.6.6,0,0,1-.42,0C213.74,107.69,213.45,107.12,213.16,106.49Z"/><path class="cls-31" d="M184.24,112.42H184l-.05-.51a2.2,2.2,0,0,0-.92,0c-.12.17,0,.37-.12.54h-.23a5,5,0,0,1,0-1.49h.25l.06.59a2.39,2.39,0,0,0,1,0l.05-.56.22,0A3.78,3.78,0,0,1,184.24,112.42Z"/><path class="cls-31" d="M179.83,110.9a6.82,6.82,0,0,1,.74,1.48c-.29.14-.33-.16-.5-.29h-.38c-.14,0-.28,0-.39,0-.35.39-.29.38-.54.27a.78.78,0,0,1,.05-.14c.2-.38.4-.76.59-1.14A.31.31,0,0,1,179.83,110.9Zm-.14.41a.5.5,0,0,0-.2.42.38.38,0,0,0,.41,0A.63.63,0,0,0,179.69,111.31Z"/><path class="cls-31" d="M194.83,111.3l-.15.11h-.09a.79.79,0,0,0-.52-.22c-.36,0-.61.25-.58.56a.54.54,0,0,0,.69.47,2.53,2.53,0,0,0,.47-.23l.2.12a.43.43,0,0,1-.25.29,1.08,1.08,0,0,1-1,0,.77.77,0,0,1-.42-.79.72.72,0,0,1,.51-.68.94.94,0,0,1,.68,0A.74.74,0,0,1,194.83,111.3Z"/><path class="cls-31" d="M209,115.92c-.11,0-.12.07-.15.13s-.11.26-.18.38a.24.24,0,0,1-.15.11c-.09,0-.15,0-.19-.12l-.12-.27-.15-.31a1.26,1.26,0,0,0-.09.23c0,.12,0,.25,0,.37s-.07.08-.11.08-.11-.06-.11-.1a6.37,6.37,0,0,1,0-1.07l.23,0a.23.23,0,0,1,.23.15c.09.2.19.4.29.63.07-.07.13-.11.15-.16s.18-.37.28-.58h.35a2.56,2.56,0,0,1,0,1.18c-.19,0-.19,0-.21-.11A1.73,1.73,0,0,0,209,115.92Z"/><path class="cls-31" d="M184.61,115.93l.22.35a.21.21,0,0,1-.3,0,2.32,2.32,0,0,1-.21-.25.33.33,0,0,0-.43-.09l-.07.37c-.12.06-.23,0-.23-.08a4.64,4.64,0,0,1,0-1,2,2,0,0,1,.24,0h.7a.37.37,0,0,1,.38.26c.06.19,0,.32-.19.46Zm-.35-.61a1.65,1.65,0,0,0-.31,0s-.06.08-.07.13,0,.09.05.1a1.16,1.16,0,0,0,.64,0,.15.15,0,0,0,.08-.12.16.16,0,0,0-.1-.11A1.35,1.35,0,0,0,184.26,115.32Z"/><path class="cls-31" d="M186.79,116.34a6.09,6.09,0,0,1,0-1.13,1.12,1.12,0,0,1,.23-.06c.27,0,.53,0,.79,0s.3.13.27.33a.55.55,0,0,0,0,.36.48.48,0,0,1,0,.24.24.24,0,0,1-.2.23l-.12,0Zm.63-.51a1.9,1.9,0,0,0-.25,0,.15.15,0,0,0-.08.12s0,.13.06.13a5.42,5.42,0,0,0,.57,0s.08-.08.07-.12a.16.16,0,0,0-.09-.12A2.66,2.66,0,0,0,187.42,115.83Zm0-.19.24,0a.13.13,0,0,0,.07-.09.11.11,0,0,0-.05-.09.84.84,0,0,0-.52,0,.15.15,0,0,0-.08.12s.06.09.1.1A.74.74,0,0,0,187.44,115.64Z"/><path class="cls-31" d="M186.09,111c.24-.08.28-.08.37.09l.36.74a2,2,0,0,0,.16.22l.23-.43.25-.52a.25.25,0,0,1,.35-.12,4.47,4.47,0,0,1-.68,1.47h-.31A9.47,9.47,0,0,1,186.09,111Z"/><path class="cls-31" d="M194.52,115.83a.62.62,0,0,1-.43.59.91.91,0,0,1-.61,0,.65.65,0,0,1-.47-.69.57.57,0,0,1,.55-.56,1.29,1.29,0,0,1,.48,0A.63.63,0,0,1,194.52,115.83Zm-.73.39h.08a.42.42,0,0,0,.38-.43.39.39,0,0,0-.39-.4.87.87,0,0,0-.32,0,.37.37,0,0,0-.25.46A.45.45,0,0,0,193.79,116.22Z"/><path class="cls-31" d="M215,115.68a1,1,0,0,1-.29-.05.84.84,0,0,0-.44-.07c-.1,0-.2,0-.23.14s.07.14.2.16l.28,0a1.9,1.9,0,0,1,.25,0,.35.35,0,0,1,.14.57.93.93,0,0,1-1.11,0,.11.11,0,0,1,0-.11s.06,0,.1,0a.27.27,0,0,1,.15,0,.71.71,0,0,0,.55.08h0s.09-.08.1-.12a.14.14,0,0,0-.11-.16,2.21,2.21,0,0,0-.37,0,.66.66,0,0,1-.35-.11.33.33,0,0,1,.07-.57,1,1,0,0,1,.87.06S214.91,115.56,215,115.68Z"/><path class="cls-31" d="M200.42,112.54a6.78,6.78,0,0,1,0-1.56h.28c.05.41,0,.8,0,1.17a.36.36,0,0,0,.33.1l.57,0a.12.12,0,0,1,.11.15c0,.07,0,.14-.11.14h-.9A3.16,3.16,0,0,1,200.42,112.54Z"/><path class="cls-31" d="M211.11,115.37a5.56,5.56,0,0,1,1,0,.36.36,0,0,1,.34.43.31.31,0,0,1-.29.3h-.7a.29.29,0,0,0-.1,0c0,.09,0,.19,0,.3s0,.07-.2.08A3.28,3.28,0,0,1,211.11,115.37Zm.65.2a2.69,2.69,0,0,0-.32,0,.15.15,0,0,0-.08.11.13.13,0,0,0,.07.13,1.26,1.26,0,0,0,.64,0s.08-.06.08-.09,0-.12-.06-.13Z"/><path class="cls-31" d="M199.81,118.84l-.07.42s0,0-.17.06a4.32,4.32,0,0,1,0-.88c.27-.08.3-.07.39.09l.2.41,0,0a.52.52,0,0,0,.1-.11c.06-.1.1-.2.15-.3s.1-.18.37-.13a3.46,3.46,0,0,1,0,.85s-.07.09-.08.08a.18.18,0,0,1-.11-.1c0-.12,0-.24,0-.36s-.13.08-.18.14-.06.33-.26.32-.16-.2-.23-.32Z"/><path class="cls-31" d="M176.72,116.22a.25.25,0,0,1-.33,0c-.18-.18-.35-.35-.54-.52a1.16,1.16,0,0,0-.2-.13c-.13.24,0,.49-.12.69-.08,0-.16,0-.17-.06a5,5,0,0,1,0-1,.25.25,0,0,1,.34.08l.53.52a.79.79,0,0,0,.18.14c.1,0,.09-.12.09-.19s0-.33,0-.49.09-.06.19-.11A8.42,8.42,0,0,1,176.72,116.22Z"/><path class="cls-31" d="M182,116.26a1,1,0,0,1-.69.08.61.61,0,0,1-.51-.69.58.58,0,0,1,.61-.55.6.6,0,0,1,.57.25.11.11,0,0,1,0,.11.11.11,0,0,1-.1,0c-.09,0-.17-.09-.26-.12a.38.38,0,0,0-.53.42.3.3,0,0,0,.25.29.93.93,0,0,0,.29,0s.11,0,.12-.07,0-.11-.1-.13l-.12-.07a.4.4,0,0,1,.48-.06A.69.69,0,0,1,182,116.26Z"/><path class="cls-31" d="M202.06,115.71a1,1,0,0,0,.2-.09l.37-.27a.37.37,0,0,1,.41,0l-.35.31c.07.33.36.53.46.83a.24.24,0,0,1-.34-.06l-.38-.55c-.24.09-.41.2-.41.47,0,0,0,.06,0,.08s-.08.07-.13.07-.06,0-.09-.06a.06.06,0,0,1,0,0,6.37,6.37,0,0,1,0-1.07H202Z"/><path class="cls-31" d="M190.92,116a1.74,1.74,0,0,0-.72,0,1.64,1.64,0,0,1,0,.32c0,.1-.09.13-.19.09a3.3,3.3,0,0,1,0-1.13c.09,0,.16,0,.18.08s0,.22,0,.33a1.45,1.45,0,0,0,.68,0c.14-.11.07-.27.13-.39a.13.13,0,0,1,.08-.07.21.21,0,0,1,.13.08,1.83,1.83,0,0,1,0,.33c0,.21,0,.41,0,.62a.13.13,0,0,1-.12.14c-.09,0-.11-.07-.12-.14Z"/><path class="cls-31" d="M197.21,115.36c-.33.13-.64,0-.93.09-.07.21-.05.25.1.26l.58,0c.07,0,.13,0,.11.13s-.23,0-.35.06h-.33a.14.14,0,0,0-.16.15c0,.1.09.13.17.14h.5l.32.05c-.07.07-.1.13-.13.13a6.5,6.5,0,0,1-1.08,0,4.62,4.62,0,0,1,0-1.11,2.24,2.24,0,0,1,.92-.07A.33.33,0,0,1,197.21,115.36Z"/><path class="cls-31" d="M202.14,119.37a3.09,3.09,0,0,1,0-.91,1.79,1.79,0,0,1,.89,0c.06,0,.15.12.14.17a1.91,1.91,0,0,0,0,.48c0,.19-.07.29-.26.29A4.32,4.32,0,0,1,202.14,119.37Zm.51-.13a1.06,1.06,0,0,0,.23,0s.06-.06.06-.09,0-.09-.06-.09a3.38,3.38,0,0,0-.45,0s-.06.06-.06.09a.15.15,0,0,0,.07.1Zm.29-.52a.45.45,0,0,0-.53-.09.08.08,0,0,0,0,.07s0,.06,0,.06A.51.51,0,0,0,202.94,118.72Z"/><path class="cls-31" d="M206,115.62a.68.68,0,0,1-.24,0,.66.66,0,0,0-.38-.14.42.42,0,0,0-.43.26.37.37,0,0,0,.08.42.43.43,0,0,0,.49.13,2.7,2.7,0,0,0,.34-.17l.12.1a.48.48,0,0,1-.34.28.75.75,0,0,1-.49,0,.63.63,0,0,1-.48-.72.53.53,0,0,1,.23-.38.75.75,0,0,1,.58-.14A.63.63,0,0,1,206,115.62Z"/><path class="cls-31" d="M200.08,116.4c-.1.09-.19.08-.23,0-.19-.3-.48-.21-.74-.2-.07,0-.14.12-.2.19a.15.15,0,0,1-.23,0,10.72,10.72,0,0,1,.52-1,.19.19,0,0,1,.34,0A8.55,8.55,0,0,1,200.08,116.4Zm-.53-.46c-.11-.3-.11-.3-.2-.31s-.16.16-.11.31Z"/><path class="cls-31" d="M208.32,119.45a2.94,2.94,0,0,1,0-.94,1.92,1.92,0,0,1,.79,0,.39.39,0,0,1,.38.32.5.5,0,0,1-.22.57.63.63,0,0,1-.23.08C208.82,119.47,208.59,119.46,208.32,119.45Zm.19-.24a1.06,1.06,0,0,0,.52,0,.31.31,0,0,0,0-.6.78.78,0,0,0-.56,0Z"/><path class="cls-31" d="M195.85,119l.14.25a.14.14,0,0,1-.22,0c-.06-.07-.12-.15-.19-.22a.24.24,0,0,0-.32-.06c0,.07,0,.17-.06.25s-.11.08-.19,0a2,2,0,0,0,0-.23v-.63a1.77,1.77,0,0,1,.91,0,.3.3,0,0,1,.15.47A1.18,1.18,0,0,1,195.85,119Zm-.63-.31a.93.93,0,0,0,.59,0,.13.13,0,0,0,.06-.1s0-.09-.06-.09a4,4,0,0,0-.49,0S195.26,118.63,195.22,118.7Z"/><path class="cls-31" d="M214.62,118.49l.22,0a.54.54,0,0,1,.38.53.49.49,0,0,1-.42.49,1.3,1.3,0,0,1-.44,0,.52.52,0,0,1-.36-.58.49.49,0,0,1,.47-.44Zm-.05.89c.28,0,.43-.13.44-.34a.35.35,0,0,0-.35-.37.48.48,0,0,0-.24,0,.28.28,0,0,0-.21.23.33.33,0,0,0,.14.36A1.13,1.13,0,0,0,214.57,119.38Z"/><path class="cls-31" d="M178.2,115.16c.13-.08.21,0,.25,0s.11.22.17.33l.23.44c.08-.11.14-.18.19-.26l.27-.51c0-.06,0,0,.21,0,0,0,0,.06,0,.07-.15.31-.29.62-.46.93s-.3.19-.41,0A8.89,8.89,0,0,1,178.2,115.16Z"/><path class="cls-31" d="M186.05,118.62c0,.21,0,.37-.06.53s-.05,0-.09,0-.05,0-.06,0a1.74,1.74,0,0,1,.06-.9c.36.12.5.49.82.66.15-.19,0-.42.13-.59,0,0,.07,0,.08,0a1.83,1.83,0,0,1,0,.87C186.53,119.17,186.41,118.76,186.05,118.62Z"/><path class="cls-31" d="M178.41,118.23l-.26.27.37.62c-.22.07-.26-.09-.34-.19l-.22-.27a.39.39,0,0,0-.35.38c0,.09-.07.1-.17,0a2,2,0,0,1,.05-.87s0,0,.09,0l.09.3s.07,0,.09,0l.37-.25A.21.21,0,0,1,178.41,118.23Z"/><path class="cls-31" d="M185.43,121.72l-.29.44A1.05,1.05,0,0,1,185,122c-.06-.09-.1-.18-.18-.33l-.1.4c-.1,0-.12,0-.12-.1a4.69,4.69,0,0,1,0-.53.16.16,0,0,1,.1-.11.25.25,0,0,1,.15,0,1.14,1.14,0,0,1,.12.22c0,.06.08.13.13.21.15-.11.17-.28.26-.39a.3.3,0,0,1,.13-.09s.08,0,.13,0a1.59,1.59,0,0,1,0,.72c-.09,0-.12,0-.13-.09S185.46,121.85,185.43,121.72Z"/><path class="cls-31" d="M207.09,118.56a.78.78,0,0,1-.22,0l-.41,0s-.07.09-.13.18l.68.08c0,.09,0,.12-.08.13h-.37c-.08,0-.17,0-.19.11s.06.13.17.13l.42,0a.84.84,0,0,1,.21.08,2.69,2.69,0,0,1-1,0,2.08,2.08,0,0,1,0-.93A1.58,1.58,0,0,1,207.09,118.56Z"/><path class="cls-31" d="M189.17,118.68v.25a.5.5,0,0,1,0,.12c-.05.21-.24.29-.57.28s-.43-.1-.45-.33a4.3,4.3,0,0,1,0-.62s.06-.06.09-.06.08.05.08.08,0,.33,0,.49.09.28.28.28.34-.07.36-.25,0-.28,0-.42a.44.44,0,0,1,0-.15l0,0s.06,0,.07,0,0,.21.05.32Z"/><path class="cls-31" d="M180.35,118.87c.18-.18,0-.43.18-.62,0,0,.08.09.08.13v.77c-.11,0-.2,0-.25,0s-.26-.24-.39-.36l-.22-.16c-.19.16,0,.39-.17.54,0,0-.07,0-.07,0a2.33,2.33,0,0,1,0-.87.53.53,0,0,1,.22.08c.11.09.21.21.32.31Z"/><path class="cls-31" d="M175.49,118.78l-.07.19-.06.16c-.05,0-.1,0-.11-.07a5.75,5.75,0,0,1,0-.83,1.76,1.76,0,0,1,.88,0,.3.3,0,0,1,.16.46.29.29,0,0,1-.14.08,1.46,1.46,0,0,1-.29,0Zm.31-.18.25,0s0-.07,0-.1a.07.07,0,0,0,0-.07.66.66,0,0,0-.55,0,.12.12,0,0,0-.06.1.16.16,0,0,0,.07.09A1.85,1.85,0,0,0,175.8,118.6Z"/><path class="cls-31" d="M192.73,119.31a3.76,3.76,0,0,1,.45-.92.16.16,0,0,1,.25,0,5.78,5.78,0,0,1,.42.82c-.07.09-.13.06-.16,0a.39.39,0,0,0-.39-.18.42.42,0,0,0-.39.17A.78.78,0,0,1,192.73,119.31Zm.53-.69-.1.26c.11,0,.2.06.24,0S193.4,118.66,193.26,118.62Z"/><path class="cls-31" d="M211.39,118.75l-.19,0a1,1,0,0,0-.23-.07.34.34,0,0,0-.35.17.32.32,0,0,0,0,.35.37.37,0,0,0,.39.16,2,2,0,0,0,.26-.11.15.15,0,0,1,.11,0,.08.08,0,0,1,0,.08.59.59,0,0,1-1-.14.5.5,0,0,1,.36-.7.68.68,0,0,1,.4,0A.29.29,0,0,1,211.39,118.75Z"/><path class="cls-31" d="M197.86,119.08c-.18,0-.19.32-.45.2l.23-.43-.2-.45c.26-.09.26.19.4.23s.17-.29.41-.2l-.23.44.23.4a.14.14,0,0,1-.22,0Z"/><path class="cls-31" d="M186.87,121.38c.24.06.16.3.3.38s.11-.2.18-.29.08-.09.12-.09a.18.18,0,0,1,.11.1,3.59,3.59,0,0,1,.12.35c.2-.09.11-.35.31-.43a1.24,1.24,0,0,1-.22.76c-.06,0-.13-.06-.15-.1a3,3,0,0,1-.14-.36c-.2.09-.13.34-.3.44s-.09,0-.1,0A2.9,2.9,0,0,1,186.87,121.38Z"/><path class="cls-31" d="M190.8,118.68a1.18,1.18,0,0,0,.59,0l.09-.34.09,0a1.61,1.61,0,0,1,0,.87c-.21,0-.09-.23-.2-.32a1.17,1.17,0,0,0-.56,0l-.1.33c-.05,0-.13,0-.13-.07,0-.26,0-.52,0-.77,0,0,.06,0,.09-.06a.13.13,0,0,1,.06.05Z"/><path class="cls-31" d="M183,121.81l-.16.3a1.07,1.07,0,0,1,0-.76,1.73,1.73,0,0,1,.68,0,.23.23,0,0,1,.19.27c0,.11-.09.18-.23.19Zm.51-.28c-.27-.09-.32-.1-.46-.06s-.06,0-.06.08,0,.09.05.09a2.16,2.16,0,0,0,.36,0S183.44,121.59,183.49,121.53Z"/><path class="cls-31" d="M214.19,122.46a2.17,2.17,0,0,1,0-.76,1.2,1.2,0,0,1,.75,0,.34.34,0,0,1,.21.4.38.38,0,0,1-.33.36h-.61Zm.13-.66a.59.59,0,0,0,.06.51,2.56,2.56,0,0,0,.39,0,.24.24,0,0,0,.2-.23.28.28,0,0,0-.18-.26A.69.69,0,0,0,214.32,121.8Z"/><path class="cls-31" d="M191.67,121.38a.45.45,0,0,1,.49.52s0,0,0,.08a.53.53,0,0,1-.7.23.44.44,0,0,1-.23-.61A.45.45,0,0,1,191.67,121.38Zm0,.14c-.21,0-.37.11-.36.29a.34.34,0,0,0,.67,0A.29.29,0,0,0,191.7,121.52Z"/><path class="cls-31" d="M202.76,122.16a2.56,2.56,0,0,0,.4.08c.08,0,.17,0,.2-.1s0-.12-.16-.14l-.21,0a.47.47,0,0,1-.15-.06.21.21,0,0,1,0-.37.59.59,0,0,1,.62.1s-.08,0-.1,0a.53.53,0,0,0-.37,0,.11.11,0,0,0-.07.08s0,.09.05.1l.41.08a.17.17,0,0,1,.14.17.45.45,0,0,1-.08.22s0,0-.07,0a.65.65,0,0,1-.59-.06A.77.77,0,0,1,202.76,122.16Z"/><path class="cls-31" d="M205.26,122.09l.06-.49c.13.18.13.25.08.74a.32.32,0,0,1-.18,0,3.15,3.15,0,0,1-.28-.25l-.25-.19-.12.47a.48.48,0,0,1-.08-.11c0-.14,0-.28,0-.42s0-.17.08-.21.16,0,.21.11l.33.32S205.19,122.05,205.26,122.09Z"/><path class="cls-31" d="M179.62,122.11a2.55,2.55,0,0,0-.24-.27c-.12-.1-.23-.06-.32.09a.86.86,0,0,0-.07.1c-.1-.25-.1-.25,0-.69a1.22,1.22,0,0,1,.6,0c.24,0,.32.2.19.41A.86.86,0,0,0,179.62,122.11Zm-.26-.46a.9.9,0,0,0,.22-.06s0,0,0-.06a.1.1,0,0,0,0-.07.47.47,0,0,0-.43,0s0,.07,0,.1a.11.11,0,0,0,.07.08A.84.84,0,0,0,179.36,121.65Z"/><path class="cls-31" d="M182.79,118.33c-.13.25-.25.51-.39.76a.17.17,0,0,1-.3,0c-.13-.25-.24-.5-.36-.75,0,0,0-.06,0-.09a.07.07,0,0,1,.07,0,2.07,2.07,0,0,1,.15.25c.06.11.13.23.2.37.27-.16.23-.54.51-.65Z"/><path class="cls-31" d="M199.63,122.26a.69.69,0,0,1-.48,0,.4.4,0,0,1-.33-.45.38.38,0,0,1,.4-.38.36.36,0,0,1,.39.21h-.15a1,1,0,0,0-.24,0,.25.25,0,0,0-.22.22.25.25,0,0,0,.17.29,1.5,1.5,0,0,0,.3,0l-.06-.21c.22,0,.23,0,.24.14A1.24,1.24,0,0,1,199.63,122.26Z"/><path class="cls-31" d="M184.33,119.18c-.1-.21,0-.45-.09-.7l-.26-.13s0-.07,0-.08l.49,0,.28,0c0,.2-.17.11-.26.26s0,.34,0,.54S184.44,119.22,184.33,119.18Z"/><path class="cls-31" d="M193.83,121.87l-.49,0-.12.27-.07,0a1.52,1.52,0,0,1,0-.67,1,1,0,0,1,.72,0c-.17.1-.34,0-.48.08s-.07.06-.06.09a.12.12,0,0,0,.06.08h.17l.2,0S193.78,121.81,193.83,121.87Z"/><path class="cls-31" d="M209.12,121.67a1,1,0,0,1,0,.58.3.3,0,0,1-.16.17.57.57,0,0,1-.51,0,.27.27,0,0,1-.13-.15,1.27,1.27,0,0,1,0-.64c0,.06.08.08.09.11s0,.22,0,.33.1.27.29.27.27-.07.29-.26,0-.27,0-.4Z"/><path class="cls-31" d="M212.09,122.35v-.56s0-.07,0-.15l.19.26.43-.26.05,0-.11.23.27.47c-.08.08-.12,0-.16,0s-.18-.23-.27-.36a.32.32,0,0,0-.31.29C212.22,122.37,212.19,122.4,212.09,122.35Z"/><path class="cls-31" d="M197.38,122H197l-.18.32a1.45,1.45,0,0,1,0-.85l.16.35h.43l.12-.26s.07,0,.07.06a2.08,2.08,0,0,1,0,.61C197.44,122.23,197.54,122,197.38,122Z"/><path class="cls-31" d="M205,118.76v.32a.31.31,0,0,1-.18.26.49.49,0,0,1-.51,0,.12.12,0,0,1-.06-.17.19.19,0,0,1,.14,0c.38.08.39.07.4-.3v0c0-.12-.08-.29.12-.35C205.1,118.51,205,118.67,205,118.76Z"/><path class="cls-31" d="M181.3,121.3a2.39,2.39,0,0,1,.42.74c-.14,0-.17-.1-.26-.1a1.82,1.82,0,0,0-.33,0,1.28,1.28,0,0,0-.25.14A1.43,1.43,0,0,1,181.3,121.3Zm.13.41-.13-.13a.76.76,0,0,0-.09.09s0,.09,0,.09A.58.58,0,0,0,181.43,121.71Z"/><path class="cls-31" d="M195.7,122.07c0,.18-.17.2-.29.21a.48.48,0,0,1-.38-.11.44.44,0,0,1,0-.62.49.49,0,0,1,.38-.13.36.36,0,0,1,.31.2l-.34-.06a.28.28,0,0,0-.31.3.29.29,0,0,0,.33.28A2.34,2.34,0,0,0,195.7,122.07Z"/><path class="cls-31" d="M177.31,121.64l-.13-.32c.16,0,.17.13.3.16l.29-.21c0,.19-.13.27-.14.44l.15.3c-.18.08-.19-.14-.33-.15l-.29.22C177.13,121.88,177.28,121.8,177.31,121.64Z"/><path class="cls-31" d="M189.45,121.4l.18.15a1.59,1.59,0,0,1,.13.13c.19,0,.19-.29.39-.26,0,.09,0,.13-.05.19a.94.94,0,0,0-.23.48s-.05.07-.08.08-.09,0-.08-.06a.88.88,0,0,0-.22-.49,1.4,1.4,0,0,1-.1-.16Z"/><path class="cls-31" d="M212.77,119.44c-.08,0-.17,0-.18,0a2,2,0,0,1,0-.84c.12-.06.19,0,.2.08A2.38,2.38,0,0,1,212.77,119.44Z"/><path class="cls-31" d="M200.69,121.61c.25.09.23.34.41.47.2-.11.17-.39.39-.51a1.8,1.8,0,0,1-.28.7.13.13,0,0,1-.21,0c-.08-.14-.16-.28-.23-.43A2,2,0,0,1,200.69,121.61Z"/><path class="cls-31" d="M210.87,121.65l-.24.14c-.09.19,0,.4-.11.59,0,0-.08-.07-.08-.1a2.64,2.64,0,0,1,0-.28.29.29,0,0,0-.21-.31c0-.1.09-.1.16-.1A1.19,1.19,0,0,1,210.87,121.65Z"/><path class="cls-31" d="M206.58,121.62c.16.18,0,.41.13.6a2.49,2.49,0,0,1,.37.09s0,0,0,0a1.46,1.46,0,0,1-.51,0A1,1,0,0,1,206.58,121.62Z"/><path class="cls-31" d="M175.37,121.82l.21.06a.18.18,0,0,0,.26-.16c0-.14,0-.27,0-.44.06,0,.11.06.11.08a2.84,2.84,0,0,1,0,.41c0,.21-.11.29-.32.29a.45.45,0,0,1-.2,0S175.43,121.94,175.37,121.82Z"/><path class="cls-31" d="M217.5,53.59c.12-.12.24-.09.39,0l-.2.6Z"/><path class="cls-31" d="M217.68,60.22v0Z"/><path class="cls-31" d="M217.3,60.24l0,0,0,.05,0,0Z"/><path class="cls-31" d="M217.24,73.15s0,0,0,0h0l0,0Z"/><path class="cls-31" d="M172.67,73.16a.1.1,0,0,0,0,0l0,0a0,0,0,0,1,0,0Z"/><polygon class="cls-31" points="172.78 71.95 172.75 71.95 172.76 71.93 172.78 71.95"/><path class="cls-31" d="M218.09,60.51v0Z"/><polygon class="cls-31" points="217.6 73.62 217.59 73.64 217.58 73.62 217.6 73.62"/><polygon class="cls-31" points="172.47 59.98 172.48 60.01 172.46 60.01 172.47 59.98"/></g></g></svg>