<svg id="Layer_1" data-name="Layer 1" xmlns="http://www.w3.org/2000/svg" xmlns:xlink="http://www.w3.org/1999/xlink" viewBox="0 0 500 250"><defs><style>.cls-1,.cls-2{fill:none;}.cls-1,.cls-3,.cls-4{clip-rule:evenodd;}.cls-22,.cls-23,.cls-3{fill:#e2e2e2;}.cls-12,.cls-14,.cls-4{fill:#303030;}.cls-5{fill:#ebeded;}.cls-6{fill:#d3d3d3;}.cls-7{fill:#eaeaea;}.cls-8{fill:#759da7;}.cls-9{clip-path:url(#clip-path);}.cls-10{clip-path:url(#clip-path-2);}.cls-11{fill:#aa8a6c;}.cls-12,.cls-23{fill-rule:evenodd;}.cls-13{clip-path:url(#clip-path-3);}.cls-15{clip-path:url(#clip-path-5);}.cls-16{clip-path:url(#clip-path-6);}.cls-17{fill:#85b2b6;}.cls-18{clip-path:url(#clip-path-7);}.cls-19{fill:#93c1c8;}.cls-20{clip-path:url(#clip-path-9);}.cls-21{clip-path:url(#clip-path-10);}.cls-24{clip-path:url(#clip-path-11);}.cls-25{clip-path:url(#clip-path-12);}.cls-26{clip-path:url(#clip-path-13);}.cls-27{clip-path:url(#clip-path-14);}.cls-28{clip-path:url(#clip-path-15);}.cls-29{fill:#c5cdd3;}.cls-30{clip-path:url(#clip-path-17);}.cls-31{fill:#fff;}.cls-32{clip-path:url(#clip-path-19);}.cls-33{fill:#dce1e6;}.cls-34{clip-path:url(#clip-path-21);}.cls-35{clip-path:url(#clip-path-22);}.cls-36{clip-path:url(#clip-path-23);}.cls-37{fill:#94c2c9;}.cls-38{clip-path:url(#clip-path-24);}.cls-39{clip-path:url(#clip-path-26);}.cls-40{clip-path:url(#clip-path-28);}.cls-41{clip-path:url(#clip-path-30);}.cls-42{clip-path:url(#clip-path-32);}.cls-43{clip-path:url(#clip-path-34);}.cls-44{clip-path:url(#clip-path-36);}.cls-45{clip-path:url(#clip-path-38);}.cls-46{fill:#759ea8;}.cls-47{clip-path:url(#clip-path-40);}.cls-48{clip-path:url(#clip-path-42);}.cls-49{clip-path:url(#clip-path-44);}.cls-50{clip-path:url(#clip-path-46);}.cls-51{clip-path:url(#clip-path-48);}.cls-52{clip-path:url(#clip-path-50);}.cls-53{clip-path:url(#clip-path-52);}.cls-54{clip-path:url(#clip-path-54);}.cls-55{clip-path:url(#clip-path-56);}.cls-56{clip-path:url(#clip-path-58);}.cls-57{clip-path:url(#clip-path-60);}.cls-58{clip-path:url(#clip-path-62);}.cls-59{clip-path:url(#clip-path-64);}.cls-60{clip-path:url(#clip-path-66);}.cls-61{clip-path:url(#clip-path-68);}.cls-62{clip-path:url(#clip-path-70);}.cls-63{clip-path:url(#clip-path-72);}.cls-64{clip-path:url(#clip-path-74);}.cls-65{clip-path:url(#clip-path-76);}.cls-66{isolation:isolate;}.cls-67{clip-path:url(#clip-path-78);}.cls-68{clip-path:url(#clip-path-79);}.cls-69{clip-path:url(#clip-path-80);}.cls-70{clip-path:url(#clip-path-81);}.cls-71{clip-path:url(#clip-path-83);}.cls-72{clip-path:url(#clip-path-85);}.cls-73{clip-path:url(#clip-path-87);}.cls-74{clip-path:url(#clip-path-89);}.cls-75{clip-path:url(#clip-path-91);}.cls-76{clip-path:url(#clip-path-93);}.cls-77{clip-path:url(#clip-path-95);}.cls-78{clip-path:url(#clip-path-97);}.cls-79{clip-path:url(#clip-path-99);}.cls-80{clip-path:url(#clip-path-101);}.cls-81{clip-path:url(#clip-path-102);}.cls-82{clip-path:url(#clip-path-103);}.cls-83{clip-path:url(#clip-path-104);}.cls-84{clip-path:url(#clip-path-106);}.cls-85{fill:#c4dbdf;}.cls-86{clip-path:url(#clip-path-108);}.cls-87{clip-path:url(#clip-path-110);}.cls-88{clip-path:url(#clip-path-112);}.cls-89{clip-path:url(#clip-path-114);}.cls-90{clip-path:url(#clip-path-116);}.cls-91{clip-path:url(#clip-path-118);}.cls-92{clip-path:url(#clip-path-120);}.cls-93{clip-path:url(#clip-path-122);}.cls-94{clip-path:url(#clip-path-124);}.cls-95{clip-path:url(#clip-path-126);}.cls-96{clip-path:url(#clip-path-128);}.cls-97{clip-path:url(#clip-path-130);}.cls-98{clip-path:url(#clip-path-132);}.cls-99{clip-path:url(#clip-path-134);}.cls-100{clip-path:url(#clip-path-136);}.cls-101{clip-path:url(#clip-path-137);}.cls-102{clip-path:url(#clip-path-138);}.cls-103{clip-path:url(#clip-path-139);}.cls-104{clip-path:url(#clip-path-140);}.cls-105{clip-path:url(#clip-path-142);}.cls-106{clip-path:url(#clip-path-144);}.cls-107{clip-path:url(#clip-path-146);}.cls-108{fill:#b5b4b4;}.cls-109{clip-path:url(#clip-path-148);}.cls-110{clip-path:url(#clip-path-149);}.cls-111{fill:#714b35;}.cls-112{clip-path:url(#clip-path-150);}.cls-113{clip-path:url(#clip-path-152);}.cls-114{clip-path:url(#clip-path-153);}.cls-115{clip-path:url(#clip-path-154);}.cls-116{clip-path:url(#clip-path-155);}.cls-117{clip-path:url(#clip-path-157);}.cls-118{clip-path:url(#clip-path-159);}.cls-119{clip-path:url(#clip-path-160);}.cls-120{fill:#e3e3e3;}.cls-121{clip-path:url(#clip-path-162);}.cls-122{clip-path:url(#clip-path-163);}.cls-123{clip-path:url(#clip-path-164);}.cls-124{clip-path:url(#clip-path-166);}.cls-125{clip-path:url(#clip-path-167);}.cls-126{clip-path:url(#clip-path-168);}.cls-127{fill:#b29bb6;}.cls-128{clip-path:url(#clip-path-170);}.cls-129{fill:#dde2e7;}.cls-130{clip-path:url(#clip-path-172);}.cls-131{fill:#cbb5cd;}.cls-132{clip-path:url(#clip-path-174);}.cls-133{opacity:0.1;}</style><clipPath id="clip-path"><path class="cls-1" d="M161.58,60.09a12.32,12.32,0,0,1-3.29-8.87c.69-9.76,14.27-7.61,16.91-2.69s2.33,17.42-1.09,18.3c-1.36.35-4.26-.51-7.21-2.29l1.85,13.11H157.81Z"/></clipPath><clipPath id="clip-path-2"><rect class="cls-2" x="133.19" y="30.24" width="62.01" height="47.42"/></clipPath><clipPath id="clip-path-3"><path class="cls-4" d="M167.45,52.3q.62,8.75,3.32,8.75c2.7,0,5-1.71,6.17-1.71.86,0,.66,1.08.09,1.88s-2.76,1.29-2.76,2.32,1.81.23,1.81.84c0,1,.32,2.89-1.42,2.89S167.84,66.62,167,64q-.84-2.54-1.08-10.5a1.83,1.83,0,0,0-.33,0,2.73,2.73,0,0,0-1.91,4.69c-.63.89-1.34,1.83-2.16,2.79-3.05-1.83-5.32-7.2-2.33-12.35a6.76,6.76,0,0,1,4.9-4.5,8,8,0,0,1,5.21-.38,16.82,16.82,0,0,1,6.59,1.76c0,2.9-.57,3.77-5.38,3.69A8.79,8.79,0,0,0,167.45,52.3Z"/></clipPath><clipPath id="clip-path-5"><polygon class="cls-1" points="154.16 115.49 170.69 173.5 182.75 216.25 191.55 216.25 178.73 115.49 154.16 115.49"/></clipPath><clipPath id="clip-path-6"><rect class="cls-2" x="95.8" y="115.49" width="136.78" height="108.97"/></clipPath><clipPath id="clip-path-7"><path class="cls-1" d="M149.74,115.49c-.38,29.9-1.68,46.21-2.09,48.92s-6.47,20-18.21,51.84h9.12q22.41-45.81,25-51.84c1.74-4,7.11-20.31,15.2-48.92Z"/></clipPath><clipPath id="clip-path-9"><path class="cls-1" d="M128.63,224.46l.46-9.57h9.57q6.81,4.79,17.78,7.75v1.82H139.12l-5.93-.91v.91Z"/></clipPath><clipPath id="clip-path-10"><rect class="cls-2" x="128.63" y="206.22" width="27.81" height="18.24"/></clipPath><clipPath id="clip-path-11"><path class="cls-3" d="M181.52,224.46l.45-9.57h9.58q6.81,4.79,17.78,7.75v1.82H192l-5.92-.91v.91Z"/></clipPath><clipPath id="clip-path-12"><rect class="cls-2" x="181.52" y="206.22" width="27.81" height="18.24"/></clipPath><clipPath id="clip-path-13"><path class="cls-1" d="M130.3,103l8.08,1.18q-13,28.2-13.94,29.83c-1.41,2.45.24,6.7.89,9-3.27.95-2.23-4.11-6.36-2.85-3.78,1.15-6.9,3.76-10.64.66-.46-.38-.85-1.63.61-2.36,3.65-1.81,9-5.12,9.83-6.34Q120.47,129.54,130.3,103Zm62.32,5,13.77,11.67a39.41,39.41,0,0,1,9.58,4.65c.59.61,1.26,1.82-1.31,1.44s-5.3-.67-5.72.19,1.08,2,.27,3.16q-.81,1.14-6.4-6.44l-13.95-7Z"/></clipPath><clipPath id="clip-path-14"><rect class="cls-2" x="105.83" y="67.17" width="116.72" height="98.94"/></clipPath><clipPath id="clip-path-15"><path class="cls-1" d="M164.05,70.05l5-1.65c6.78,16.95,16.91,33.36,33.82,47.22l-4.18,7.21c-14.87-8.75-28.94-15.55-34.65-28.69C162.14,89.73,163.9,75.33,164.05,70.05Z"/></clipPath><clipPath id="clip-path-17"><path class="cls-1" d="M146.87,117.77q21.49,2.28,33.84,0c1-.18,1.18-1.89.71-3C174.06,96.68,169,80.93,169,68.4q-2,1-7.1.3C152.83,81.62,148.66,96.44,146.87,117.77Z"/></clipPath><clipPath id="clip-path-19"><path class="cls-1" d="M159.66,67.62h3.78c.88,5.18,3.66,75.35,12.24,98.3H129.26c1-21,9-46.28,17-67.42q-10.67,9.77-18.59,33.08l-8.7-2.24q9.71-41.78,39.87-61.42l.13-.3h.34l.37-.23Z"/></clipPath><clipPath id="clip-path-21"><rect class="cls-2" x="202.81" y="18.66" width="40.84" height="50.57"/></clipPath><clipPath id="clip-path-22"><path class="cls-1" d="M204.12,20c-.44.44-.27,2-.28,2.56a26.5,26.5,0,0,0,.12,2.67c0,.6.33,6.28,1.11,5.85.45-.25.17-1.89.17-2.41,0-1.16-.05-2.32-.13-3.47A28.61,28.61,0,0,1,205,22c0-.26.25-3.17-.92-2"/></clipPath><clipPath id="clip-path-23"><rect class="cls-2" x="203.36" y="19.22" width="40.01" height="49.74"/></clipPath><clipPath id="clip-path-24"><path class="cls-1" d="M223.15,19.33c-3.75,0-7.51.21-11.26.33-1.81.05-3.61.12-5.42.22-.61,0-1.93-.16-2.44.17-1.14.72.7.89,1.19.88,7.42-.27,14.85-.63,22.29-.64,3.64,0,7.29.09,10.93.07,1.4,0,2.94-.61,3.29,1,.4,1.83-.06,3.87-.18,5.71a34.37,34.37,0,0,0,0,3.66,19.83,19.83,0,0,0,.08,2.44c.14.74.67,1.19,1.16.36a6.51,6.51,0,0,0,.17-2.3c0-.78,0-1.55,0-2.33,0-1.89.27-3.78.23-5.68,0-1.22-.09-3.43-1.63-3.72-1.69-.33-3.78,0-5.51,0-4.3,0-8.6-.19-12.9-.16"/></clipPath><clipPath id="clip-path-26"><path class="cls-1" d="M212.8,31.18c-1.41,0-2.83,0-4.24,0-1.22,0-3.13-.24-4.26.2-.77.3-1,1.16,0,1.39s2.68-.16,3.8-.18c5.6-.1,11.26-.23,16.85.13a123.15,123.15,0,0,0,15.84.3c.44,0,2.69-.12,1.67-1-.6-.5-3-.17-3.81-.19-2.75-.09-5.51-.11-8.25-.21s-5.42-.41-8.13-.48c-3.15-.09-6.31,0-9.47,0"/></clipPath><clipPath id="clip-path-28"><path class="cls-1" d="M210.31,22a5,5,0,0,0-2.21,1.68c-.49.57-1.12.87-1.11,1.64,0,.17.22.36.26.52s0,.52,0,.76c.43,2.49,3.39,3.32,5.56,2.85a3.58,3.58,0,0,0,2.87-4.19c-.44-2-3.39-4.05-5.4-3.26m1.08,1.15c2.2.1,4.39,3.3,2.16,4.85s-6-.14-4.86-3c-.17.41.21-.44.22-.44a5.86,5.86,0,0,1,.89-.76,3.49,3.49,0,0,1,1-.61c.25-.08.21.21.58-.08"/></clipPath><clipPath id="clip-path-30"><path class="cls-1" d="M209.39,25.44a.71.71,0,0,0,1.42,0,.71.71,0,0,0-1.42,0"/></clipPath><clipPath id="clip-path-32"><path class="cls-1" d="M211.16,25.26a.56.56,0,0,0,1.12,0,.56.56,0,0,0-1.12,0"/></clipPath><clipPath id="clip-path-34"><path class="cls-1" d="M211.51,26.72c-.36.14-.82-.14-1.11.05-.52.33,0,.63.28.77,1.26.6,1.49-1.07.83-.82"/></clipPath><clipPath id="clip-path-36"><path class="cls-1" d="M225.28,23.94c-.94.21-1.74,1.09-2.77,1-.78-.09-1.31-.85-2.09-1-1-.14-3.7,2.12-2.27,2.51.82.23,1.28-1.29,2-1.37.58-.06,1.36.65,2,.75,1.12.19,1.89-.43,2.88-.83s1.67,0,2.6.44a3.33,3.33,0,0,0,2.26.47c.79-.15,1.78-1,2.57-.87s1.33.89,2.13,1c.33,0,.82.15.76-.36s-.49-.34-.78-.49c-.73-.38-1.41-1.05-2.29-1a7.33,7.33,0,0,0-1.88.73c-2,.73-3.12-1.41-5.1-1m5.5.8h0"/></clipPath><clipPath id="clip-path-38"><path class="cls-1" d="M227,36.82c-3.86,0-7.73.1-11.58.41-.91.07-10.22,1-10.21,1s1.23.3,1.23.33c-.08-.2-.27-.29-.56-.25,8.84,0,17.64-.79,26.49-.65,2.22,0,4.46,0,6.68.09.55,0,1.93.41,2.36.16,1.14-.65-.93-.73-1.28-.76-4.35-.35-8.76-.38-13.13-.34"/></clipPath><clipPath id="clip-path-40"><path class="cls-1" d="M204,38.7c-.58.58-.05,2.66,0,3.44,0,1.13,0,2.27.1,3.4a22.59,22.59,0,0,0,.63,3.91c.18.69.84,1.78,1.1.53a10.82,10.82,0,0,0-.2-3,34.1,34.1,0,0,1-.16-3.64c0-1.07,0-2.14-.12-3.2,0-.56-.32-2.46-1.33-1.45"/></clipPath><clipPath id="clip-path-42"><path class="cls-1" d="M218.53,49.3c-2.73,0-5.48.11-8.21.28-1.12.07-2.24.17-3.36.29-.23,0-2.75.13-1.62,1.06.51.42,2.6-.16,3.29-.22,1.16-.11,2.32-.17,3.49-.22,2.7-.12,5.41-.22,8.11-.17,4.94.09,9.84.12,14.78,0,.7,0,6.2.14,6.38-.59s-1.81-.32-2.17-.31c-1.31,0-2.63,0-3.94,0-5.58,0-11.18-.25-16.75-.15"/></clipPath><clipPath id="clip-path-44"><path class="cls-1" d="M240.46,37.72c.09,2.44.51,4.88.64,7.32.06,1.12.13,2.24.19,3.35,0,.37-.13,1.23.29,1.44.59.29.67-.29.78-.67a13.7,13.7,0,0,0,.07-3.73c0-1.12,0-2.23-.11-3.35s-.31-2.25-.42-3.38c0-.48.11-1.28-.4-1.57a.69.69,0,0,0-1,.59"/></clipPath><clipPath id="clip-path-46"><path class="cls-1" d="M211.28,40c-2.25.11-4.07,2.64-4.05,4.77,0,2.57,3,3.24,5,3.26,2.35,0,4.68-1.6,4.05-4.23a5.29,5.29,0,0,0-5-3.8m-.06,1.11a5.65,5.65,0,0,1,2.41.78A4.39,4.39,0,0,1,215.25,44c.53,2-1.26,3-2.93,3.05s-4.26-.38-4.17-2.57a3.41,3.41,0,0,1,3.07-3.4m2.33.72,0,0,0,0"/></clipPath><clipPath id="clip-path-48"><path class="cls-1" d="M209,43.41a.57.57,0,0,0,1.13,0,.57.57,0,0,0-1.13,0"/></clipPath><clipPath id="clip-path-50"><path class="cls-1" d="M211.4,43.1a.57.57,0,0,0,1.14,0,.57.57,0,0,0-1.14,0"/></clipPath><clipPath id="clip-path-52"><path class="cls-1" d="M210.09,44.74c-.74.73,1.85,2,2.47,1,.5-.84-.6-.56-1-.61s-1.15-.74-1.49-.39"/></clipPath><clipPath id="clip-path-54"><path class="cls-1" d="M221.1,41.91c-.75.14-3.21,1-3.24,1.86-.06,1.61,2.34,0,2.87-.25,1.42-.58,2.16.59,3.59.66,1.24,0,2.38-1,3.54-.88s1.81,1.43,3.22.74c.75-.37.73-.93-.11-1-.5,0-.85.17-1.38,0-.83-.34-1.16-.9-2.15-.81a18.15,18.15,0,0,0-2.14.65c-1.67.37-2.6-1.25-4.2-1m9.75,1.2h0"/></clipPath><clipPath id="clip-path-56"><path class="cls-1" d="M235.51,41.61c-2.15,1,.16,4.47,1.84,3a1.67,1.67,0,0,0,.11-2.43c-.41-.37-1.39-.88-2-.62m.44,1c.17.1,1.5,1,.53,1.23-.49.11-.9-.88-.53-1.23m0,0h0m.86.51s.06.08,0,0m-.19.67h0"/></clipPath><clipPath id="clip-path-58"><path class="cls-1" d="M215.39,55.39c-2.67,0-5.37-.06-8,.1-.45,0-2.16-.06-2.4.41-.42.86,1.34.43,1.6.41a128.77,128.77,0,0,1,16.2-.08c4.37.13,8.71.2,13.07.43l3.43.19c.37,0,1.31.27,1.39-.32s-1.1-.43-1.39-.45l-7-.38c-5.6-.31-11.27-.31-16.88-.31"/></clipPath><clipPath id="clip-path-60"><path class="cls-1" d="M204.87,56.34c-.5.5-.27,2.39-.28,3,0,1.1-.08,2.19-.1,3.29s0,2.29.08,3.44c0,.48.42,2.8,1,1.47.28-.59,0-2.25,0-2.92,0-1.22.07-2.44.13-3.66,0-1,.06-2.11.1-3.16,0-.33.06-2.51-1-1.48"/></clipPath><clipPath id="clip-path-62"><path class="cls-1" d="M241.09,66.13c-2.6.27-5.24.14-7.86.34-2.25.17-4.5.24-6.76.29-5.11.11-10.23.21-15.32.64-1.17.09-2.33.2-3.49.25-.58,0-3-.24-3.21.37-.31,1,2.3.64,2.87.62,1.24,0,2.47-.13,3.71-.22,5.2-.4,10.41-.52,15.62-.68,2.83-.09,5.64-.3,8.47-.48,1.41-.1,2.82-.1,4.23-.19.37,0,1.67,0,1.94-.28s.23-.7-.2-.66"/></clipPath><clipPath id="clip-path-64"><path class="cls-1" d="M240.21,56.52c.09,2.5.23,5,.31,7.49,0,.75-.2,2.09.22,2.75.67,1.07,1.2-.06,1.32-.72.39-2.1,0-4.41-.14-6.51,0-.81.21-2.6-.18-3.31s-1.56-.62-1.53.3"/></clipPath><clipPath id="clip-path-66"><path class="cls-1" d="M235.56,59.21c-.3,0-1-.09-1.19.16s0,.64,0,.84c-.07.7-.64,1.11-.38,1.94a2,2,0,0,0,1.21,1.3c3,1,3-4.76.38-4.24m.28.86c1,.27,1.14,2.44,0,2.6-1.68.24-.94-2.15,0-2.6"/></clipPath><clipPath id="clip-path-68"><path class="cls-1" d="M209.92,56.8a3.07,3.07,0,0,0-2.28,1.38c-.19.23-.83.85-.75,1.16s.23.61.57.33c-1.81,3.6,2.86,6.67,5.71,4.17,2.65-2.34,0-7.15-3.25-7m0,.94a2.33,2.33,0,0,0-1.15.44,1.89,1.89,0,0,1,1.15-.44m1,.61,0-.3c1.63.77,2.92,2.19,2.38,4.11a2.55,2.55,0,0,1-3.28,1.62,2.46,2.46,0,0,1-1.86-3.22,2.84,2.84,0,0,1,1.54-1.91c.35-.11,1.13.17,1.26-.3m-2.35,1.25,0,0,0,0"/></clipPath><clipPath id="clip-path-70"><path class="cls-1" d="M209,60.14a.37.37,0,0,0,.74,0,.37.37,0,0,0-.74,0"/></clipPath><clipPath id="clip-path-72"><path class="cls-1" d="M210.27,60.22a.38.38,0,0,0,.75,0,.38.38,0,0,0-.75,0"/></clipPath><clipPath id="clip-path-74"><path class="cls-1" d="M210.84,61.93c-.35,0-1.64-.09-1.87.22-.38.52.23.54.52.59s1.44,0,1.6-.21.11-.63-.25-.6"/></clipPath><clipPath id="clip-path-76"><path class="cls-1" d="M221.55,60.23a14.89,14.89,0,0,0-2.24.7c-.81.2-1.16-.16-1.9-.4a1.81,1.81,0,0,0-1.93.38c-.35.3-1.12,1-.9,1.51.5,1.21,1.63-.76,2.17-.85.83-.14,1.57.59,2.53.38s1.64-.79,2.55-.79a16,16,0,0,1,2.23.51,6.53,6.53,0,0,0,2.95-.56,3.76,3.76,0,0,1,2.43.38c.39.13,1.71.61,1.47-.26-.07-.25-1.81-.69-2.08-.78a3.21,3.21,0,0,0-2.45.17,3.85,3.85,0,0,1-2.2.27,9.76,9.76,0,0,0-2.63-.66m4.89.36h0"/></clipPath><clipPath id="clip-path-78"><rect class="cls-2" x="277.46" y="14" width="39.01" height="60.71"/></clipPath><clipPath id="clip-path-79"><path class="cls-1" d="M309.79,14.1c-8.88,0-17.7.86-26.55,1.32-.93.05-1.85.12-2.77.21-.62.06-2.12-.19-2.52.34-.27.35,0,.4,0,.73a10.26,10.26,0,0,1,0,1.36l-.09,3.21c-.09,4-.15,8.09,0,12.13a14.76,14.76,0,0,1,.18,3c-.13.62-.55,1,.43,1.12a16.41,16.41,0,0,0,3.11-.27l2.91-.27c4.23-.35,8.5-.3,12.74-.41s8.56-.13,12.84-.13a21.31,21.31,0,0,0,5.58-.39c.61-.18.71-.26.56-.87,0-.12-.21-.16-.27-.37a5.74,5.74,0,0,1-.05-.93c-.06-1-.08-1.93-.12-2.9-.08-1.62-.36-3.19-.56-4.79a43.48,43.48,0,0,1-.23-5.59c0-1,0-2.06.1-3.09a8.1,8.1,0,0,0,.22-2.27.93.93,0,0,0-.54-.68,1.83,1.83,0,0,0-.57,0,4.77,4.77,0,0,1-.67-.12,16.91,16.91,0,0,0-3.76-.25m-31,14.7c.11-2.29.25-4.59.33-6.89,0-1.14.07-2.28.1-3.42,0-.25,0-.51,0-.76,0-.86-.09-.93.78-1,3.87-.34,7.76-.45,11.63-.76,4.68-.38,9.38-.63,14.06-.75,2.09-.05,4.18-.16,6.26-.09.46,0,1.37-.11,1.55.25.08.16-.08.69-.11.87-.06.56-.12,1.12-.16,1.68a38.74,38.74,0,0,0,.55,10,9.44,9.44,0,0,0-5.16-1.43c-1.78.14-3.12,1.18-4.55,2.13-.81.53-1.08.68-1.89.15s-1.36-1-2-1.46c-1-.78-2-1.62-2.95-2.44-1.81-1.5-4.3-3.63-6.79-3a18.15,18.15,0,0,0-5,2.39c-2.3,1.42-4.38,3.17-6.68,4.57"/></clipPath><clipPath id="clip-path-80"><rect class="cls-2" x="277.69" y="14" width="38.78" height="60.71"/></clipPath><clipPath id="clip-path-81"><path class="cls-1" d="M304.87,18.49a5.42,5.42,0,0,0,.2,2.2c.38.77.85.53,1-.19a6.74,6.74,0,0,0-.06-2c-.19-.51-1.11-.87-1.11,0"/></clipPath><clipPath id="clip-path-83"><path class="cls-1" d="M306,18.74c-.6,0-2.36-.12-2.77.37-.7.83.52,1,1.05.93s2.48.08,2.88-.41c.68-.81-.68-.9-1.16-.89"/></clipPath><clipPath id="clip-path-85"><path class="cls-1" d="M281.41,39a3,3,0,0,0-2.32,3.79,3.75,3.75,0,0,0,4.34,2.16,3.34,3.34,0,0,0,1.77-4.06A3.3,3.3,0,0,0,281.41,39m1.09,1.26c2.66.46,1.84,4.51-.68,3.57-.87-.33-2.17-1.27-1.68-2.38a2.46,2.46,0,0,1,2.36-1.19"/></clipPath><clipPath id="clip-path-87"><path class="cls-1" d="M297.56,40.72c-.66.05-1.23.52-1.89.6a4.12,4.12,0,0,1-1.73-.31,3.84,3.84,0,0,0-2.07-.11,11.18,11.18,0,0,1-1.66.56c-1.12.09-2.43-1.19-3.31.26-.42.69.19,1.14.82.81s.34-.45,1.15-.25a3.19,3.19,0,0,0,1.91,0,6.92,6.92,0,0,1,1.82-.64,7,7,0,0,1,1.86.38,4,4,0,0,0,2.18-.2,2.22,2.22,0,0,1,1.67-.15c.45.13,1.42.54,1.85.21.75-.58-.25-.66-.65-.74a7.35,7.35,0,0,0-1.95-.44"/></clipPath><clipPath id="clip-path-89"><path class="cls-1" d="M311.91,38.76c-3.05.85-1.65,5.16,1.29,4.66a2.1,2.1,0,0,0,1.35-2.92,2.55,2.55,0,0,0-1-1.2,3.17,3.17,0,0,0-1.64-.54m.14,1.44c1,.06,2,1.82.73,1.88-.9.05-1.91-1.49-.73-1.88m.65.13v0"/></clipPath><clipPath id="clip-path-91"><path class="cls-1" d="M312.5,49.21a.64.64,0,0,1,1.17-.35c.34.44.12,1.77.13,2.29,0,1.73.19,3.45.35,5.17s.26,3.42.38,5.13c.05.79.66,4-.22,4.41-1.13.59-.92-2.41-.95-3-.1-1.76-.23-3.51-.39-5.26C312.72,54.82,312.5,52.05,312.5,49.21Zm-6.77-1.67c1.46,0,2.91,0,4.37.09l1.93.1a5,5,0,0,1,1.56.07c1.28.68-1.34.75-1.66.75-1.33,0-2.66-.13-4-.16-4.91-.12-9.86.18-14.76.38-2.37.09-4.72.11-7.08.24-1.29.07-2.58.16-3.87.22-.6,0-1.19.07-1.79.08a4.71,4.71,0,0,1-1.45,0c-.29-.12-.52-.28-.36-.63s.91-.22,1.23-.22c1.13,0,2.27-.09,3.4-.16,2.58-.16,5.15-.34,7.73-.38C295.9,47.85,300.81,47.58,305.73,47.54ZM279.08,66.27a5.31,5.31,0,0,1,0-1.15c0-.67,0-1.33-.06-2-.06-1.59-.1-3.18-.22-4.75s-.42-3-.42-4.49c0-1-.29-3.63.6-4.33,1.55-.9.94,2.28.91,2.83a33.42,33.42,0,0,0,.2,4.9,32.48,32.48,0,0,1-.08,4.52c0,.8-.05,1.6-.11,2.4a14.55,14.55,0,0,1-.12,2c.33,0,.66,0,.83,0l3.76-.11c4.82-.19,9.64-.1,14.46-.33,4.55-.22,9.13-.27,13.68-.32a.46.46,0,0,1,.33.77c-.25.32-1.42.25-1.78.28-1.28.1-2.56.15-3.85.16-2.71,0-5.42.14-8.12.3-4.82.27-9.63.25-14.45.44l-3.5.12c-.62,0-2.24.39-2.54-.35C278.34,66.62,278.64,66.38,279.08,66.27Z"/></clipPath><clipPath id="clip-path-93"><path class="cls-1" d="M297.62,57.34c1.54.54,3.08,1.12,4.61,1.71l2.45,1c.41.16,2.11.57,2.2,1,.14.58-1.67-.13-2-.22-.81-.26-1.62-.55-2.42-.84-1.8-.65-3.6-1.32-5.4-2l-.51-.17c-1.92.86-3.84,1.73-5.74,2.61-1,.48-2.05,1-3.06,1.45-.75.37-2.12,1.41-2.94,1.39-.32,0-.53-.08-.56-.46s.74-.68,1.06-.84q1.62-.81,3.27-1.59c2.17-1,4.37-2,6.57-3l0,0c-1.22-.41-2.45-.82-3.68-1.21-.7-.23-5.62-1.44-5.44-2.09s4.56,1,5.23,1.2q2.48.8,4.93,1.63a111,111,0,0,1,12-4.92.31.31,0,0,1,.37.4c-.08.3-1,.54-1.26.66l-3,1.34c-2.2,1-4.4,1.95-6.6,2.94Z"/></clipPath><clipPath id="clip-path-95"><path class="cls-1" d="M282.63,68.8c-1.23.16-3.49,1.58-3.38,3a.41.41,0,0,0,.45.21,2.16,2.16,0,0,0,.05.91,2,2,0,0,0,.66,1,3,3,0,0,0,2.32.56,2.91,2.91,0,0,0,2.74-2.74,2.72,2.72,0,0,0-2.84-2.89m.46.89a2,2,0,0,1,1.6,2.15,2.27,2.27,0,0,1-2.76,1.81c-1.43-.2-1.73-1.41-1-2.56a1.67,1.67,0,0,1,.61-.7c.19-.1.43,0,.59-.09.54-.26.21-.68,1-.61"/></clipPath><clipPath id="clip-path-97"><path class="cls-1" d="M288.57,70.65a4.7,4.7,0,0,0-1.75,1.29c-.34.58,0,1.22.73,1s.94-.92,1.55-1.14a1.52,1.52,0,0,1,1.31.1,4.14,4.14,0,0,0,1.73.34c.8-.06,1.48-.52,2.26-.62a5.94,5.94,0,0,1,1.82.26,4.45,4.45,0,0,0,1.88-.3c.46-.09,1.28.3,1.62.15.76-.33-.05-.74-.47-.87a2.69,2.69,0,0,0-1.81.16,2.7,2.7,0,0,1-1.75-.14c-1.41-.38-2.5.54-3.84.37s-2-1.24-3.28-.55"/></clipPath><clipPath id="clip-path-99"><path class="cls-1" d="M311.17,68.94c-1.27.25-2.47.83-2.59,2.29s1.36,2.1,2.59,2C313.94,73,313.74,68.44,311.17,68.94Zm.5,1A1.33,1.33,0,1,1,310,72a.93.93,0,0,1-.12-1.45A2.28,2.28,0,0,1,311.67,70Z"/></clipPath><clipPath id="clip-path-101"><rect class="cls-2" x="236.83" y="80.52" width="46.8" height="42.92"/></clipPath><clipPath id="clip-path-102"><path class="cls-1" d="M247.28,90.79h.1c.84-.06,1.69,0,2.53,0,1.71,0,3.5,0,5.21-.15.35,0,.47.4.31.63s-.73.25-1,.28a19.64,19.64,0,0,1-2.29.19c-.81,0-1.61.06-2.42.08s-2.24.32-2.88,0-.49-.48-.29-.67a3.65,3.65,0,0,1-.13-.94,22.1,22.1,0,0,1-.18-2.69,19.59,19.59,0,0,1,.49-5.35.43.43,0,0,1-.31-.39c0-1.09,4-.83,4.8-.85,1,0,2,0,3,0a10.79,10.79,0,0,1,2.2,0c1.27.29,1.19,2.48,1.22,3.54a53.18,53.18,0,0,1-.14,5.78c-.05.65-.52,1.48-1.07.58a5.57,5.57,0,0,1-.16-2.23,41,41,0,0,0,0-6c-.1-.64-.08-.68-.73-.67L254,82l-3.17.07c-.4,0-1.84.27-3,.27v0c0,.76-.36,1.68-.41,2.48-.12,1.92,0,3.89-.16,5.8C247.29,90.66,247.28,90.72,247.28,90.79Z"/></clipPath><clipPath id="clip-path-103"><rect class="cls-2" x="237.06" y="80.52" width="46.57" height="42.92"/></clipPath><clipPath id="clip-path-104"><path class="cls-1" d="M263.18,91a22.44,22.44,0,0,1,4.31-.1c1,0,1.93,0,2.89,0A15.21,15.21,0,0,1,272,91c0-.06,0-.1,0-.14-.05-1,0-2.1,0-3.14s.08-2.1.13-3.15a15.56,15.56,0,0,1,0-2.44c-.7,0-1.44-.1-1.91-.1-1.11,0-2.22,0-3.33,0a31.2,31.2,0,0,0-3.61.2l-.23,0a12,12,0,0,1,0,2.68c0,2,.08,3.93.12,5.89A1.09,1.09,0,0,1,263.18,91Zm-.76.35a1.36,1.36,0,0,1-.33-.57,10.12,10.12,0,0,1-.32-2.74c0-1.94,0-3.89,0-5.83a.5.5,0,0,1,.15-.7c.59-.51,2.31-.38,3.06-.42C266,81,267.13,81,268.21,81s2.31,0,3.46,0c.43,0,3.4.09,2.07.81l-.25.11a4.4,4.4,0,0,1,.05.82c-.06,1-.08,2.08-.13,3.11s-.1,2.31-.14,3.47c0,.61.19,2-.29,2.48s-.55.23-.7,0A19.17,19.17,0,0,1,268,92c-.87,0-5.61.56-5.62-.45A.37.37,0,0,1,262.42,91.34Z"/></clipPath><clipPath id="clip-path-106"><path class="cls-1" d="M251.27,91.72c-.72.42-.33,2.09-.09,2.67a4.83,4.83,0,0,0,2.13,2.18c1.8,1,4.39.73,5.75,2.46,0,0,.49.48.59-.12s-.79-1.25-1.13-1.5a11,11,0,0,0-3.33-1.29,4.53,4.53,0,0,1-3-2.3c-.18-.43.16-2.73-.92-2.1"/></clipPath><clipPath id="clip-path-108"><path class="cls-1" d="M267.59,92.53c-.66.18-.22,1.08-.22,1.53a2.79,2.79,0,0,1-.53,1.6c-.88,1.13-2.6,1.31-3.89,1.63-.94.24-3.18.75-3.27,2-.1,1.42,1.88-.3,2.05-.37,1.85-.68,4.24-.81,5.67-2.31a3.62,3.62,0,0,0,1-2.29c0-.47,0-2-.8-1.8"/></clipPath><clipPath id="clip-path-110"><path class="cls-1" d="M260.14,102.23c-.47.27-.56-.43-.89-.52s-.86.25-1.13.45c-.47.35-1.77,2.36-2.4,1.27-1.91,3.29,2.85,5.76,5.55,4.51,3-1.37,2.4-6.38-1.12-6.4C260.3,101.74,260.43,102.06,260.14,102.23Zm-1.31-2a4.48,4.48,0,0,1,5.58,3.93,4.81,4.81,0,0,1-4.73,5.36c-2.53.11-5.59-1.7-5.61-4.49C254.05,102.46,256.56,100.87,258.83,100.28Z"/></clipPath><clipPath id="clip-path-112"><path class="cls-1" d="M257.66,104.2a.48.48,0,0,0,.95,0,.48.48,0,0,0-.95,0"/></clipPath><clipPath id="clip-path-114"><path class="cls-1" d="M259.33,104.09a.58.58,0,0,0,1.16,0,.58.58,0,0,0-1.16,0"/></clipPath><clipPath id="clip-path-116"><path class="cls-1" d="M258.13,105.8c-.95.56,1.77,1.67,1.88.54.05-.49-.43-.36-.74-.4s-.85-.3-1.14-.14"/></clipPath><clipPath id="clip-path-118"><path class="cls-1" d="M257.72,109.77A26.49,26.49,0,0,0,258,114c.06.27.09,1.24.3,1.43.52.49.53-.44.55-.8.07-1.29-.06-2.62-.09-3.91a3.52,3.52,0,0,0-.06-1.12c-.21-.42-1-.55-1,.13"/></clipPath><clipPath id="clip-path-120"><path class="cls-1" d="M256.7,108.61c-2.08,2.34-4.95,2.17-7.84,2.38a7.39,7.39,0,0,0-4.31,1.32,5.07,5.07,0,0,0-1.39,1.69c-.15.28-.84,1.94.2,1.55.36-.14.72-1.24,1-1.56a4.58,4.58,0,0,1,1.72-1.46,11.56,11.56,0,0,1,4.37-.71,12,12,0,0,0,4.53-.82,6.79,6.79,0,0,0,1.8-1.19c.19-.18.59-.48.62-.75s-.27-.88-.66-.45"/></clipPath><clipPath id="clip-path-122"><path class="cls-1" d="M246.18,115.8c-2,.06-3.92.14-5.87.26-.4,0-1.74,0-1.4.77.27.66,1.9.22,2.44.19,2-.12,4.09-.16,6.12-.35.46,0,2.52,0,1.67-.83-.4-.39-2.4-.06-3,0"/></clipPath><clipPath id="clip-path-124"><path class="cls-1" d="M237.67,116.74c-.62.81-.34,2.78-.29,3.76s-.14,2.67,1.1,2.81c-.4,0,.29,0,.41,0l.75,0,1.74,0c1.31,0,2.62-.06,3.93-.13.55,0,3.54,0,3.66-.58.15-.73-2.72-.32-3.23-.3-1.25.06-2.5.07-3.75.09h-1.86c-.25,0-1.26.1-1.42-.07a7.2,7.2,0,0,1,0-1.68c0-.67,0-1.34,0-2,0-.45.26-1.3.06-1.72a.68.68,0,0,0-1.08-.22"/></clipPath><clipPath id="clip-path-126"><path class="cls-1" d="M247.75,116.78a21.42,21.42,0,0,0,.4,4.45c.12.48.28,1.47.77,1.72a.66.66,0,0,0,1-.61,14.49,14.49,0,0,0-.37-2.12c-.08-.76-.13-1.52-.16-2.28,0-.58.16-1.44-.39-1.81a.8.8,0,0,0-1.23.65"/></clipPath><clipPath id="clip-path-128"><path class="cls-1" d="M251.65,116.42c-.61.6-.34,2.52-.26,3.3.06.57.68,3.38,1.62,1.92.41-.65-.11-2.36-.11-3.12A10.22,10.22,0,0,0,253,117c-.11-.61-.79-1.11-1.34-.55"/></clipPath><clipPath id="clip-path-130"><path class="cls-1" d="M266,121.43a.53.53,0,0,1,.11.55c-.21.49-1,.39-1.4.42q-2.1.18-4.2.21c-1.36,0-2.71,0-4.07,0-1.13,0-2.3.24-3.42.19-.47,0-1-.17-.85-.77s.65-.54,1.09-.59c1.32-.13,2.64-.18,4-.18,2.79,0,5.58,0,8.37,0a.53.53,0,0,1,.32.12c-.15-.18-.08-.44-.11-.7-.07-.69-.12-1.37-.25-2.06s-.18-1.49-.69-1.84a5.63,5.63,0,0,0-2.47-.27,46.29,46.29,0,0,0-5.39.24c-.81.08-1.64.13-2.44.28-.45.08-1.77.74-2.12.33-.87-1,2.92-1.37,3.44-1.42,1.83-.19,3.66-.33,5.5-.35,1.24,0,3.37-.12,4.28.9a6.11,6.11,0,0,1,1,2.39c.16.58.61,1.64.29,2.25a.63.63,0,0,1-.72.41A1,1,0,0,1,266,121.43Z"/></clipPath><clipPath id="clip-path-132"><path class="cls-1" d="M263,107.65c-1.11.65.95,2.57,1.47,2.87a12.27,12.27,0,0,0,4.12,1,29,29,0,0,1,5.08.87,3.21,3.21,0,0,1,1.56,1.16c.23.28.77,1.5,1.27,1.21,1-.58-1.7-3-2.29-3.28a17.74,17.74,0,0,0-4.38-1,31.65,31.65,0,0,1-4-.75,2.73,2.73,0,0,1-1.65-1.19c-.26-.4-.47-1.24-1.16-.84m12.38,6h0"/></clipPath><clipPath id="clip-path-134"><path class="cls-1" d="M269.92,121.18h.32q2.11,0,4.23-.12c1.43,0,2.87-.11,4.3-.13,1.15,0,2.32.08,3.47,0a15.35,15.35,0,0,1-.34-2.34,10.57,10.57,0,0,0-.45-2.08c-.3-.7-.56-.54-1.35-.48s-1.61.13-2.41.2c-1.77.14-3.55.23-5.32.36-.92.06-1.8.32-2.69.43,0,.32-.06.64-.06.87,0,.7.08,1.38.14,2.07C269.79,120.28,269.9,120.76,269.92,121.18Zm-1,.58a7.73,7.73,0,0,1-.51-2.1,21.65,21.65,0,0,1-.12-3.12.68.68,0,0,1,1.09-.53,8.65,8.65,0,0,1,2.06-.33c.85-.08,1.71-.11,2.57-.16,2-.12,4-.34,6-.38a2.67,2.67,0,0,1,1.88.37c.54.5.65,1.75.81,2.42a17,17,0,0,1,.47,2.23,5.13,5.13,0,0,1,0,.74.47.47,0,0,1,.37.54c0,.49-.72.56-1.12.64a25.14,25.14,0,0,1-4.07.24c-2.8.07-5.79.53-8.58.26C269.31,122.53,268.8,122.36,268.91,121.76Z"/></clipPath><clipPath id="clip-path-136"><rect class="cls-2" x="216.21" y="41.1" width="239.79" height="202.9"/></clipPath><clipPath id="clip-path-137"><rect class="cls-2" x="388.62" y="123.08" width="68.4" height="102.99"/></clipPath><clipPath id="clip-path-138"><path class="cls-1" d="M397,152.74c3.5-.18,7.82,1.86,8.2,5.66.27,2.76.18,5.52.6,8.27a22.29,22.29,0,0,0,2,6.33c.93,1.93,2.86,3.58,3.36,5.64a8.86,8.86,0,0,1-.3,4.45c-.54,1.56-.25,1.44.82,2.75a35.62,35.62,0,0,1,5.31,8.28c1.92,4.42,3.18,9.59,2.47,14.43-.09.61-.2,2.82-1.05,3s-.5-1.09-.45-1.49a26.67,26.67,0,0,0,.22-7.52c-1.5-10.19-8.8-16.9-13.56-25.55-.27-.44-.82-1.5-1.2-2.21-.61-1.1-1.22-3.21-2-4-1.54-1.54-.12,1.57.18,2.16.38.75.8,1.55,1.19,2.2,1.78,3,3.78,6.37,5.62,9.52-8,1.81-13.59-7.78-15.73-14.08-1.77-5.19-3.88-17.34,4.34-17.78"/></clipPath><clipPath id="clip-path-139"><rect class="cls-2" x="389.9" y="123.08" width="66.1" height="102.99"/></clipPath><clipPath id="clip-path-140"><path class="cls-1" d="M443.91,143.09c-5.85.47-9.6,4.32-11.35,9.72-.94,2.91-1.05,5.9-1.57,8.89a19,19,0,0,1-5.79,11.1,11.12,11.12,0,0,0-2.32,3.1,13.1,13.1,0,0,0-2.68,3.83,7,7,0,0,0-.11,6.14,6.35,6.35,0,0,0,1.64,2,39.72,39.72,0,0,0-3.89,17.78c.1,3.68.28,7.36.49,11,.05,1,.38,2.62.86,1,.44-1.51-.11-3.89-.17-5.47-.24-7.71-.46-14.71,2.71-21.91.34-.76.69-1.51,1.06-2.25l.06,0,0,0,.09-.15a1.79,1.79,0,0,0,.29-.4,2.82,2.82,0,0,0,.6-1.1h0a102,102,0,0,1,6.51-9.21s2.49-3.39,2.1-1.5c-.18.91-2,2.64-2.78,3.61a91.09,91.09,0,0,0-5.19,7.49,3.71,3.71,0,0,0-.74,1.19c-.13.23-.24.46-.35.67,5.7,1.88,10.14-1.91,13.16-6.33h0a19.3,19.3,0,0,1,3-3.4c2-1.61,4.07-1.89,6.39-2.68,6.32-2.16,9-10.35,9.86-16.43,1-6.85-3.75-17.36-12-16.69"/></clipPath><clipPath id="clip-path-142"><path class="cls-1" d="M432.36,123.9c-6,6.24-8.9,14.9-11.2,23a105.21,105.21,0,0,0-4.32,27.79c0,6.21-.21,12.46.15,18.67.13,2.2.35,4.41.7,6.59,0,.18.81,5.05,1.56,3.91.42-.64-.8-5-.9-5.78a94.28,94.28,0,0,1-.61-12.46c0-6.85-.16-13.67.53-20.5a24.28,24.28,0,0,1,.43-3.08c.26-1.06-.07-.6.77-1s1.82-.35,2.66-.86c3.35-2,5.06-7.25,6.4-10.67a66.08,66.08,0,0,0,3.19-12.21,87,87,0,0,0,1.15-9.1,23.8,23.8,0,0,1,.26-2.93,6.25,6.25,0,0,0,.3-.93c0-.48-.31-.76-.33-1.17-.25.23-.5.46-.74.7"/></clipPath><clipPath id="clip-path-144"><path class="cls-1" d="M399.64,207.11a18.7,18.7,0,0,0,37.4,0"/></clipPath><clipPath id="clip-path-146"><path class="cls-1" d="M419.84,207.17h-1a33.05,33.05,0,0,1,.37-3.71c.79-4.68,3.27-11.57,8.71-12.33a12.47,12.47,0,0,1,1.83,0,3.36,3.36,0,0,1,1.4-.42c4.63-.34,9.79,3.4,12,7.28,1.8,3.14,1.49,7.25.38,10.58-.74,2.23-2.37,5.4-5.08,5.44-3.39,0-3.55-4.16-3.62-6.6-.08-3.26-.49-6.1-3.06-8.32-.6-.51-1.25-1-1.86-1.48-.94-.8-2-1.61-2.11-2.93-.17-1.83.86-2.15,2.43-1.82.27.06,3,1.27,2.57.32a1.77,1.77,0,0,0-1.13-.7,20.91,20.91,0,0,0-3.69-.23c-5.38,1.18-7.47,8.63-8,13.36C419.93,206.14,419.88,206.65,419.84,207.17Z"/></clipPath><clipPath id="clip-path-148"><path class="cls-1" d="M336.53,110.13a10.27,10.27,0,0,0,2.73-7.37c-.57-8.11-11.86-6.33-14.05-2.24s-1.94,14.48.9,15.21c1.13.29,3.54-.42,6-1.9l-1.54,10.9h9.1Z"/></clipPath><clipPath id="clip-path-149"><rect class="cls-2" x="308.59" y="85.32" width="51.54" height="39.41"/></clipPath><clipPath id="clip-path-150"><path class="cls-1" d="M343.22,100.06a2.81,2.81,0,0,0,.6-1.1c.14-.41.28-.83.38-1.25a2.76,2.76,0,0,0-.42-2.5,2.86,2.86,0,0,0-1.89-.82,3.64,3.64,0,0,0-1.35.17c-.43.14-.79.42-1.21.6a5.35,5.35,0,0,0-.64-2.67,2.66,2.66,0,0,0-2-1.29,3.89,3.89,0,0,0-2.4.49,4.94,4.94,0,0,0-.55.32,1.44,1.44,0,0,1-.48.27c-.2,0-.29-.07-.42-.21a3.36,3.36,0,0,0-.49-.44,2.89,2.89,0,0,0-2.71-.47,2.52,2.52,0,0,0-1.11.8c-.25.33-.43.85-.78,1.09-.15.09-.25,0-.39-.13s-.39-.31-.59-.45a3,3,0,0,0-.94-.42c-.48-.11-1.16-.08-1.3.56a2.55,2.55,0,0,0,0,.73c0,.34.05.67.07,1s.05.49.1.74a1,1,0,0,1,0,.51c-.07.16-.4.07-.54.08a2.21,2.21,0,0,0-.8.17.7.7,0,0,0-.5.88,1,1,0,0,1,0,.43c-.37-.18-1.64-.58-1.81.08a1,1,0,0,0,.17.65,5.07,5.07,0,0,0,.59.91,8.28,8.28,0,0,0,1.59,1.54,1,1,0,0,0-.27,1.74,1.3,1.3,0,0,0,.95.28,1.8,1.8,0,0,1,.39,0,1.62,1.62,0,0,0,.17.06,5.18,5.18,0,0,0,1.46-.19,4.73,4.73,0,0,0,2.21-1.16.69.69,0,0,1,.51-.23c.19,0,.38,0,.57.06a4.31,4.31,0,0,0,1.43-.4,5.2,5.2,0,0,0,.46,1.9c.21.46.65.53,1.09.57,1.38.13,2.77,0,4.15,0-1.34.31-2.72.43-4.05.79-.6.16-.14.56.11.84a5.1,5.1,0,0,1,1,1.64,2.87,2.87,0,0,1,2.84-1.15,2,2,0,0,1,1.21,2.92,3.87,3.87,0,0,1-1.82,1.17,6.6,6.6,0,0,1,.91,1.91,1.39,1.39,0,0,0,.68.78.8.8,0,0,1,.36.14c.12.12.15.26.3.36a1.68,1.68,0,0,0,2.08-.16,1.36,1.36,0,0,0,0-1.78c.65-.27,1.82-.61,1.56-1.61,1.4-.1,4.78-2.36,2.91-4,1-.58,2-2,1.31-3.25a3.18,3.18,0,0,0-2.66-1.44"/></clipPath><clipPath id="clip-path-152"><path class="cls-1" d="M359,182.7a1.52,1.52,0,0,1,1.51,1.52V207a1.52,1.52,0,0,1-1.51,1.52H327.53A1.52,1.52,0,0,1,326,207V184.22a1.52,1.52,0,0,1,1.51-1.52Zm6.06-10.61H321.47a6.06,6.06,0,0,0-6.06,6.07V213a6.06,6.06,0,0,0,6.06,6.06h43.58a6.06,6.06,0,0,0,6.06-6.06V178.16A6.06,6.06,0,0,0,365.05,172.09Z"/></clipPath><clipPath id="clip-path-153"><path class="cls-1" d="M277.83,217.19Q289,203.5,293,196.9c4.52-7.55,8.21-14.25,9.38-16.82,2.79-6.11-6.41-9-8.49-6.12q-4.71,6.47-20.17,40.73Z"/></clipPath><clipPath id="clip-path-154"><rect class="cls-2" x="258.95" y="156.18" width="132.25" height="90.57"/></clipPath><clipPath id="clip-path-155"><path class="cls-1" d="M293.14,214.53l13.91-35c3-6.38-11.39-10.57-13.58-7.6-5,6.74-16.75,33.33-18.23,35.34Z"/></clipPath><clipPath id="clip-path-157"><path class="cls-1" d="M330.17,207.51c-2.71-3.95-12.56-17.24-17.92-22.74-1.54-1.58-3.05-3.1-4.47-4.51-4.23-4.2-12.65,2.86-8.43,6.69,10.51,9.53,25.85,22.39,27.13,23.54C328.28,212.1,331.88,210,330.17,207.51Z"/></clipPath><clipPath id="clip-path-159"><rect class="cls-2" x="307.83" y="201.65" width="23.12" height="15.16" transform="translate(-61.82 187.72) rotate(-30)"/></clipPath><clipPath id="clip-path-160"><path class="cls-1" d="M329.54,205.73a8.35,8.35,0,0,1,1.82,1.88,19.23,19.23,0,0,1,1.2,2.76l-18.51,10.69q-2.1-2-.65-3.06c1-.72,1.76-1.33,2.38-1.83l6.39-8.8a.38.38,0,0,1,.53-.09h0l1.33,1a6.82,6.82,0,0,0,2.72-.68,6,6,0,0,0,1.68-1.75h0a.75.75,0,0,1,1.06-.18Z"/></clipPath><clipPath id="clip-path-162"><path class="cls-1" d="M281.05,215.82a8.2,8.2,0,0,1,.63,2.54,18.59,18.59,0,0,1-.34,3H260q-.84-2.74,1-3c1.2-.15,2.19-.28,3-.4l9.94-4.42a.38.38,0,0,1,.5.19h0l.64,1.55a6.93,6.93,0,0,0,2.7.77,6.19,6.19,0,0,0,2.33-.68h0a.77.77,0,0,1,1,.37A.08.08,0,0,0,281.05,215.82Z"/></clipPath><clipPath id="clip-path-163"><rect class="cls-2" x="258.95" y="206.2" width="23.12" height="15.16"/></clipPath><clipPath id="clip-path-164"><path class="cls-1" d="M312.05,181.28q17.34-2.82,23.22-3.86c11.19-2,14.45-8,12.52-21.13H327.18q-4.1,1.19-34.19,14.62c-3.61,1.79-2.94,7.07-2.28,8.82q0,.11,18.26,31.28l16.86-10.74L312,182.55C311.65,181.81,311.66,181.39,312.05,181.28Z"/></clipPath><clipPath id="clip-path-166"><path class="cls-1" d="M357,151.64l-7.92,0q7.33,23.67,7.92,25.12c.88,2.18-1,5.49-1.77,7.26,2.59,1.16,2.31-3.12,5.57-1.61,3,1.39,5.24,3.9,8.68,1.78a1.17,1.17,0,0,0-.24-2c-2.78-1.92-6.8-5.26-7.34-6.36Q360.76,173.6,357,151.64Zm-46.41-.31-12.08,8.88a32.25,32.25,0,0,0-8.22,3.3c-.52.47-1.15,1.43,1,1.27s4.43-.25,4.72.49-1,1.61-.4,2.6q.6,1,5.68-5l12-5Z"/></clipPath><clipPath id="clip-path-167"><rect class="cls-2" x="285.85" y="114.87" width="97.01" height="72.38"/></clipPath><clipPath id="clip-path-168"><path class="cls-1" d="M334.47,118.41l-3.28-.56C319,128.35,314,148.53,299.14,159.21l3.59,4.45C328.58,160.46,335,135.85,334.47,118.41Z"/></clipPath><clipPath id="clip-path-170"><path class="cls-1" d="M348.75,159.59h-29c-1.32,0-1.07-1.92-.88-2.88,2.21-11.14,10.84-23.15,10.84-39l8.36-1.31C345,127.51,347.39,141.21,348.75,159.59Z"/></clipPath><clipPath id="clip-path-172"><path class="cls-1" d="M348.52,127.32a4.77,4.77,0,0,0,2.89-2.44c3-5.51,1.95-8.55-1.32-9.55s-6.18,1.06-11.38,1.06a6.14,6.14,0,0,0-.78,0l-2.62.15q-11.26,38.19-6.21,51h22.82a76.35,76.35,0,0,0,3.88,7.95H362Q362.89,147.12,348.52,127.32Z"/></clipPath><clipPath id="clip-path-174"><path class="cls-1" d="M347,154.47c-.72,6-1.89,10.36-3.5,13.08h8.47Q349.55,162,347,154.47Z"/></clipPath></defs><title>illustrations</title><ellipse class="cls-5" cx="249.66" cy="222.92" rx="246.81" ry="21.08"/><ellipse class="cls-6" cx="75.09" cy="220.11" rx="22.23" ry="3.53"/><path class="cls-7" d="M57.71,195.2v20.88a4.8,4.8,0,0,0,3.87,4.7c6.06,1.21,18.11,2.8,27.62-1a4.16,4.16,0,0,0,2.6-3.84v-20a3.6,3.6,0,0,0-3.51-3.57l-26.88-.72A3.59,3.59,0,0,0,57.71,195.2Z"/><ellipse class="cls-7" cx="74.52" cy="194.05" rx="16.81" ry="4.34"/><ellipse class="cls-6" cx="74.52" cy="194.05" rx="13.27" ry="3.43"/><path class="cls-8" d="M75.28,197.43c.6-3.27,1.12-6.55,1.6-9.83s1-6.57,1.37-9.86c.82-6.59,1.52-13.19,1.84-19.81a122.81,122.81,0,0,0-.27-19.84,44.35,44.35,0,0,0-2-9.68A19.54,19.54,0,0,0,75.67,124a10.78,10.78,0,0,0-3.53-3.42,10.84,10.84,0,0,1,3.68,3.32,20.09,20.09,0,0,1,2.33,4.42A44.16,44.16,0,0,1,80.41,138,116.63,116.63,0,0,1,80.86,158q-.58,10-2,19.85T75.28,197.43Z"/><path class="cls-8" d="M79.16,194.57q.91-5.76,1.61-11.52c.46-3.85.86-7.71,1-11.57a70.92,70.92,0,0,0-.13-11.57,25.64,25.64,0,0,0-1.13-5.64,8.48,8.48,0,0,0-3.23-4.64,8.44,8.44,0,0,1,3.59,4.51,26,26,0,0,1,1.36,5.7,66.08,66.08,0,0,1,.31,11.68q-.36,5.83-1.22,11.61C80.77,187,80.08,190.79,79.16,194.57Z"/><path class="cls-8" d="M71.21,195c.18-2.71.29-5.42.31-8.12a72.66,72.66,0,0,0-.31-8.09,31.33,31.33,0,0,0-1.58-7.87,11.31,11.31,0,0,0-1.93-3.46,6.25,6.25,0,0,0-3.32-2.14,6.17,6.17,0,0,1,3.6,1.88,11.75,11.75,0,0,1,2.2,3.5,29.24,29.24,0,0,1,1.8,8,62.07,62.07,0,0,1,.13,8.18A62.87,62.87,0,0,1,71.21,195Z"/><path class="cls-8" d="M75,193.53a68.24,68.24,0,0,1-1.46-6.93c-.37-2.33-.61-4.69-.77-7a39.3,39.3,0,0,1,.22-7.11,16.13,16.13,0,0,1,.87-3.48,5.13,5.13,0,0,1,2.25-2.7,5.18,5.18,0,0,0-1.89,2.84,15,15,0,0,0-.64,3.41,45.43,45.43,0,0,0,0,7c.09,2.34.34,4.68.59,7S74.7,191.19,75,193.53Z"/><path class="cls-8" d="M77.38,193.63a116.11,116.11,0,0,1-2.26-12.13,105.76,105.76,0,0,1-1-12.33c0-2.06.06-4.13.24-6.19a33.59,33.59,0,0,1,1-6.12A18,18,0,0,1,78,151.18a8.25,8.25,0,0,1,5-3.41,8.28,8.28,0,0,0-4.73,3.63A17.48,17.48,0,0,0,76,157a50.52,50.52,0,0,0-1.07,12.16,119.88,119.88,0,0,0,.76,12.26Q76.36,187.54,77.38,193.63Z"/><path class="cls-8" d="M76.68,193.65a185.73,185.73,0,0,1-3.26-18.29A164,164,0,0,1,72,156.83c0-3.11.08-6.21.35-9.31a54.16,54.16,0,0,1,1.51-9.2,26.22,26.22,0,0,1,3.71-8.54,12.44,12.44,0,0,1,7.52-5.17A12.28,12.28,0,0,0,77.91,130a26.09,26.09,0,0,0-3.45,8.48,76.21,76.21,0,0,0-1.66,18.35A178.38,178.38,0,0,0,74,175.29c.33,3.07.74,6.14,1.19,9.2S76.1,190.6,76.68,193.65Z"/><path class="cls-8" d="M73.76,195.29c.49-3.95.9-7.91,1.27-11.87s.73-7.93,1-11.89c.58-7.94,1-15.89,1.08-23.84A164.23,164.23,0,0,0,76,123.91a56.61,56.61,0,0,0-2.61-11.58A22.4,22.4,0,0,0,70.75,107a12.91,12.91,0,0,0-1.92-2.26,9.84,9.84,0,0,0-2.47-1.64,10,10,0,0,1,2.54,1.57,13.67,13.67,0,0,1,2,2.22,23.14,23.14,0,0,1,2.79,5.3,57.42,57.42,0,0,1,2.84,11.63,157.43,157.43,0,0,1,1.35,23.87q-.18,12-1.26,23.87c-.36,4-.76,7.93-1.23,11.89S74.37,191.36,73.76,195.29Z"/><path class="cls-8" d="M68.56,194.38c.4-2.92.7-5.86,1-8.8s.49-5.88.64-8.82c.32-5.88.46-11.78.23-17.67a110.76,110.76,0,0,0-1.83-17.53A59.42,59.42,0,0,0,66.32,133a37.89,37.89,0,0,0-3.67-8,46.31,46.31,0,0,1,6.48,16.42,105.56,105.56,0,0,1,2,17.63,172,172,0,0,1-.41,17.73A172.93,172.93,0,0,1,68.56,194.38Z"/><g class="cls-9"><g class="cls-10"><rect class="cls-11" x="155.53" y="42.09" width="23.71" height="37.84"/></g></g><path class="cls-12" d="M167.45,52.3q.62,8.75,3.32,8.75c2.7,0,5-1.71,6.17-1.71.86,0,.66,1.08.09,1.88s-2.76,1.29-2.76,2.32,1.81.23,1.81.84c0,1,.32,2.89-1.42,2.89S167.84,66.62,167,64q-.84-2.54-1.08-10.5a1.83,1.83,0,0,0-.33,0,2.73,2.73,0,0,0-1.91,4.69c-.63.89-1.34,1.83-2.16,2.79-3.05-1.83-5.32-7.2-2.33-12.35a6.76,6.76,0,0,1,4.9-4.5,8,8,0,0,1,5.21-.38,16.82,16.82,0,0,1,6.59,1.76c0,2.9-.57,3.77-5.38,3.69A8.79,8.79,0,0,0,167.45,52.3Z"/><g class="cls-13"><g class="cls-10"><rect class="cls-14" x="155.48" y="41.19" width="24.32" height="28.36"/></g></g><g class="cls-15"><g class="cls-16"><rect class="cls-17" x="151.88" y="113.21" width="41.95" height="105.32"/></g></g><g class="cls-18"><g class="cls-16"><rect class="cls-19" x="127.16" y="113.21" width="53.9" height="105.32"/></g></g><g class="cls-20"><g class="cls-21"><rect class="cls-22" x="126.35" y="212.61" width="32.37" height="14.13"/></g></g><path class="cls-23" d="M181.52,224.46l.45-9.57h9.58q6.81,4.79,17.78,7.75v1.82H192l-5.92-.91v.91Z"/><g class="cls-24"><g class="cls-25"><rect class="cls-22" x="179.24" y="212.61" width="32.37" height="14.13"/></g></g><g class="cls-26"><g class="cls-27"><rect class="cls-11" x="105.63" y="100.69" width="113.16" height="44.64"/></g></g><g class="cls-28"><g class="cls-27"><rect class="cls-29" x="155.13" y="71.95" width="56.2" height="47.21" transform="translate(72.06 269.76) rotate(-85)"/></g></g><g class="cls-30"><g class="cls-27"><rect class="cls-31" x="144.59" y="66.12" width="39.37" height="55.07"/></g></g><g class="cls-32"><g class="cls-27"><rect class="cls-33" x="116.68" y="65.11" width="61.28" height="103.1"/></g></g><g class="cls-34"><g class="cls-35"><g class="cls-36"><rect class="cls-37" x="202.43" y="18.36" width="4.29" height="14.16"/></g></g><g class="cls-38"><g class="cls-36"><rect class="cls-37" x="202.27" y="17.93" width="42.31" height="17.44"/></g></g><g class="cls-39"><g class="cls-36"><rect class="cls-37" x="202.25" y="29.76" width="41.86" height="4.83"/></g></g><g class="cls-40"><g class="cls-36"><rect class="cls-37" x="205.6" y="20.41" width="11.58" height="10.53"/></g></g><g class="cls-41"><g class="cls-36"><rect class="cls-37" x="208" y="23.37" width="4.19" height="4.13"/></g></g><g class="cls-42"><g class="cls-36"><rect class="cls-37" x="209.77" y="23.33" width="3.9" height="3.85"/></g></g><g class="cls-43"><g class="cls-36"><rect class="cls-37" x="208.79" y="25.31" width="4.47" height="3.75"/></g></g><g class="cls-44"><g class="cls-36"><rect class="cls-37" x="216.35" y="22.49" width="20.38" height="5.39"/></g></g><g class="cls-45"><g class="cls-36"><rect class="cls-46" x="203.77" y="35.42" width="39.32" height="4.54"/></g></g><g class="cls-47"><g class="cls-36"><rect class="cls-46" x="202.36" y="37.02" width="4.92" height="14.92"/></g></g><g class="cls-48"><g class="cls-36"><rect class="cls-46" x="203.66" y="47.88" width="39.13" height="4.59"/></g></g><g class="cls-49"><g class="cls-36"><rect class="cls-46" x="239.07" y="35.65" width="4.84" height="15.65"/></g></g><g class="cls-50"><g class="cls-36"><rect class="cls-46" x="205.85" y="38.56" width="11.95" height="10.81"/></g></g><g class="cls-51"><g class="cls-36"><rect class="cls-46" x="207.63" y="41.48" width="3.91" height="3.86"/></g></g><g class="cls-52"><g class="cls-36"><rect class="cls-46" x="210.01" y="41.16" width="3.92" height="3.87"/></g></g><g class="cls-53"><g class="cls-36"><rect class="cls-46" x="208.57" y="43.25" width="5.51" height="4.26"/></g></g><g class="cls-54"><g class="cls-36"><rect class="cls-46" x="216.47" y="40.48" width="16.54" height="5.37"/></g></g><g class="cls-55"><g class="cls-36"><rect class="cls-46" x="233.25" y="40.15" width="6.07" height="6.24"/></g></g><g class="cls-56"><g class="cls-36"><rect class="cls-37" x="203.5" y="53.99" width="38.54" height="4.32"/></g></g><g class="cls-57"><g class="cls-36"><rect class="cls-37" x="203.09" y="54.68" width="4.14" height="14.68"/></g></g><g class="cls-58"><g class="cls-36"><rect class="cls-37" x="203.04" y="64.74" width="39.77" height="5.38"/></g></g><g class="cls-59"><g class="cls-36"><rect class="cls-37" x="238.82" y="54.37" width="4.79" height="14.22"/></g></g><g class="cls-60"><g class="cls-36"><rect class="cls-37" x="232.51" y="57.79" width="6.34" height="7.17"/></g></g><g class="cls-61"><g class="cls-36"><rect class="cls-37" x="205.49" y="55.41" width="10.15" height="10.73"/></g></g><g class="cls-62"><g class="cls-36"><rect class="cls-37" x="207.61" y="58.39" width="3.52" height="3.5"/></g></g><g class="cls-63"><g class="cls-36"><rect class="cls-37" x="208.88" y="58.47" width="3.53" height="3.51"/></g></g><g class="cls-64"><g class="cls-36"><rect class="cls-37" x="207.46" y="60.54" width="5.1" height="3.61"/></g></g><g class="cls-65"><g class="cls-36"><rect class="cls-37" x="213.15" y="58.84" width="19.18" height="5.37"/></g></g></g><g class="cls-66"><g class="cls-67"><g class="cls-68"><g class="cls-69"><rect class="cls-46" x="276.63" y="12.94" width="40.83" height="25.7"/></g></g><g class="cls-70"><g class="cls-69"><rect class="cls-37" x="303.7" y="16.81" width="3.54" height="5.51"/></g></g><g class="cls-71"><g class="cls-69"><rect class="cls-37" x="301.82" y="17.58" width="6.64" height="3.62"/></g></g><g class="cls-72"><g class="cls-69"><rect class="cls-37" x="277.78" y="37.78" width="8.73" height="8.46"/></g></g><g class="cls-73"><g class="cls-69"><rect class="cls-37" x="285.61" y="39.56" width="15.97" height="4.24"/></g></g><g class="cls-74"><g class="cls-69"><rect class="cls-37" x="309.05" y="37.59" width="6.82" height="7.02"/></g></g><g class="cls-75"><g class="cls-69"><rect class="cls-46" x="277.13" y="46.38" width="38.8" height="22.37"/></g></g><g class="cls-76"><g class="cls-69"><rect class="cls-37" x="283.13" y="50.77" width="26.66" height="13.64"/></g></g><g class="cls-77"><g class="cls-69"><rect class="cls-37" x="278.1" y="67.63" width="8.54" height="7.99"/></g></g><g class="cls-78"><g class="cls-69"><rect class="cls-37" x="285.54" y="69.27" width="15.65" height="4.84"/></g></g><g class="cls-79"><g class="cls-69"><rect class="cls-37" x="307.42" y="67.75" width="6.9" height="6.65"/></g></g></g></g><g class="cls-66"><g class="cls-80"><g class="cls-81"><g class="cls-82"><rect class="cls-37" x="245.11" y="79.66" width="13.69" height="13.39"/></g></g><g class="cls-83"><g class="cls-82"><rect class="cls-37" x="260.51" y="79.86" width="14.71" height="13.44"/></g></g><g class="cls-84"><g class="cls-82"><rect class="cls-85" x="249.72" y="90.47" width="11.09" height="9.89"/></g></g><g class="cls-86"><g class="cls-82"><rect class="cls-85" x="258.54" y="91.36" width="11.01" height="9.64"/></g></g><g class="cls-87"><g class="cls-82"><rect class="cls-37" x="252.93" y="98.99" width="12.65" height="11.73"/></g></g><g class="cls-88"><g class="cls-82"><rect class="cls-37" x="256.52" y="102.6" width="3.23" height="3.19"/></g></g><g class="cls-89"><g class="cls-82"><rect class="cls-37" x="258.19" y="102.39" width="3.45" height="3.39"/></g></g><g class="cls-90"><g class="cls-82"><rect class="cls-37" x="256.79" y="104.61" width="4.36" height="3.36"/></g></g><g class="cls-91"><g class="cls-82"><rect class="cls-85" x="256.58" y="108.15" width="3.44" height="8.6"/></g></g><g class="cls-92"><g class="cls-82"><rect class="cls-85" x="241.66" y="107.31" width="16.85" height="9.44"/></g></g><g class="cls-93"><g class="cls-82"><rect class="cls-37" x="237.72" y="114.51" width="12.77" height="3.82"/></g></g><g class="cls-94"><g class="cls-82"><rect class="cls-37" x="236.13" y="115.41" width="13.98" height="9.1"/></g></g><g class="cls-95"><g class="cls-82"><rect class="cls-37" x="246.61" y="114.86" width="4.43" height="9.32"/></g></g><g class="cls-96"><g class="cls-82"><rect class="cls-37" x="250.12" y="115.04" width="4.19" height="8.16"/></g></g><g class="cls-97"><g class="cls-82"><rect class="cls-37" x="250.99" y="114.42" width="17.16" height="9.52"/></g></g><g class="cls-98"><g class="cls-82"><rect class="cls-85" x="261.49" y="106.4" width="16.32" height="9.49"/></g></g><g class="cls-99"><g class="cls-82"><rect class="cls-37" x="267.13" y="113.99" width="17.58" height="9.82"/></g></g></g></g><g class="cls-100"><g class="cls-101"><g class="cls-102"><g class="cls-103"><rect class="cls-8" x="391.95" y="150.75" width="26.64" height="63.28" transform="translate(-16.84 43.36) rotate(-6)"/></g></g><g class="cls-104"><g class="cls-103"><rect class="cls-19" x="416.55" y="141.78" width="40.73" height="77.88"/></g></g><g class="cls-105"><g class="cls-103"><rect class="cls-19" x="411.42" y="123.33" width="28.69" height="80.7" transform="translate(-18.64 60.85) rotate(-8)"/></g></g><g class="cls-106"><g class="cls-103"><rect class="cls-19" x="398.36" y="205.83" width="39.97" height="21.26"/></g></g><g class="cls-107"><g class="cls-103"><rect class="cls-8" x="417.57" y="189.43" width="28.18" height="25.88"/></g></g></g></g><g id="rGHy4F"><path class="cls-108" d="M361.38,135c2.11.26,2.56.86,1.92,3.11a12.16,12.16,0,0,0,0,5.66c1.08,6,2.21,12.05,3.13,18.1a24.28,24.28,0,0,1-1.58,13.62c-1.57,3.56-4.08,5.48-7.64,5.44-1.54,0-3.08-.08-4.62,0a9.27,9.27,0,0,0-3.82.55c-1.44.62-3.12.15-4.69.19-.75,0-1.56-.16-1.35,1.23.09.6-.36.53-.69.53-2.89,0-5.78,0-8.67,0-.56,0-.75-.26-.67-.84.12-.88-.29-1-.92-1-3,0-5.93,0-8.89,0-2.14,0-2.73-.68-2.73-3.13,0-.47,0-.94,0-1.41H350.3c0,.7.52.48.85.48,1.87,0,3.75,0,5.62,0,3.12,0,4.84-1.36,6-4.7a21.26,21.26,0,0,0,1-8.57c-.4-4.95-1.57-9.75-2.35-14.62-.05-.29.06-.69-.36-.88q-1.14,5.12-2.28,10.19c-.45,2-1,2.3-2.74,1.56-.29-.39-.12-.78,0-1.19.48-2.16.93-4.32,1.42-6.47Q359.37,144,361.38,135Z"/><path class="cls-6" d="M361.38,135q-2,8.94-4,17.88c-.49,2.15-.94,4.31-1.42,6.47-.09.41-.26.8,0,1.19-.71.65-.59,1.67-.85,2.51s-.71,1.21-1.51,1a5,5,0,0,1-3.51-2.19H350l-.07-.06c.65-1.21.27-2.58.45-3.87a11.64,11.64,0,0,0,.39-1.18c.89-4,1.8-8,2.64-12a60.4,60.4,0,0,0,1.44-7.08,112.33,112.33,0,0,0,2.71-11.95,2.19,2.19,0,0,0,0-.51c.24-.77.53-1.51.71-2.29q1.14-5,2.23-10.08c.68-3.08,3.16-4.19,5.51-2.45.76.56.48,1.36.32,2.08-1.23,5.64-2.49,11.28-3.74,16.91C362.17,131.28,361.78,133.15,361.38,135Z"/><path class="cls-6" d="M350.3,177.09H320.19l-3.9,0c-1.25,0-1.43-.32-1.56-1.68a6.37,6.37,0,0,1,1.28-4.55c2.56.1,5.11.38,7.66.69,3.42.42,6.84.91,10.26,1.13,1.66.1,3.26.5,4.89.68a9.39,9.39,0,0,0,7.92-2.68c1.05,0,2.1,0,3.15,0a3,3,0,0,1,2.91,3.18C352.87,177,352.9,177.09,350.3,177.09Z"/><path class="cls-108" d="M340.63,203.68c0,1.95.06,3.5,0,5-.05.95.29,1.23,1,1.44,5.14,1.56,10.27,3.18,15.42,4.73a1.14,1.14,0,0,1,1,1.47c-.07.59,0,1.2,0,1.79a1.85,1.85,0,0,1-1.75,1.94,1.78,1.78,0,0,1-1.77-1.89c0-.75-.22-.89-.79-1-4.57-1-9.13-2.06-13.69-3.1-.39-.08-.84,0-.89-.73,0-.36.27-1-.29-1.05a12,12,0,0,0-2.24,0c-.06,0-.18.29-.16.42.22,1.2-.51,1.26-1.24,1.42-4.41,1-8.83,2-13.25,3-.59.13-.88.26-.9,1.08a1.68,1.68,0,0,1-1.79,1.83c-1,0-1.6-.79-1.66-2-.12-2.85-.12-2.85,2.23-3.57,4.71-1.46,9.4-2.93,14.11-4.34.76-.23,1-.56,1-1.46-.46-6.34.9-12.6.56-18.93,0-.73.26-.86.8-.85,1,0,2,0,2.93,0,.68,0,.91.21.89,1a34.72,34.72,0,0,0,.07,6.92A43.72,43.72,0,0,1,340.63,203.68Z"/></g><rect class="cls-6" x="336.16" y="183.2" width="2.52" height="6.78"/><g class="cls-109"><g class="cls-110"><rect class="cls-111" x="321.85" y="95.17" width="19.7" height="31.45"/></g></g><g class="cls-112"><g class="cls-110"><rect class="cls-14" x="319.2" y="89.11" width="28.8" height="25.39"/></g></g><g class="cls-114"><g class="cls-115"><rect class="cls-111" x="271.83" y="170.96" width="32.97" height="48.12"/></g></g><g class="cls-116"><g class="cls-115"><rect class="cls-29" x="273.35" y="169.06" width="36" height="47.37"/></g></g><g class="cls-117"><g class="cls-115"><rect class="cls-111" x="306.53" y="173.42" width="15.54" height="45.47" transform="translate(-53.4 241.51) rotate(-39)"/></g></g><g class="cls-118"><g class="cls-119"><g class="cls-115"><rect class="cls-120" x="308.5" y="206.5" width="25.77" height="11.62" transform="translate(-63.1 189.13) rotate(-30)"/></g></g></g><g class="cls-121"><g class="cls-122"><rect class="cls-120" x="257.81" y="211.63" width="25.77" height="11.62"/></g></g><g class="cls-123"><g class="cls-115"><rect class="cls-33" x="288.29" y="154.4" width="61.92" height="58.51"/></g></g><g class="cls-124"><g class="cls-125"><rect class="cls-111" x="287.86" y="149.44" width="83.95" height="37.49"/></g></g><g class="cls-126"><g class="cls-125"><rect class="cls-127" x="295.7" y="117.28" width="42.54" height="46.95" transform="translate(-11.06 28.16) rotate(-5)"/></g></g><g class="cls-128"><g class="cls-125"><rect class="cls-129" x="316.83" y="114.49" width="33.82" height="46.99"/></g></g><g class="cls-130"><g class="cls-125"><rect class="cls-131" x="325.64" y="113.16" width="38.32" height="64.23"/></g></g><g class="cls-132"><g class="cls-125"><rect class="cls-133" x="341.55" y="152.58" width="12.26" height="16.86"/></g></g></svg>