<?xml version="1.0" encoding="UTF-8"?>
<svg width="800px" height="421px" viewBox="0 0 800 421" version="1.1" xmlns="http://www.w3.org/2000/svg" xmlns:xlink="http://www.w3.org/1999/xlink">
    <!-- Generator: Sketch 52.6 (67491) - http://www.bohemiancoding.com/sketch -->
    <title>MINISTRY</title>
    <desc>Created with Sketch.</desc>
    <g id="visual." stroke="none" stroke-width="1" fill="none" fill-rule="evenodd">
        <g id="assets" transform="translate(-1048.000000, -160.000000)" fill="#333333">
            <g id="MINISTRY" transform="translate(1048.000000, 160.000000)">
                <g id="ontario">
                    <path d="M31.4639962,122.769841 C29.6010173,125.733333 23.8944524,129.503175 20.3926244,129.771429 C16.1436973,130.107937 13.2459069,127.012698 13.8833254,122.911111 C14.5302814,118.82381 18.4469878,115.209524 22.6688921,114.806349 C25.3202988,114.553968 29.1416309,116.298413 31.0316325,118.646032 C31.7978064,119.593651 32.1586393,120.55873 32.0441901,121.357143 C31.9758385,121.785714 31.7803211,122.263492 31.4639962,122.769841 Z M73.6289938,117.11746 C73.5749483,117.644444 73.3667144,118.160317 73.0249563,118.709524 C71.7358131,120.750794 68.4517565,123.034921 62.9502464,125.736508 C48.2323955,132.949206 35.7526625,144.825397 25.4140836,161.265079 C20.7375616,168.698413 16.4552535,177.119048 12.5671594,186.565079 C12.5671594,186.565079 12.5226514,186.704762 12.4606581,186.844444 C12.3525672,186.939683 12.2349388,187.039683 12.2349388,187.039683 C10.9966619,188.177778 9.45318709,189.361905 8.51692895,188.438095 C6.53632173,186.450794 11.3431887,175.668254 25.7987601,146.492063 L31.2128437,135.507937 C34.1853441,129.412698 35.7876331,124.733333 36.4202829,120.347619 C37.0386266,115.97619 36.7588619,111.546032 35.5030997,105.973016 C35.5030997,105.961905 33.2172945,96.1650794 33.2172945,96.1650794 C27.3517724,71.3111111 25.7812748,62.452381 28.2308059,60.3920635 C29.3609919,59.4174603 30.4991257,60.2269841 31.3733906,61.0349206 C31.3733906,61.0349206 31.4449213,61.0984127 31.5243999,61.1698413 C31.5355269,61.2857143 31.5546018,61.4126984 31.5546018,61.4126984 C35.2090288,86.8492063 46.2184072,103.552381 64.9054204,110.25873 C71.1174694,112.487302 73.929423,114.684127 73.6289938,117.11746 Z M202.408202,66.4111111 C167.69671,63.7936508 140.314735,71.6031746 119.326021,89.1428571 C112.705452,94.6698413 108.717215,96.7666667 106.754093,95.7492063 C104.784613,94.7507937 104.738515,90.6444444 106.576061,82.8761905 C112.263551,58.984127 105.959307,37.8126984 88.8825306,20.5174603 C88.8825306,20.5174603 88.8062311,20.4396825 88.7347004,20.3587302 C88.7188046,20.2333333 88.7060881,20.0984127 88.7060881,20.0984127 C88.6250199,19.0650794 88.6250199,17.8492063 89.1829598,16.9555556 C89.3768876,16.652381 89.6200922,16.3857143 89.9761564,16.1714286 C92.8914322,14.3825397 98.6711175,20.7301587 114.233031,40.4349206 C114.233031,40.4412698 120.453028,48.2380952 120.453028,48.2380952 C124.023208,52.6349206 127.297727,55.3460317 131.098395,57.0079365 C134.954697,58.6761905 139.680496,59.4031746 146.445716,59.3619048 C146.463201,59.3539683 158.947703,59.1904762 158.947703,59.1904762 C193.749801,58.6063492 206.846288,59.0301587 207.116516,62.6063492 C207.154665,63.0444444 207.019552,63.4365079 206.793832,63.8031746 C206.127802,64.8650794 204.525513,65.6634921 203.08536,66.2920635 C203.08536,66.2920635 202.915276,66.3555556 202.75155,66.4365079 C202.587824,66.4285714 202.408202,66.4111111 202.408202,66.4111111 Z M146.299475,31.6873016 C150.07312,33.1428571 150.702591,38.284127 147.650612,43.1301587 C144.741694,47.7650794 136.105548,53.2047619 133.476395,52.0777778 C130.867907,50.9666667 131.293912,42.2365079 134.147194,37.7015873 C137.145128,32.9428571 142.56557,30.2460317 146.299475,31.6873016 Z M98.3516134,195.960317 C75.6572882,224.230159 67.1530758,233.87619 64.2759498,232.114286 C62.9438881,231.298413 63.3873788,229.030159 63.94055,227.150794 C63.94055,227.150794 63.9866476,226.990476 64.0454618,226.834921 C64.1503735,226.71746 64.2664123,226.584127 64.2664123,226.584127 C71.7294548,218.634921 78.0702591,210.538095 83.2252424,202.319048 C94.665395,184.139683 100.143062,165.787302 99.5883007,147.920635 C99.3832459,141.479365 99.9237005,137.368254 101.274837,135.231746 C101.629312,134.665079 102.047369,134.233333 102.516293,133.926984 C104.784613,132.501587 108.516929,134.001587 114.317279,138.738095 C133.230011,154.190476 161.297091,157.84127 198.574154,148.336508 C198.574154,148.336508 198.755365,148.292063 198.942934,148.25873 C199.113019,148.306349 199.284692,148.352381 199.284692,148.352381 C201.2653,148.925397 203.506597,149.822222 203.236369,151.715873 C202.660944,155.81746 188.599587,158.780952 151.189,164.779365 L137.704657,166.998413 C130.359243,168.247619 125.097759,169.993651 120.583373,172.687302 C116.089652,175.379365 111.921793,179.24127 107.048164,185.206349 C107.044985,185.206349 98.3516134,195.960317 98.3516134,195.960317 Z M121.443332,194.522222 C119.942775,191.257143 119.92688,184.920635 121.365443,180.68254 C121.651566,179.82381 121.982197,179.114286 122.346209,178.531746 C122.721348,177.928571 123.139405,177.487302 123.552694,177.236508 C126.658719,175.398413 135.148625,180.153968 137.539342,185.169841 C138.892068,187.979365 139.10666,191.274603 138.133842,194.185714 C137.369258,196.528571 135.884597,198.414286 133.958035,199.51746 C132.031474,200.626984 129.780639,200.861905 127.637895,200.220635 C124.975362,199.420635 122.721348,197.333333 121.443332,194.522222 Z M282.67843,100.9 C280.228898,102.84127 223.905579,147.166667 176.628517,142.987302 C176.034017,142.950794 175.611191,142.511111 175.628676,141.952381 C175.628676,141.396825 176.068987,140.895238 176.661898,140.730159 C208.423144,132.726984 239.270386,110.744444 248.146559,104.055556 L249.623271,102.94127 L248.156096,102.084127 C239.395962,96.8873016 209.763154,80.6047619 179.354634,78.4460317 C178.796694,78.4095238 178.419965,78.0079365 178.464473,77.5015873 C178.480369,77.3126984 178.5519,77.1428571 178.644095,76.984127 C178.831664,76.6857143 179.157527,76.4492063 179.534255,76.347619 C225.523764,64.4063492 280.158957,97.5285714 282.649817,99.0666667 C282.993165,99.2650794 283.182324,99.584127 283.191861,99.9380952 C283.182324,100.295238 283.002702,100.64127 282.67843,100.9 Z M90.2591003,37.4587302 C89.8553489,37.752381 89.3800668,37.7603175 89.122556,37.4746032 C75.7987601,22.9634921 55.0786838,17.1857143 49.2719758,15.8 L48.3166428,15.5698413 L48.0114449,16.731746 C46.1389286,23.8492063 40.2145923,49.0301587 43.9500874,69.9920635 C44.0232078,70.3936508 43.8022572,70.8873016 43.4207598,71.1380952 C43.0456207,71.4079365 42.6100779,71.352381 42.4034335,71.0444444 C26.8733111,47.8333333 40.2145923,3.13650794 40.7852488,1.27619048 C40.8631378,1.03333333 41.0236846,0.801587302 41.2398665,0.647619048 C41.4560483,0.480952381 41.6897155,0.406349206 41.8868224,0.450793651 C43.4191702,0.696825397 81.7564775,7.30952381 90.724845,36.2666667 C90.8536004,36.6650794 90.6501351,37.1603175 90.2591003,37.4587302 Z M70.6660308,204.388889 C52.0918773,244.649206 3.3063106,262.639683 1.32729296,263.357143 C1.08408838,263.447619 0.805913209,263.4 0.616754093,263.220635 C0.427594977,263.031746 0.317914481,262.746032 0.327451915,262.420635 C0.381497377,259.950794 1.8836433,204.103175 26.5299634,173.219048 C26.8637736,172.834921 27.3422349,172.685714 27.6696869,172.903175 C28.0066762,173.109524 28.0972818,173.636508 27.9001749,174.133333 C17.0704181,199.812698 15.0087426,230.35873 14.6415514,239.346032 L14.5731998,240.839683 L15.7749165,240.34127 C23.2013988,237.163492 49.6343983,224.895238 69.1479892,203.209524 C69.5263074,202.798413 70.0651725,202.698413 70.4291845,202.977778 C70.8027341,203.27619 70.9092354,203.839683 70.6660308,204.388889 Z" id="emblem"></path>
                    <path d="M399.411858,171.4 L414.679701,171.4 L414.679701,185.695238 L415.021459,185.695238 C419.747258,175.501587 431.19059,169.320635 443.118741,169.320635 C465.288507,169.320635 475.20267,183.792063 475.20267,207.968254 L475.20267,261.471429 L459.365761,261.471429 L459.365761,214.819048 C459.365761,193.833333 455.007153,183.639683 441.244635,182.744444 C423.268161,182.744444 415.221745,197.920635 415.221745,219.788889 L415.221745,261.471429 L399.413448,261.471429 L399.413448,171.4 L399.411858,171.4 Z" id="Path"></path>
                    <path d="M548.32618,177.793651 C556.180258,172.801587 565.625497,169.320635 576.537911,169.320635 C601.045939,169.320635 610.918773,182.031746 610.918773,206.52381 L610.918773,243.806349 C610.918773,254.074603 611.303449,258.820635 611.638849,261.471429 L596.830393,261.471429 L596.830393,249.801587 L596.54427,249.801587 C592.78811,255.288889 584.42378,263.563492 569.950723,263.563492 C551.494198,263.563492 538.566206,255.096825 538.566206,235.5 C538.566206,212.880952 562.055317,205.828571 578.383405,205.828571 C584.598633,205.828571 588.92068,205.828571 595.148625,206.231746 C595.148625,190.674603 589.802893,182.744444 574.024797,182.744444 C565.073915,182.744444 555.517406,186.24127 549.159116,191.911111 L548.32618,177.793651 Z M595.147035,218.553968 C591.769194,218.553968 588.466063,218.196825 585.062788,218.196825 C576.537911,218.196825 555.336195,219.607937 555.336195,235.498413 C555.336195,245.050794 564.085201,250.193651 571.309808,250.193651 C586.932125,250.193651 595.147035,239.931746 595.147035,226.498413 L595.147035,218.553968 Z" id="Shape" fill-rule="nonzero"></path>
                    <path d="M673.08536,185.919048 C670.837705,185.385714 668.558258,185.226984 666.560165,185.226984 C651.689715,185.226984 641.953584,199.357143 641.953584,221.98254 L641.953584,261.469841 L625.312351,261.469841 L625.312351,172.128571 L640.910825,172.128571 L640.910825,186.82381 L641.239866,186.82381 C645.679542,177.449206 655.236052,170.742857 664.767128,170.742857 C668.405659,170.742857 670.728024,171.015873 673.08695,171.442857 L673.08695,185.919048 L673.08536,185.919048 Z" id="Path"></path>
                    <path d="M756.164362,169.320635 C782.168177,169.320635 799.672548,189.080952 799.672548,216.468254 C799.672548,242.225397 781.877285,263.563492 756.164362,263.563492 C730.246384,263.563492 712.494039,242.225397 712.494039,216.468254 C712.495629,189.080952 729.92529,169.320635 756.164362,169.320635 Z M756.164362,250.195238 C774.617708,250.195238 782.877126,232.552381 782.877126,216.468254 C782.877126,199.330159 772.948657,182.744444 756.164362,182.744444 C739.175012,182.744444 729.291051,199.330159 729.291051,216.468254 C729.291051,232.552381 737.482117,250.195238 756.164362,250.195238 Z" id="Shape" fill-rule="nonzero"></path>
                    <path d="M532.196789,171.4 L509.073279,171.4 L509.073279,145.268254 L492.519472,150.566667 L492.519472,171.309524 L478.880941,184.903175 L492.519472,184.903175 L492.519472,237.450794 C492.519472,255.463492 503.106024,263.560317 520.262279,263.560317 C525.170879,263.560317 530.014306,262.366667 533.675091,261.328571 L533.675091,247.384127 C531.200127,248.857143 527.661739,250.193651 523.104435,250.193651 C515.485614,250.193651 509.074869,244.52381 509.074869,234.093651 L509.074869,184.828571 L532.198379,184.828571 L532.198379,171.4 L532.196789,171.4 Z" id="Path"></path>
                    <rect id="Rectangle" x="683.404864" y="171.4" width="16.6094421" height="90.0698413"></rect>
                    <path d="M691.681768,159.393651 C697.300906,159.393651 701.834367,154.869841 701.834367,149.228571 C701.834367,143.598413 697.300906,139.07619 691.681768,139.07619 C686.037196,139.07619 681.479892,143.6 681.479892,149.228571 C681.479892,154.869841 686.037196,159.393651 691.681768,159.393651 Z" id="Path"></path>
                    <path d="M330.414878,136.144444 C366.080114,136.144444 386.927357,163.304762 386.927357,199.822222 C386.927357,237.263492 366.232713,263.561905 330.414878,263.561905 C294.652678,263.561905 273.999364,237.263492 273.999364,199.822222 C273.999364,163.306349 294.840248,136.144444 330.414878,136.144444 Z M330.414878,248.05873 C357.483707,248.05873 369.095533,224.38254 369.095533,199.822222 C369.095533,174.788889 356.321729,151.484127 330.414878,151.647619 C304.597043,151.48254 291.82324,174.787302 291.82324,199.822222 C291.82324,224.38254 303.446193,248.05873 330.414878,248.05873 Z" id="Shape" fill-rule="nonzero"></path>
                    <path d="M181.940918,420 L172.979004,420 L169.416504,410.731934 L153.106934,410.731934 L149.739258,420 L141,420 L156.89209,379.198242 L165.603516,379.198242 L181.940918,420 Z M166.772461,403.857422 L161.150391,388.716797 L155.639648,403.857422 L166.772461,403.857422 Z M186.394043,420 L186.394043,379.198242 L194.409668,379.198242 L211.108887,406.445801 L211.108887,379.198242 L218.762695,379.198242 L218.762695,420 L210.496582,420 L194.047852,393.392578 L194.047852,420 L186.394043,420 Z M227.446289,379.198242 L242.503418,379.198242 C245.898943,379.198242 248.487296,379.458005 250.268555,379.977539 C252.662121,380.682621 254.712394,381.93505 256.419434,383.734863 C258.126473,385.534677 259.425289,387.738024 260.315918,390.344971 C261.206547,392.951917 261.651855,396.166485 261.651855,399.98877 C261.651855,403.347185 261.234379,406.241687 260.399414,408.672363 C259.378901,411.641128 257.922373,414.043936 256.029785,415.880859 C254.601067,417.272468 252.671399,418.357906 250.240723,419.137207 C248.422354,419.712405 245.991714,420 242.94873,420 L227.446289,420 L227.446289,379.198242 Z M235.68457,386.100586 L235.68457,413.125488 L241.835449,413.125488 C244.136242,413.125488 245.79687,412.995607 246.817383,412.73584 C248.153327,412.401854 249.261958,411.835941 250.143311,411.038086 C251.024663,410.24023 251.74365,408.927499 252.300293,407.099854 C252.856936,405.272208 253.135254,402.781266 253.135254,399.626953 C253.135254,396.47264 252.856936,394.051278 252.300293,392.362793 C251.74365,390.674308 250.96436,389.356938 249.962402,388.410645 C248.960444,387.464351 247.689461,386.82422 246.149414,386.490234 C244.999018,386.230467 242.744646,386.100586 239.38623,386.100586 L235.68457,386.100586 Z M282.386719,406.724121 L290.402344,405.944824 C290.884768,408.635267 291.863518,410.611322 293.338623,411.873047 C294.813728,413.134772 296.803698,413.765625 299.308594,413.765625 C301.961927,413.765625 303.961175,413.204351 305.306396,412.081787 C306.651618,410.959223 307.324219,409.646492 307.324219,408.143555 C307.324219,407.178706 307.041263,406.357669 306.475342,405.68042 C305.909421,405.00317 304.921394,404.414065 303.51123,403.913086 C302.546382,403.5791 300.347673,402.985356 296.915039,402.131836 C292.499001,401.037104 289.4004,399.691903 287.619141,398.096191 C285.114245,395.851063 283.861816,393.114274 283.861816,389.885742 C283.861816,387.807607 284.450922,385.864023 285.62915,384.054932 C286.807379,382.245841 288.505116,380.868169 290.722412,379.921875 C292.939708,378.975581 295.616195,378.502441 298.751953,378.502441 C303.873072,378.502441 307.72777,379.624989 310.316162,381.870117 C312.904554,384.115246 314.263671,387.111798 314.393555,390.859863 L306.155273,391.22168 C305.802733,389.12499 305.046637,387.617436 303.886963,386.698975 C302.727289,385.780513 300.987805,385.321289 298.668457,385.321289 C296.27489,385.321289 294.400886,385.812983 293.046387,386.796387 C292.174312,387.427249 291.738281,388.271479 291.738281,389.329102 C291.738281,390.29395 292.14648,391.119625 292.962891,391.806152 C294.001958,392.678227 296.525371,393.587398 300.533203,394.533691 C304.541036,395.479985 307.505117,396.458735 309.425537,397.469971 C311.345957,398.481206 312.848872,399.863517 313.934326,401.616943 C315.019781,403.37037 315.5625,405.536608 315.5625,408.115723 C315.5625,410.453625 314.913092,412.643056 313.614258,414.684082 C312.315423,416.725108 310.478528,418.241938 308.103516,419.234619 C305.728504,420.2273 302.769061,420.723633 299.225098,420.723633 C294.066869,420.723633 290.105483,419.531506 287.34082,417.147217 C284.576158,414.762928 282.924807,411.288597 282.386719,406.724121 Z M320.822754,399.849609 C320.822754,395.693339 321.44433,392.205092 322.6875,389.384766 C323.615239,387.30663 324.881584,385.441903 326.486572,383.790527 C328.091561,382.139152 329.8496,380.914555 331.760742,380.116699 C334.302747,379.040522 337.234358,378.502441 340.555664,378.502441 C346.567413,378.502441 351.377668,380.367169 354.986572,384.09668 C358.595477,387.826191 360.399902,393.012174 360.399902,399.654785 C360.399902,406.241732 358.609393,411.395245 355.02832,415.115479 C351.447248,418.835712 346.660186,420.695801 340.666992,420.695801 C334.599579,420.695801 329.775409,418.844989 326.194336,415.143311 C322.613263,411.441632 320.822754,406.343782 320.822754,399.849609 Z M329.311523,399.571289 C329.311523,404.191429 330.378407,407.693592 332.512207,410.077881 C334.646007,412.46217 337.354964,413.654297 340.63916,413.654297 C343.923356,413.654297 346.618398,412.471447 348.724365,410.105713 C350.830333,407.739978 351.883301,404.19143 351.883301,399.459961 C351.883301,394.784156 350.858165,391.29591 348.807861,388.995117 C346.757558,386.694324 344.034685,385.543945 340.63916,385.543945 C337.243635,385.543945 334.506846,386.70824 332.428711,389.036865 C330.350576,391.36549 329.311523,394.87693 329.311523,399.571289 Z M392.935547,404.998535 L400.92334,407.53125 C399.698724,411.984397 397.662368,415.291737 394.814209,417.453369 C391.96605,419.615001 388.352561,420.695801 383.973633,420.695801 C378.555637,420.695801 374.102557,418.844989 370.614258,415.143311 C367.125959,411.441632 365.381836,406.380891 365.381836,399.960938 C365.381836,393.169888 367.135236,387.895771 370.64209,384.138428 C374.148943,380.381085 378.759737,378.502441 384.474609,378.502441 C389.465845,378.502441 393.520004,379.977524 396.637207,382.927734 C398.492685,384.671884 399.884273,387.176741 400.812012,390.442383 L392.657227,392.390625 C392.174802,390.27538 391.168221,388.605475 389.637451,387.380859 C388.106682,386.156244 386.246593,385.543945 384.057129,385.543945 C381.0327,385.543945 378.578867,386.629384 376.695557,388.800293 C374.812246,390.971202 373.870605,394.48728 373.870605,399.348633 C373.870605,404.506862 374.798331,408.180653 376.653809,410.370117 C378.509287,412.559581 380.921372,413.654297 383.890137,413.654297 C386.079601,413.654297 387.962883,412.958503 389.540039,411.566895 C391.117195,410.175286 392.24902,407.985855 392.935547,404.998535 Z M407.742188,420 L407.742188,379.198242 L415.980469,379.198242 L415.980469,420 L407.742188,420 Z M460.623047,420 L451.661133,420 L448.098633,410.731934 L431.789062,410.731934 L428.421387,420 L419.682129,420 L435.574219,379.198242 L444.285645,379.198242 L460.623047,420 Z M445.45459,403.857422 L439.83252,388.716797 L434.321777,403.857422 L445.45459,403.857422 Z M465.215332,420 L465.215332,379.532227 L473.453613,379.532227 L473.453613,413.125488 L493.937988,413.125488 L493.937988,420 L465.215332,420 Z M513.55957,406.724121 L521.575195,405.944824 C522.05762,408.635267 523.03637,410.611322 524.511475,411.873047 C525.98658,413.134772 527.97655,413.765625 530.481445,413.765625 C533.134779,413.765625 535.134026,413.204351 536.479248,412.081787 C537.82447,410.959223 538.49707,409.646492 538.49707,408.143555 C538.49707,407.178706 538.214114,406.357669 537.648193,405.68042 C537.082273,405.00317 536.094245,404.414065 534.684082,403.913086 C533.719233,403.5791 531.520525,402.985356 528.087891,402.131836 C523.671853,401.037104 520.573251,399.691903 518.791992,398.096191 C516.287097,395.851063 515.034668,393.114274 515.034668,389.885742 C515.034668,387.807607 515.623773,385.864023 516.802002,384.054932 C517.980231,382.245841 519.677967,380.868169 521.895264,379.921875 C524.11256,378.975581 526.789047,378.502441 529.924805,378.502441 C535.045924,378.502441 538.900622,379.624989 541.489014,381.870117 C544.077406,384.115246 545.436523,387.111798 545.566406,390.859863 L537.328125,391.22168 C536.975584,389.12499 536.219488,387.617436 535.059814,386.698975 C533.900141,385.780513 532.160656,385.321289 529.841309,385.321289 C527.447742,385.321289 525.573737,385.812983 524.219238,386.796387 C523.347164,387.427249 522.911133,388.271479 522.911133,389.329102 C522.911133,390.29395 523.319332,391.119625 524.135742,391.806152 C525.17481,392.678227 527.698222,393.587398 531.706055,394.533691 C535.713887,395.479985 538.677969,396.458735 540.598389,397.469971 C542.518808,398.481206 544.021723,399.863517 545.107178,401.616943 C546.192632,403.37037 546.735352,405.536608 546.735352,408.115723 C546.735352,410.453625 546.085944,412.643056 544.787109,414.684082 C543.488275,416.725108 541.651379,418.241938 539.276367,419.234619 C536.901355,420.2273 533.941912,420.723633 530.397949,420.723633 C525.23972,420.723633 521.278334,419.531506 518.513672,417.147217 C515.74901,414.762928 514.097659,411.288597 513.55957,406.724121 Z M553.665527,420 L553.665527,379.198242 L583.918945,379.198242 L583.918945,386.100586 L561.903809,386.100586 L561.903809,395.145996 L582.388184,395.145996 L582.388184,402.020508 L561.903809,402.020508 L561.903809,413.125488 L584.698242,413.125488 L584.698242,420 L553.665527,420 Z M591.711914,420 L591.711914,379.198242 L609.05127,379.198242 C613.411643,379.198242 616.579824,379.564694 618.555908,380.297607 C620.531992,381.030521 622.113764,382.333975 623.30127,384.208008 C624.488775,386.082041 625.08252,388.225086 625.08252,390.637207 C625.08252,393.698746 624.182626,396.226797 622.382812,398.221436 C620.582999,400.216074 617.892596,401.473142 614.311523,401.992676 C616.092782,403.031743 617.563227,404.172845 618.7229,405.416016 C619.882574,406.659186 621.445791,408.867172 623.412598,412.040039 L628.394531,420 L618.541992,420 L612.585938,411.121582 C610.470693,407.948715 609.023441,405.949467 608.244141,405.123779 C607.46484,404.298092 606.639165,403.732179 605.76709,403.426025 C604.895015,403.119872 603.512705,402.966797 601.620117,402.966797 L599.950195,402.966797 L599.950195,420 L591.711914,420 Z M599.950195,396.454102 L606.04541,396.454102 C609.997578,396.454102 612.465327,396.287111 613.44873,395.953125 C614.432134,395.619139 615.202146,395.043949 615.758789,394.227539 C616.315432,393.411129 616.59375,392.390631 616.59375,391.166016 C616.59375,389.792962 616.227299,388.68433 615.494385,387.840088 C614.761471,386.995845 613.727057,386.462403 612.391113,386.239746 C611.723141,386.146972 609.719255,386.100586 606.379395,386.100586 L599.950195,386.100586 L599.950195,396.454102 Z M643.256836,420 L628.672852,379.198242 L637.606934,379.198242 L647.932617,409.395996 L657.924316,379.198242 L666.663574,379.198242 L652.051758,420 L643.256836,420 Z M670.615723,420 L670.615723,379.198242 L678.854004,379.198242 L678.854004,420 L670.615723,420 Z M712.809082,404.998535 L720.796875,407.53125 C719.57226,411.984397 717.535903,415.291737 714.687744,417.453369 C711.839585,419.615001 708.226096,420.695801 703.847168,420.695801 C698.429172,420.695801 693.976092,418.844989 690.487793,415.143311 C686.999494,411.441632 685.255371,406.380891 685.255371,399.960938 C685.255371,393.169888 687.008772,387.895771 690.515625,384.138428 C694.022478,380.381085 698.633272,378.502441 704.348145,378.502441 C709.33938,378.502441 713.393539,379.977524 716.510742,382.927734 C718.36622,384.671884 719.757808,387.176741 720.685547,390.442383 L712.530762,392.390625 C712.048337,390.27538 711.041756,388.605475 709.510986,387.380859 C707.980217,386.156244 706.120128,385.543945 703.930664,385.543945 C700.906235,385.543945 698.452402,386.629384 696.569092,388.800293 C694.685782,390.971202 693.744141,394.48728 693.744141,399.348633 C693.744141,404.506862 694.671866,408.180653 696.527344,410.370117 C698.382822,412.559581 700.794907,413.654297 703.763672,413.654297 C705.953136,413.654297 707.836418,412.958503 709.413574,411.566895 C710.990731,410.175286 712.122555,407.985855 712.809082,404.998535 Z M727.866211,420 L727.866211,379.198242 L758.119629,379.198242 L758.119629,386.100586 L736.104492,386.100586 L736.104492,395.145996 L756.588867,395.145996 L756.588867,402.020508 L736.104492,402.020508 L736.104492,413.125488 L758.898926,413.125488 L758.898926,420 L727.866211,420 Z M763.797363,406.724121 L771.812988,405.944824 C772.295413,408.635267 773.274163,410.611322 774.749268,411.873047 C776.224373,413.134772 778.214343,413.765625 780.719238,413.765625 C783.372572,413.765625 785.371819,413.204351 786.717041,412.081787 C788.062263,410.959223 788.734863,409.646492 788.734863,408.143555 C788.734863,407.178706 788.451907,406.357669 787.885986,405.68042 C787.320066,405.00317 786.332038,404.414065 784.921875,403.913086 C783.957026,403.5791 781.758318,402.985356 778.325684,402.131836 C773.909646,401.037104 770.811044,399.691903 769.029785,398.096191 C766.52489,395.851063 765.272461,393.114274 765.272461,389.885742 C765.272461,387.807607 765.861566,385.864023 767.039795,384.054932 C768.218023,382.245841 769.91576,380.868169 772.133057,379.921875 C774.350353,378.975581 777.02684,378.502441 780.162598,378.502441 C785.283717,378.502441 789.138415,379.624989 791.726807,381.870117 C794.315198,384.115246 795.674316,387.111798 795.804199,390.859863 L787.565918,391.22168 C787.213377,389.12499 786.457281,387.617436 785.297607,386.698975 C784.137934,385.780513 782.398449,385.321289 780.079102,385.321289 C777.685535,385.321289 775.81153,385.812983 774.457031,386.796387 C773.584957,387.427249 773.148926,388.271479 773.148926,389.329102 C773.148926,390.29395 773.557125,391.119625 774.373535,391.806152 C775.412603,392.678227 777.936015,393.587398 781.943848,394.533691 C785.95168,395.479985 788.915762,396.458735 790.836182,397.469971 C792.756601,398.481206 794.259516,399.863517 795.344971,401.616943 C796.430425,403.37037 796.973145,405.536608 796.973145,408.115723 C796.973145,410.453625 796.323737,412.643056 795.024902,414.684082 C793.726068,416.725108 791.889172,418.241938 789.51416,419.234619 C787.139148,420.2273 784.179705,420.723633 780.635742,420.723633 C775.477513,420.723633 771.516127,419.531506 768.751465,417.147217 C765.986803,414.762928 764.335452,411.288597 763.797363,406.724121 Z" id="AND-SOCIAL-SERVICES"></path>
                    <path d="M69.0356445,346 L69.0356445,305.198242 L81.3652344,305.198242 L88.7685547,333.030273 L96.0883789,305.198242 L108.445801,305.198242 L108.445801,346 L100.791992,346 L100.791992,313.881836 L92.6928711,346 L84.7607422,346 L76.6894531,313.881836 L76.6894531,346 L69.0356445,346 Z M116.37793,346 L116.37793,305.198242 L124.616211,305.198242 L124.616211,346 L116.37793,346 Z M132.54834,346 L132.54834,305.198242 L140.563965,305.198242 L157.263184,332.445801 L157.263184,305.198242 L164.916992,305.198242 L164.916992,346 L156.650879,346 L140.202148,319.392578 L140.202148,346 L132.54834,346 Z M173.37793,346 L173.37793,305.198242 L181.616211,305.198242 L181.616211,346 L173.37793,346 Z M187.377441,332.724121 L195.393066,331.944824 C195.875491,334.635267 196.854241,336.611322 198.329346,337.873047 C199.804451,339.134772 201.794421,339.765625 204.299316,339.765625 C206.95265,339.765625 208.951898,339.204351 210.297119,338.081787 C211.642341,336.959223 212.314941,335.646492 212.314941,334.143555 C212.314941,333.178706 212.031985,332.357669 211.466064,331.68042 C210.900144,331.00317 209.912116,330.414065 208.501953,329.913086 C207.537105,329.5791 205.338396,328.985356 201.905762,328.131836 C197.489724,327.037104 194.391122,325.691903 192.609863,324.096191 C190.104968,321.851063 188.852539,319.114274 188.852539,315.885742 C188.852539,313.807607 189.441644,311.864023 190.619873,310.054932 C191.798102,308.245841 193.495839,306.868169 195.713135,305.921875 C197.930431,304.975581 200.606918,304.502441 203.742676,304.502441 C208.863795,304.502441 212.718493,305.624989 215.306885,307.870117 C217.895277,310.115246 219.254394,313.111798 219.384277,316.859863 L211.145996,317.22168 C210.793455,315.12499 210.037359,313.617436 208.877686,312.698975 C207.718012,311.780513 205.978527,311.321289 203.65918,311.321289 C201.265613,311.321289 199.391608,311.812983 198.037109,312.796387 C197.165035,313.427249 196.729004,314.271479 196.729004,315.329102 C196.729004,316.29395 197.137203,317.119625 197.953613,317.806152 C198.992681,318.678227 201.516093,319.587398 205.523926,320.533691 C209.531758,321.479985 212.49584,322.458735 214.41626,323.469971 C216.33668,324.481206 217.839594,325.863517 218.925049,327.616943 C220.010503,329.37037 220.553223,331.536608 220.553223,334.115723 C220.553223,336.453625 219.903815,338.643056 218.60498,340.684082 C217.306146,342.725108 215.46925,344.241938 213.094238,345.234619 C210.719226,346.2273 207.759783,346.723633 204.21582,346.723633 C199.057591,346.723633 195.096205,345.531506 192.331543,343.147217 C189.566881,340.762928 187.91553,337.288597 187.377441,332.724121 Z M236.667969,346 L236.667969,312.100586 L224.561035,312.100586 L224.561035,305.198242 L256.985352,305.198242 L256.985352,312.100586 L244.90625,312.100586 L244.90625,346 L236.667969,346 Z M262.329102,346 L262.329102,305.198242 L279.668457,305.198242 C284.02883,305.198242 287.197012,305.564694 289.173096,306.297607 C291.14918,307.030521 292.730951,308.333975 293.918457,310.208008 C295.105963,312.082041 295.699707,314.225086 295.699707,316.637207 C295.699707,319.698746 294.799814,322.226797 293,324.221436 C291.200186,326.216074 288.509784,327.473142 284.928711,327.992676 C286.70997,329.031743 288.180414,330.172845 289.340088,331.416016 C290.499762,332.659186 292.062978,334.867172 294.029785,338.040039 L299.011719,346 L289.15918,346 L283.203125,337.121582 C281.08788,333.948715 279.640629,331.949467 278.861328,331.123779 C278.082027,330.298092 277.256352,329.732179 276.384277,329.426025 C275.512203,329.119872 274.129892,328.966797 272.237305,328.966797 L270.567383,328.966797 L270.567383,346 L262.329102,346 Z M270.567383,322.454102 L276.662598,322.454102 C280.614766,322.454102 283.082515,322.287111 284.065918,321.953125 C285.049321,321.619139 285.819333,321.043949 286.375977,320.227539 C286.93262,319.411129 287.210938,318.390631 287.210938,317.166016 C287.210938,315.792962 286.844486,314.68433 286.111572,313.840088 C285.378658,312.995845 284.344245,312.462403 283.008301,312.239746 C282.340329,312.146972 280.336442,312.100586 276.996582,312.100586 L270.567383,312.100586 L270.567383,322.454102 Z M314.180176,346 L314.180176,328.827637 L299.234375,305.198242 L308.89209,305.198242 L318.494141,321.34082 L327.901367,305.198242 L337.39209,305.198242 L322.390625,328.883301 L322.390625,346 L314.180176,346 Z M355.649902,325.849609 C355.649902,321.693339 356.271478,318.205092 357.514648,315.384766 C358.442387,313.30663 359.708732,311.441903 361.313721,309.790527 C362.918709,308.139152 364.676748,306.914555 366.587891,306.116699 C369.129896,305.040522 372.061507,304.502441 375.382812,304.502441 C381.394561,304.502441 386.204816,306.367169 389.813721,310.09668 C393.422625,313.826191 395.227051,319.012174 395.227051,325.654785 C395.227051,332.241732 393.436541,337.395245 389.855469,341.115479 C386.274396,344.835712 381.487335,346.695801 375.494141,346.695801 C369.426727,346.695801 364.602557,344.844989 361.021484,341.143311 C357.440412,337.441632 355.649902,332.343782 355.649902,325.849609 Z M364.138672,325.571289 C364.138672,330.191429 365.205556,333.693592 367.339355,336.077881 C369.473155,338.46217 372.182112,339.654297 375.466309,339.654297 C378.750505,339.654297 381.445546,338.471447 383.551514,336.105713 C385.657481,333.739978 386.710449,330.19143 386.710449,325.459961 C386.710449,320.784156 385.685313,317.29591 383.63501,314.995117 C381.584707,312.694324 378.861833,311.543945 375.466309,311.543945 C372.070784,311.543945 369.333995,312.70824 367.255859,315.036865 C365.177724,317.36549 364.138672,320.87693 364.138672,325.571289 Z M401.711914,346 L401.711914,305.198242 L429.683105,305.198242 L429.683105,312.100586 L409.950195,312.100586 L409.950195,321.758301 L426.983398,321.758301 L426.983398,328.660645 L409.950195,328.660645 L409.950195,346 L401.711914,346 Z M478.416992,330.998535 L486.404785,333.53125 C485.18017,337.984397 483.143813,341.291737 480.295654,343.453369 C477.447496,345.615001 473.834006,346.695801 469.455078,346.695801 C464.037082,346.695801 459.584002,344.844989 456.095703,341.143311 C452.607404,337.441632 450.863281,332.380891 450.863281,325.960938 C450.863281,319.169888 452.616682,313.895771 456.123535,310.138428 C459.630389,306.381085 464.241182,304.502441 469.956055,304.502441 C474.947291,304.502441 479.001449,305.977524 482.118652,308.927734 C483.97413,310.671884 485.365718,313.176741 486.293457,316.442383 L478.138672,318.390625 C477.656248,316.27538 476.649666,314.605475 475.118896,313.380859 C473.588127,312.156244 471.728038,311.543945 469.538574,311.543945 C466.514145,311.543945 464.060312,312.629384 462.177002,314.800293 C460.293692,316.971202 459.352051,320.48728 459.352051,325.348633 C459.352051,330.506862 460.279776,334.180653 462.135254,336.370117 C463.990732,338.559581 466.402817,339.654297 469.371582,339.654297 C471.561046,339.654297 473.444328,338.958503 475.021484,337.566895 C476.598641,336.175286 477.730465,333.985855 478.416992,330.998535 Z M491.804199,325.849609 C491.804199,321.693339 492.425775,318.205092 493.668945,315.384766 C494.596684,313.30663 495.863029,311.441903 497.468018,309.790527 C499.073006,308.139152 500.831045,306.914555 502.742188,306.116699 C505.284192,305.040522 508.215804,304.502441 511.537109,304.502441 C517.548858,304.502441 522.359113,306.367169 525.968018,310.09668 C529.576922,313.826191 531.381348,319.012174 531.381348,325.654785 C531.381348,332.241732 529.590838,337.395245 526.009766,341.115479 C522.428693,344.835712 517.641632,346.695801 511.648438,346.695801 C505.581024,346.695801 500.756854,344.844989 497.175781,341.143311 C493.594709,337.441632 491.804199,332.343782 491.804199,325.849609 Z M500.292969,325.571289 C500.292969,330.191429 501.359853,333.693592 503.493652,336.077881 C505.627452,338.46217 508.336409,339.654297 511.620605,339.654297 C514.904802,339.654297 517.599843,338.471447 519.705811,336.105713 C521.811778,333.739978 522.864746,330.19143 522.864746,325.459961 C522.864746,320.784156 521.83961,317.29591 519.789307,314.995117 C517.739003,312.694324 515.01613,311.543945 511.620605,311.543945 C508.225081,311.543945 505.488292,312.70824 503.410156,315.036865 C501.332021,317.36549 500.292969,320.87693 500.292969,325.571289 Z M537.699219,346 L537.699219,305.198242 L550.028809,305.198242 L557.432129,333.030273 L564.751953,305.198242 L577.109375,305.198242 L577.109375,346 L569.455566,346 L569.455566,313.881836 L561.356445,346 L553.424316,346 L545.353027,313.881836 L545.353027,346 L537.699219,346 Z M585.180664,346 L585.180664,305.198242 L597.510254,305.198242 L604.913574,333.030273 L612.233398,305.198242 L624.59082,305.198242 L624.59082,346 L616.937012,346 L616.937012,313.881836 L608.837891,346 L600.905762,346 L592.834473,313.881836 L592.834473,346 L585.180664,346 Z M632.717773,305.198242 L640.956055,305.198242 L640.956055,327.296875 C640.956055,330.803728 641.058104,333.076655 641.262207,334.115723 C641.614748,335.785653 642.454339,337.126216 643.781006,338.137451 C645.107673,339.148687 646.921375,339.654297 649.222168,339.654297 C651.56007,339.654297 653.322748,339.176518 654.510254,338.220947 C655.69776,337.265376 656.412108,336.091804 656.65332,334.700195 C656.894532,333.308587 657.015137,330.998551 657.015137,327.77002 L657.015137,305.198242 L665.253418,305.198242 L665.253418,326.628906 C665.253418,331.527368 665.030764,334.987783 664.585449,337.010254 C664.140134,339.032725 663.319098,340.739739 662.122314,342.131348 C660.925531,343.522956 659.325205,344.631588 657.321289,345.457275 C655.317373,346.282963 652.701188,346.695801 649.472656,346.695801 C645.576152,346.695801 642.621348,346.245854 640.608154,345.345947 C638.594961,344.44604 637.003912,343.277107 635.834961,341.839111 C634.66601,340.401116 633.895998,338.893563 633.524902,337.316406 C632.986814,334.978504 632.717773,331.527367 632.717773,326.962891 L632.717773,305.198242 Z M674.020508,346 L674.020508,305.198242 L682.036133,305.198242 L698.735352,332.445801 L698.735352,305.198242 L706.38916,305.198242 L706.38916,346 L698.123047,346 L681.674316,319.392578 L681.674316,346 L674.020508,346 Z M714.850098,346 L714.850098,305.198242 L723.088379,305.198242 L723.088379,346 L714.850098,346 Z M740.121582,346 L740.121582,312.100586 L728.014648,312.100586 L728.014648,305.198242 L760.438965,305.198242 L760.438965,312.100586 L748.359863,312.100586 L748.359863,346 L740.121582,346 Z M776.470215,346 L776.470215,328.827637 L761.524414,305.198242 L771.182129,305.198242 L780.78418,321.34082 L790.191406,305.198242 L799.682129,305.198242 L784.680664,328.883301 L784.680664,346 L776.470215,346 Z" id="MINISTRY-OF-COMMUNIT"></path>
                </g>
                <path d="M69.0356445,346 L69.0356445,305.198242 L81.3652344,305.198242 L88.7685547,333.030273 L96.0883789,305.198242 L108.445801,305.198242 L108.445801,346 L100.791992,346 L100.791992,313.881836 L92.6928711,346 L84.7607422,346 L76.6894531,313.881836 L76.6894531,346 L69.0356445,346 Z M116.37793,346 L116.37793,305.198242 L124.616211,305.198242 L124.616211,346 L116.37793,346 Z M132.54834,346 L132.54834,305.198242 L140.563965,305.198242 L157.263184,332.445801 L157.263184,305.198242 L164.916992,305.198242 L164.916992,346 L156.650879,346 L140.202148,319.392578 L140.202148,346 L132.54834,346 Z M173.37793,346 L173.37793,305.198242 L181.616211,305.198242 L181.616211,346 L173.37793,346 Z M187.377441,332.724121 L195.393066,331.944824 C195.875491,334.635267 196.854241,336.611322 198.329346,337.873047 C199.804451,339.134772 201.794421,339.765625 204.299316,339.765625 C206.95265,339.765625 208.951898,339.204351 210.297119,338.081787 C211.642341,336.959223 212.314941,335.646492 212.314941,334.143555 C212.314941,333.178706 212.031985,332.357669 211.466064,331.68042 C210.900144,331.00317 209.912116,330.414065 208.501953,329.913086 C207.537105,329.5791 205.338396,328.985356 201.905762,328.131836 C197.489724,327.037104 194.391122,325.691903 192.609863,324.096191 C190.104968,321.851063 188.852539,319.114274 188.852539,315.885742 C188.852539,313.807607 189.441644,311.864023 190.619873,310.054932 C191.798102,308.245841 193.495839,306.868169 195.713135,305.921875 C197.930431,304.975581 200.606918,304.502441 203.742676,304.502441 C208.863795,304.502441 212.718493,305.624989 215.306885,307.870117 C217.895277,310.115246 219.254394,313.111798 219.384277,316.859863 L211.145996,317.22168 C210.793455,315.12499 210.037359,313.617436 208.877686,312.698975 C207.718012,311.780513 205.978527,311.321289 203.65918,311.321289 C201.265613,311.321289 199.391608,311.812983 198.037109,312.796387 C197.165035,313.427249 196.729004,314.271479 196.729004,315.329102 C196.729004,316.29395 197.137203,317.119625 197.953613,317.806152 C198.992681,318.678227 201.516093,319.587398 205.523926,320.533691 C209.531758,321.479985 212.49584,322.458735 214.41626,323.469971 C216.33668,324.481206 217.839594,325.863517 218.925049,327.616943 C220.010503,329.37037 220.553223,331.536608 220.553223,334.115723 C220.553223,336.453625 219.903815,338.643056 218.60498,340.684082 C217.306146,342.725108 215.46925,344.241938 213.094238,345.234619 C210.719226,346.2273 207.759783,346.723633 204.21582,346.723633 C199.057591,346.723633 195.096205,345.531506 192.331543,343.147217 C189.566881,340.762928 187.91553,337.288597 187.377441,332.724121 Z M236.667969,346 L236.667969,312.100586 L224.561035,312.100586 L224.561035,305.198242 L256.985352,305.198242 L256.985352,312.100586 L244.90625,312.100586 L244.90625,346 L236.667969,346 Z M262.329102,346 L262.329102,305.198242 L279.668457,305.198242 C284.02883,305.198242 287.197012,305.564694 289.173096,306.297607 C291.14918,307.030521 292.730951,308.333975 293.918457,310.208008 C295.105963,312.082041 295.699707,314.225086 295.699707,316.637207 C295.699707,319.698746 294.799814,322.226797 293,324.221436 C291.200186,326.216074 288.509784,327.473142 284.928711,327.992676 C286.70997,329.031743 288.180414,330.172845 289.340088,331.416016 C290.499762,332.659186 292.062978,334.867172 294.029785,338.040039 L299.011719,346 L289.15918,346 L283.203125,337.121582 C281.08788,333.948715 279.640629,331.949467 278.861328,331.123779 C278.082027,330.298092 277.256352,329.732179 276.384277,329.426025 C275.512203,329.119872 274.129892,328.966797 272.237305,328.966797 L270.567383,328.966797 L270.567383,346 L262.329102,346 Z M270.567383,322.454102 L276.662598,322.454102 C280.614766,322.454102 283.082515,322.287111 284.065918,321.953125 C285.049321,321.619139 285.819333,321.043949 286.375977,320.227539 C286.93262,319.411129 287.210938,318.390631 287.210938,317.166016 C287.210938,315.792962 286.844486,314.68433 286.111572,313.840088 C285.378658,312.995845 284.344245,312.462403 283.008301,312.239746 C282.340329,312.146972 280.336442,312.100586 276.996582,312.100586 L270.567383,312.100586 L270.567383,322.454102 Z M314.180176,346 L314.180176,328.827637 L299.234375,305.198242 L308.89209,305.198242 L318.494141,321.34082 L327.901367,305.198242 L337.39209,305.198242 L322.390625,328.883301 L322.390625,346 L314.180176,346 Z M355.649902,325.849609 C355.649902,321.693339 356.271478,318.205092 357.514648,315.384766 C358.442387,313.30663 359.708732,311.441903 361.313721,309.790527 C362.918709,308.139152 364.676748,306.914555 366.587891,306.116699 C369.129896,305.040522 372.061507,304.502441 375.382812,304.502441 C381.394561,304.502441 386.204816,306.367169 389.813721,310.09668 C393.422625,313.826191 395.227051,319.012174 395.227051,325.654785 C395.227051,332.241732 393.436541,337.395245 389.855469,341.115479 C386.274396,344.835712 381.487335,346.695801 375.494141,346.695801 C369.426727,346.695801 364.602557,344.844989 361.021484,341.143311 C357.440412,337.441632 355.649902,332.343782 355.649902,325.849609 Z M364.138672,325.571289 C364.138672,330.191429 365.205556,333.693592 367.339355,336.077881 C369.473155,338.46217 372.182112,339.654297 375.466309,339.654297 C378.750505,339.654297 381.445546,338.471447 383.551514,336.105713 C385.657481,333.739978 386.710449,330.19143 386.710449,325.459961 C386.710449,320.784156 385.685313,317.29591 383.63501,314.995117 C381.584707,312.694324 378.861833,311.543945 375.466309,311.543945 C372.070784,311.543945 369.333995,312.70824 367.255859,315.036865 C365.177724,317.36549 364.138672,320.87693 364.138672,325.571289 Z M401.711914,346 L401.711914,305.198242 L429.683105,305.198242 L429.683105,312.100586 L409.950195,312.100586 L409.950195,321.758301 L426.983398,321.758301 L426.983398,328.660645 L409.950195,328.660645 L409.950195,346 L401.711914,346 Z M478.416992,330.998535 L486.404785,333.53125 C485.18017,337.984397 483.143813,341.291737 480.295654,343.453369 C477.447496,345.615001 473.834006,346.695801 469.455078,346.695801 C464.037082,346.695801 459.584002,344.844989 456.095703,341.143311 C452.607404,337.441632 450.863281,332.380891 450.863281,325.960938 C450.863281,319.169888 452.616682,313.895771 456.123535,310.138428 C459.630389,306.381085 464.241182,304.502441 469.956055,304.502441 C474.947291,304.502441 479.001449,305.977524 482.118652,308.927734 C483.97413,310.671884 485.365718,313.176741 486.293457,316.442383 L478.138672,318.390625 C477.656248,316.27538 476.649666,314.605475 475.118896,313.380859 C473.588127,312.156244 471.728038,311.543945 469.538574,311.543945 C466.514145,311.543945 464.060312,312.629384 462.177002,314.800293 C460.293692,316.971202 459.352051,320.48728 459.352051,325.348633 C459.352051,330.506862 460.279776,334.180653 462.135254,336.370117 C463.990732,338.559581 466.402817,339.654297 469.371582,339.654297 C471.561046,339.654297 473.444328,338.958503 475.021484,337.566895 C476.598641,336.175286 477.730465,333.985855 478.416992,330.998535 Z M491.804199,325.849609 C491.804199,321.693339 492.425775,318.205092 493.668945,315.384766 C494.596684,313.30663 495.863029,311.441903 497.468018,309.790527 C499.073006,308.139152 500.831045,306.914555 502.742188,306.116699 C505.284192,305.040522 508.215804,304.502441 511.537109,304.502441 C517.548858,304.502441 522.359113,306.367169 525.968018,310.09668 C529.576922,313.826191 531.381348,319.012174 531.381348,325.654785 C531.381348,332.241732 529.590838,337.395245 526.009766,341.115479 C522.428693,344.835712 517.641632,346.695801 511.648438,346.695801 C505.581024,346.695801 500.756854,344.844989 497.175781,341.143311 C493.594709,337.441632 491.804199,332.343782 491.804199,325.849609 Z M500.292969,325.571289 C500.292969,330.191429 501.359853,333.693592 503.493652,336.077881 C505.627452,338.46217 508.336409,339.654297 511.620605,339.654297 C514.904802,339.654297 517.599843,338.471447 519.705811,336.105713 C521.811778,333.739978 522.864746,330.19143 522.864746,325.459961 C522.864746,320.784156 521.83961,317.29591 519.789307,314.995117 C517.739003,312.694324 515.01613,311.543945 511.620605,311.543945 C508.225081,311.543945 505.488292,312.70824 503.410156,315.036865 C501.332021,317.36549 500.292969,320.87693 500.292969,325.571289 Z M537.699219,346 L537.699219,305.198242 L550.028809,305.198242 L557.432129,333.030273 L564.751953,305.198242 L577.109375,305.198242 L577.109375,346 L569.455566,346 L569.455566,313.881836 L561.356445,346 L553.424316,346 L545.353027,313.881836 L545.353027,346 L537.699219,346 Z M585.180664,346 L585.180664,305.198242 L597.510254,305.198242 L604.913574,333.030273 L612.233398,305.198242 L624.59082,305.198242 L624.59082,346 L616.937012,346 L616.937012,313.881836 L608.837891,346 L600.905762,346 L592.834473,313.881836 L592.834473,346 L585.180664,346 Z M632.717773,305.198242 L640.956055,305.198242 L640.956055,327.296875 C640.956055,330.803728 641.058104,333.076655 641.262207,334.115723 C641.614748,335.785653 642.454339,337.126216 643.781006,338.137451 C645.107673,339.148687 646.921375,339.654297 649.222168,339.654297 C651.56007,339.654297 653.322748,339.176518 654.510254,338.220947 C655.69776,337.265376 656.412108,336.091804 656.65332,334.700195 C656.894532,333.308587 657.015137,330.998551 657.015137,327.77002 L657.015137,305.198242 L665.253418,305.198242 L665.253418,326.628906 C665.253418,331.527368 665.030764,334.987783 664.585449,337.010254 C664.140134,339.032725 663.319098,340.739739 662.122314,342.131348 C660.925531,343.522956 659.325205,344.631588 657.321289,345.457275 C655.317373,346.282963 652.701188,346.695801 649.472656,346.695801 C645.576152,346.695801 642.621348,346.245854 640.608154,345.345947 C638.594961,344.44604 637.003912,343.277107 635.834961,341.839111 C634.66601,340.401116 633.895998,338.893563 633.524902,337.316406 C632.986814,334.978504 632.717773,331.527367 632.717773,326.962891 L632.717773,305.198242 Z M674.020508,346 L674.020508,305.198242 L682.036133,305.198242 L698.735352,332.445801 L698.735352,305.198242 L706.38916,305.198242 L706.38916,346 L698.123047,346 L681.674316,319.392578 L681.674316,346 L674.020508,346 Z M714.850098,346 L714.850098,305.198242 L723.088379,305.198242 L723.088379,346 L714.850098,346 Z M740.121582,346 L740.121582,312.100586 L728.014648,312.100586 L728.014648,305.198242 L760.438965,305.198242 L760.438965,312.100586 L748.359863,312.100586 L748.359863,346 L740.121582,346 Z M776.470215,346 L776.470215,328.827637 L761.524414,305.198242 L771.182129,305.198242 L780.78418,321.34082 L790.191406,305.198242 L799.682129,305.198242 L784.680664,328.883301 L784.680664,346 L776.470215,346 Z" id="MINISTRY-OF-COMMUNIT"></path>
                <path d="M181.940918,420 L172.979004,420 L169.416504,410.731934 L153.106934,410.731934 L149.739258,420 L141,420 L156.89209,379.198242 L165.603516,379.198242 L181.940918,420 Z M166.772461,403.857422 L161.150391,388.716797 L155.639648,403.857422 L166.772461,403.857422 Z M186.394043,420 L186.394043,379.198242 L194.409668,379.198242 L211.108887,406.445801 L211.108887,379.198242 L218.762695,379.198242 L218.762695,420 L210.496582,420 L194.047852,393.392578 L194.047852,420 L186.394043,420 Z M227.446289,379.198242 L242.503418,379.198242 C245.898943,379.198242 248.487296,379.458005 250.268555,379.977539 C252.662121,380.682621 254.712394,381.93505 256.419434,383.734863 C258.126473,385.534677 259.425289,387.738024 260.315918,390.344971 C261.206547,392.951917 261.651855,396.166485 261.651855,399.98877 C261.651855,403.347185 261.234379,406.241687 260.399414,408.672363 C259.378901,411.641128 257.922373,414.043936 256.029785,415.880859 C254.601067,417.272468 252.671399,418.357906 250.240723,419.137207 C248.422354,419.712405 245.991714,420 242.94873,420 L227.446289,420 L227.446289,379.198242 Z M235.68457,386.100586 L235.68457,413.125488 L241.835449,413.125488 C244.136242,413.125488 245.79687,412.995607 246.817383,412.73584 C248.153327,412.401854 249.261958,411.835941 250.143311,411.038086 C251.024663,410.24023 251.74365,408.927499 252.300293,407.099854 C252.856936,405.272208 253.135254,402.781266 253.135254,399.626953 C253.135254,396.47264 252.856936,394.051278 252.300293,392.362793 C251.74365,390.674308 250.96436,389.356938 249.962402,388.410645 C248.960444,387.464351 247.689461,386.82422 246.149414,386.490234 C244.999018,386.230467 242.744646,386.100586 239.38623,386.100586 L235.68457,386.100586 Z M282.386719,406.724121 L290.402344,405.944824 C290.884768,408.635267 291.863518,410.611322 293.338623,411.873047 C294.813728,413.134772 296.803698,413.765625 299.308594,413.765625 C301.961927,413.765625 303.961175,413.204351 305.306396,412.081787 C306.651618,410.959223 307.324219,409.646492 307.324219,408.143555 C307.324219,407.178706 307.041263,406.357669 306.475342,405.68042 C305.909421,405.00317 304.921394,404.414065 303.51123,403.913086 C302.546382,403.5791 300.347673,402.985356 296.915039,402.131836 C292.499001,401.037104 289.4004,399.691903 287.619141,398.096191 C285.114245,395.851063 283.861816,393.114274 283.861816,389.885742 C283.861816,387.807607 284.450922,385.864023 285.62915,384.054932 C286.807379,382.245841 288.505116,380.868169 290.722412,379.921875 C292.939708,378.975581 295.616195,378.502441 298.751953,378.502441 C303.873072,378.502441 307.72777,379.624989 310.316162,381.870117 C312.904554,384.115246 314.263671,387.111798 314.393555,390.859863 L306.155273,391.22168 C305.802733,389.12499 305.046637,387.617436 303.886963,386.698975 C302.727289,385.780513 300.987805,385.321289 298.668457,385.321289 C296.27489,385.321289 294.400886,385.812983 293.046387,386.796387 C292.174312,387.427249 291.738281,388.271479 291.738281,389.329102 C291.738281,390.29395 292.14648,391.119625 292.962891,391.806152 C294.001958,392.678227 296.525371,393.587398 300.533203,394.533691 C304.541036,395.479985 307.505117,396.458735 309.425537,397.469971 C311.345957,398.481206 312.848872,399.863517 313.934326,401.616943 C315.019781,403.37037 315.5625,405.536608 315.5625,408.115723 C315.5625,410.453625 314.913092,412.643056 313.614258,414.684082 C312.315423,416.725108 310.478528,418.241938 308.103516,419.234619 C305.728504,420.2273 302.769061,420.723633 299.225098,420.723633 C294.066869,420.723633 290.105483,419.531506 287.34082,417.147217 C284.576158,414.762928 282.924807,411.288597 282.386719,406.724121 Z M320.822754,399.849609 C320.822754,395.693339 321.44433,392.205092 322.6875,389.384766 C323.615239,387.30663 324.881584,385.441903 326.486572,383.790527 C328.091561,382.139152 329.8496,380.914555 331.760742,380.116699 C334.302747,379.040522 337.234358,378.502441 340.555664,378.502441 C346.567413,378.502441 351.377668,380.367169 354.986572,384.09668 C358.595477,387.826191 360.399902,393.012174 360.399902,399.654785 C360.399902,406.241732 358.609393,411.395245 355.02832,415.115479 C351.447248,418.835712 346.660186,420.695801 340.666992,420.695801 C334.599579,420.695801 329.775409,418.844989 326.194336,415.143311 C322.613263,411.441632 320.822754,406.343782 320.822754,399.849609 Z M329.311523,399.571289 C329.311523,404.191429 330.378407,407.693592 332.512207,410.077881 C334.646007,412.46217 337.354964,413.654297 340.63916,413.654297 C343.923356,413.654297 346.618398,412.471447 348.724365,410.105713 C350.830333,407.739978 351.883301,404.19143 351.883301,399.459961 C351.883301,394.784156 350.858165,391.29591 348.807861,388.995117 C346.757558,386.694324 344.034685,385.543945 340.63916,385.543945 C337.243635,385.543945 334.506846,386.70824 332.428711,389.036865 C330.350576,391.36549 329.311523,394.87693 329.311523,399.571289 Z M392.935547,404.998535 L400.92334,407.53125 C399.698724,411.984397 397.662368,415.291737 394.814209,417.453369 C391.96605,419.615001 388.352561,420.695801 383.973633,420.695801 C378.555637,420.695801 374.102557,418.844989 370.614258,415.143311 C367.125959,411.441632 365.381836,406.380891 365.381836,399.960938 C365.381836,393.169888 367.135236,387.895771 370.64209,384.138428 C374.148943,380.381085 378.759737,378.502441 384.474609,378.502441 C389.465845,378.502441 393.520004,379.977524 396.637207,382.927734 C398.492685,384.671884 399.884273,387.176741 400.812012,390.442383 L392.657227,392.390625 C392.174802,390.27538 391.168221,388.605475 389.637451,387.380859 C388.106682,386.156244 386.246593,385.543945 384.057129,385.543945 C381.0327,385.543945 378.578867,386.629384 376.695557,388.800293 C374.812246,390.971202 373.870605,394.48728 373.870605,399.348633 C373.870605,404.506862 374.798331,408.180653 376.653809,410.370117 C378.509287,412.559581 380.921372,413.654297 383.890137,413.654297 C386.079601,413.654297 387.962883,412.958503 389.540039,411.566895 C391.117195,410.175286 392.24902,407.985855 392.935547,404.998535 Z M407.742188,420 L407.742188,379.198242 L415.980469,379.198242 L415.980469,420 L407.742188,420 Z M460.623047,420 L451.661133,420 L448.098633,410.731934 L431.789062,410.731934 L428.421387,420 L419.682129,420 L435.574219,379.198242 L444.285645,379.198242 L460.623047,420 Z M445.45459,403.857422 L439.83252,388.716797 L434.321777,403.857422 L445.45459,403.857422 Z M465.215332,420 L465.215332,379.532227 L473.453613,379.532227 L473.453613,413.125488 L493.937988,413.125488 L493.937988,420 L465.215332,420 Z M513.55957,406.724121 L521.575195,405.944824 C522.05762,408.635267 523.03637,410.611322 524.511475,411.873047 C525.98658,413.134772 527.97655,413.765625 530.481445,413.765625 C533.134779,413.765625 535.134026,413.204351 536.479248,412.081787 C537.82447,410.959223 538.49707,409.646492 538.49707,408.143555 C538.49707,407.178706 538.214114,406.357669 537.648193,405.68042 C537.082273,405.00317 536.094245,404.414065 534.684082,403.913086 C533.719233,403.5791 531.520525,402.985356 528.087891,402.131836 C523.671853,401.037104 520.573251,399.691903 518.791992,398.096191 C516.287097,395.851063 515.034668,393.114274 515.034668,389.885742 C515.034668,387.807607 515.623773,385.864023 516.802002,384.054932 C517.980231,382.245841 519.677967,380.868169 521.895264,379.921875 C524.11256,378.975581 526.789047,378.502441 529.924805,378.502441 C535.045924,378.502441 538.900622,379.624989 541.489014,381.870117 C544.077406,384.115246 545.436523,387.111798 545.566406,390.859863 L537.328125,391.22168 C536.975584,389.12499 536.219488,387.617436 535.059814,386.698975 C533.900141,385.780513 532.160656,385.321289 529.841309,385.321289 C527.447742,385.321289 525.573737,385.812983 524.219238,386.796387 C523.347164,387.427249 522.911133,388.271479 522.911133,389.329102 C522.911133,390.29395 523.319332,391.119625 524.135742,391.806152 C525.17481,392.678227 527.698222,393.587398 531.706055,394.533691 C535.713887,395.479985 538.677969,396.458735 540.598389,397.469971 C542.518808,398.481206 544.021723,399.863517 545.107178,401.616943 C546.192632,403.37037 546.735352,405.536608 546.735352,408.115723 C546.735352,410.453625 546.085944,412.643056 544.787109,414.684082 C543.488275,416.725108 541.651379,418.241938 539.276367,419.234619 C536.901355,420.2273 533.941912,420.723633 530.397949,420.723633 C525.23972,420.723633 521.278334,419.531506 518.513672,417.147217 C515.74901,414.762928 514.097659,411.288597 513.55957,406.724121 Z M553.665527,420 L553.665527,379.198242 L583.918945,379.198242 L583.918945,386.100586 L561.903809,386.100586 L561.903809,395.145996 L582.388184,395.145996 L582.388184,402.020508 L561.903809,402.020508 L561.903809,413.125488 L584.698242,413.125488 L584.698242,420 L553.665527,420 Z M591.711914,420 L591.711914,379.198242 L609.05127,379.198242 C613.411643,379.198242 616.579824,379.564694 618.555908,380.297607 C620.531992,381.030521 622.113764,382.333975 623.30127,384.208008 C624.488775,386.082041 625.08252,388.225086 625.08252,390.637207 C625.08252,393.698746 624.182626,396.226797 622.382812,398.221436 C620.582999,400.216074 617.892596,401.473142 614.311523,401.992676 C616.092782,403.031743 617.563227,404.172845 618.7229,405.416016 C619.882574,406.659186 621.445791,408.867172 623.412598,412.040039 L628.394531,420 L618.541992,420 L612.585938,411.121582 C610.470693,407.948715 609.023441,405.949467 608.244141,405.123779 C607.46484,404.298092 606.639165,403.732179 605.76709,403.426025 C604.895015,403.119872 603.512705,402.966797 601.620117,402.966797 L599.950195,402.966797 L599.950195,420 L591.711914,420 Z M599.950195,396.454102 L606.04541,396.454102 C609.997578,396.454102 612.465327,396.287111 613.44873,395.953125 C614.432134,395.619139 615.202146,395.043949 615.758789,394.227539 C616.315432,393.411129 616.59375,392.390631 616.59375,391.166016 C616.59375,389.792962 616.227299,388.68433 615.494385,387.840088 C614.761471,386.995845 613.727057,386.462403 612.391113,386.239746 C611.723141,386.146972 609.719255,386.100586 606.379395,386.100586 L599.950195,386.100586 L599.950195,396.454102 Z M643.256836,420 L628.672852,379.198242 L637.606934,379.198242 L647.932617,409.395996 L657.924316,379.198242 L666.663574,379.198242 L652.051758,420 L643.256836,420 Z M670.615723,420 L670.615723,379.198242 L678.854004,379.198242 L678.854004,420 L670.615723,420 Z M712.809082,404.998535 L720.796875,407.53125 C719.57226,411.984397 717.535903,415.291737 714.687744,417.453369 C711.839585,419.615001 708.226096,420.695801 703.847168,420.695801 C698.429172,420.695801 693.976092,418.844989 690.487793,415.143311 C686.999494,411.441632 685.255371,406.380891 685.255371,399.960938 C685.255371,393.169888 687.008772,387.895771 690.515625,384.138428 C694.022478,380.381085 698.633272,378.502441 704.348145,378.502441 C709.33938,378.502441 713.393539,379.977524 716.510742,382.927734 C718.36622,384.671884 719.757808,387.176741 720.685547,390.442383 L712.530762,392.390625 C712.048337,390.27538 711.041756,388.605475 709.510986,387.380859 C707.980217,386.156244 706.120128,385.543945 703.930664,385.543945 C700.906235,385.543945 698.452402,386.629384 696.569092,388.800293 C694.685782,390.971202 693.744141,394.48728 693.744141,399.348633 C693.744141,404.506862 694.671866,408.180653 696.527344,410.370117 C698.382822,412.559581 700.794907,413.654297 703.763672,413.654297 C705.953136,413.654297 707.836418,412.958503 709.413574,411.566895 C710.990731,410.175286 712.122555,407.985855 712.809082,404.998535 Z M727.866211,420 L727.866211,379.198242 L758.119629,379.198242 L758.119629,386.100586 L736.104492,386.100586 L736.104492,395.145996 L756.588867,395.145996 L756.588867,402.020508 L736.104492,402.020508 L736.104492,413.125488 L758.898926,413.125488 L758.898926,420 L727.866211,420 Z M763.797363,406.724121 L771.812988,405.944824 C772.295413,408.635267 773.274163,410.611322 774.749268,411.873047 C776.224373,413.134772 778.214343,413.765625 780.719238,413.765625 C783.372572,413.765625 785.371819,413.204351 786.717041,412.081787 C788.062263,410.959223 788.734863,409.646492 788.734863,408.143555 C788.734863,407.178706 788.451907,406.357669 787.885986,405.68042 C787.320066,405.00317 786.332038,404.414065 784.921875,403.913086 C783.957026,403.5791 781.758318,402.985356 778.325684,402.131836 C773.909646,401.037104 770.811044,399.691903 769.029785,398.096191 C766.52489,395.851063 765.272461,393.114274 765.272461,389.885742 C765.272461,387.807607 765.861566,385.864023 767.039795,384.054932 C768.218023,382.245841 769.91576,380.868169 772.133057,379.921875 C774.350353,378.975581 777.02684,378.502441 780.162598,378.502441 C785.283717,378.502441 789.138415,379.624989 791.726807,381.870117 C794.315198,384.115246 795.674316,387.111798 795.804199,390.859863 L787.565918,391.22168 C787.213377,389.12499 786.457281,387.617436 785.297607,386.698975 C784.137934,385.780513 782.398449,385.321289 780.079102,385.321289 C777.685535,385.321289 775.81153,385.812983 774.457031,386.796387 C773.584957,387.427249 773.148926,388.271479 773.148926,389.329102 C773.148926,390.29395 773.557125,391.119625 774.373535,391.806152 C775.412603,392.678227 777.936015,393.587398 781.943848,394.533691 C785.95168,395.479985 788.915762,396.458735 790.836182,397.469971 C792.756601,398.481206 794.259516,399.863517 795.344971,401.616943 C796.430425,403.37037 796.973145,405.536608 796.973145,408.115723 C796.973145,410.453625 796.323737,412.643056 795.024902,414.684082 C793.726068,416.725108 791.889172,418.241938 789.51416,419.234619 C787.139148,420.2273 784.179705,420.723633 780.635742,420.723633 C775.477513,420.723633 771.516127,419.531506 768.751465,417.147217 C765.986803,414.762928 764.335452,411.288597 763.797363,406.724121 Z" id="AND-SOCIAL-SERVICES"></path>
            </g>
        </g>
    </g>
</svg>