<svg id="Layer_1" data-name="Layer 1" xmlns="http://www.w3.org/2000/svg" xmlns:xlink="http://www.w3.org/1999/xlink" viewBox="0 0 500 250"><defs><style>.cls-1,.cls-2,.cls-24,.cls-29,.cls-31{fill:none;}.cls-1,.cls-3{clip-rule:evenodd;}.cls-3,.cls-40,.cls-50{fill:#cba285;}.cls-4{fill:#ebeded;}.cls-5{opacity:0.33;}.cls-6{fill:#ededed;}.cls-7{fill:#d1d1d1;}.cls-8{fill:#b1b1b1;}.cls-9{fill:#b5b5b5;}.cls-10{fill:#445876;}.cls-11{fill:#cecccb;}.cls-12{fill:#5a7599;}.cls-13{fill:#e0e0e0;}.cls-14{fill:#8c8c8c;}.cls-15{fill:#fff;}.cls-16{fill:#e9e8e9;}.cls-17{fill:#edeff2;}.cls-18{fill:#6a6f76;}.cls-19{fill:#8d8d8e;}.cls-20{fill:#353536;}.cls-21{fill:#555554;}.cls-22{fill:#232323;}.cls-23{fill:#4c4c4c;}.cls-24{stroke:#232323;stroke-width:0.27px;}.cls-24,.cls-29,.cls-31{stroke-miterlimit:10;}.cls-25{fill:#76c980;}.cls-26{fill:#d8d8d8;}.cls-27{fill:#71b77a;}.cls-28{fill:#f4f4f4;}.cls-29{stroke:#8d8d8e;}.cls-29,.cls-31{stroke-width:0.39px;}.cls-30{fill:#ddd;}.cls-31{stroke:#ea3a3a;}.cls-32{fill:#e3e3e3;}.cls-33{fill:#686868;}.cls-34{clip-path:url(#clip-path);}.cls-35{clip-path:url(#clip-path-2);}.cls-36{clip-path:url(#clip-path-3);}.cls-37{clip-path:url(#clip-path-4);}.cls-38{fill:#d4ba70;}.cls-39{clip-path:url(#clip-path-5);}.cls-41{clip-path:url(#clip-path-7);}.cls-42{fill:#e4cc82;}.cls-43{clip-path:url(#clip-path-9);}.cls-44{clip-path:url(#clip-path-10);}.cls-45{fill:#b29bb6;}.cls-46{clip-path:url(#clip-path-11);}.cls-47{fill:#cbb5cd;}.cls-48{clip-path:url(#clip-path-13);}.cls-49{clip-path:url(#clip-path-14);}.cls-50{fill-rule:evenodd;}.cls-51{clip-path:url(#clip-path-15);}.cls-52{clip-path:url(#clip-path-16);}.cls-53{clip-path:url(#clip-path-17);}.cls-54{clip-path:url(#clip-path-18);}.cls-55{fill:#c6ced4;}.cls-56{clip-path:url(#clip-path-19);}.cls-57{fill:#323337;}.cls-58{clip-path:url(#clip-path-21);}.cls-59{fill:#dde2e7;}.cls-60{fill:#a3a3a3;}.cls-61{fill:#d3d3d3;}.cls-62{fill:#b5b4b4;}.cls-63{clip-path:url(#clip-path-23);}.cls-64{clip-path:url(#clip-path-24);}.cls-65{fill:#ab8b6c;}.cls-66{clip-path:url(#clip-path-25);}.cls-67{fill:#2c2c2c;}.cls-68{clip-path:url(#clip-path-27);}.cls-69{fill:#8991d6;}.cls-70{clip-path:url(#clip-path-29);}.cls-71{opacity:0.2;}.cls-72{clip-path:url(#clip-path-31);}.cls-73{clip-path:url(#clip-path-32);}.cls-74{clip-path:url(#clip-path-33);}.cls-75{clip-path:url(#clip-path-34);}.cls-76{clip-path:url(#clip-path-35);}.cls-77{fill:#85b2b6;}.cls-78{clip-path:url(#clip-path-37);}.cls-79{clip-path:url(#clip-path-38);}.cls-80{clip-path:url(#clip-path-40);}.cls-81{clip-path:url(#clip-path-41);}.cls-82{clip-path:url(#clip-path-42);}.cls-83{fill:#93c1c8;}.cls-84{clip-path:url(#clip-path-44);}.cls-85{clip-path:url(#clip-path-45);}.cls-86{fill:#93775d;}.cls-87{clip-path:url(#clip-path-46);}.cls-88{fill:#b0b8c3;}.cls-89{clip-path:url(#clip-path-48);}.cls-90{clip-path:url(#clip-path-50);}.cls-91{opacity:0.1;}</style><clipPath id="clip-path"><path class="cls-1" d="M94.08,221.88l.43-9h9q6.44,4.51,16.8,7.32v1.72H104l-5.6-.86v.86Z"/></clipPath><clipPath id="clip-path-2"><rect class="cls-2" x="94.08" y="204.65" width="26.28" height="17.23"/></clipPath><clipPath id="clip-path-3"><path class="cls-1" d="M139.63,57.88c1.49,5.48,3.42,17.78,1.45,19.7H128.59v-.06a9.26,9.26,0,0,1-8.23-9.21v-9A9.26,9.26,0,0,1,129.61,50h.87A9.24,9.24,0,0,1,139.63,57.88Z"/></clipPath><clipPath id="clip-path-4"><rect class="cls-2" x="98.38" y="38.37" width="58.59" height="44.8"/></clipPath><clipPath id="clip-path-5"><path class="cls-1" d="M125.2,66.59a11.72,11.72,0,0,1-3.1-8.39c.65-9.22,13.48-7.19,16-2.54s2.2,16.46-1,17.29c-1.29.33-4-.48-6.82-2.16L132,83.17H121.64Z"/></clipPath><clipPath id="clip-path-7"><path class="cls-1" d="M128,65c.48,5.12.28,11-1.14,12.35H114.37c-.69-12.1,6-7.41,6-18.8.42-.41-.18-1.82.21-2.17v-.33q3.24-6.64,8.23-6.64c5,0,8.83,3.59,10.17,5.56-1,3.44-6.16,3.68-9.62,5.82a2.33,2.33,0,0,0-1.49-.53,2.37,2.37,0,0,0,0,4.74Z"/></clipPath><clipPath id="clip-path-9"><polygon class="cls-1" points="118.2 118.93 133.82 173.74 145.21 214.13 153.52 214.13 141.41 118.93 118.2 118.93"/></clipPath><clipPath id="clip-path-10"><rect class="cls-2" x="79.43" y="118.93" width="112.86" height="102.96"/></clipPath><clipPath id="clip-path-11"><path class="cls-1" d="M114,118.93c-.36,28.25-1.59,43.65-2,46.22s-6.11,18.89-17.21,49h8.61q21.18-43.29,23.65-49c1.64-3.79,6.72-19.2,14.36-46.22Z"/></clipPath><clipPath id="clip-path-13"><path class="cls-1" d="M144.05,221.88l.43-9h9q6.43,4.51,16.8,7.32v1.72H154l-5.6-.86v.86Z"/></clipPath><clipPath id="clip-path-14"><rect class="cls-2" x="144.05" y="204.65" width="26.28" height="17.23"/></clipPath><clipPath id="clip-path-15"><path class="cls-3" d="M95.65,107.1l7.63,1.11Q91,134.87,90.11,136.4c-1.33,2.31.24,6.33.85,8.45-3.09.9-2.11-3.88-6-2.69-3.56,1.09-6.51,3.55-10,.62-.44-.36-.81-1.54.58-2.22,3.44-1.72,8.49-4.85,9.28-6Q86.37,132.21,95.65,107.1Zm58.89,4.77,13,11a37.13,37.13,0,0,1,9.06,4.4c.55.58,1.19,1.71-1.24,1.36s-5-.63-5.4.18,1,1.91.25,3q-.77,1.06-6.05-6.09L151,119.15Z"/></clipPath><clipPath id="clip-path-16"><rect class="cls-2" x="72.73" y="73.27" width="110.09" height="93.48"/></clipPath><clipPath id="clip-path-17"><path class="cls-1" d="M127.54,76l4.73-1.56c6.42,16,16,31.52,32,44.62l-3.95,6.81c-14.05-8.27-27.34-14.7-32.74-27.11C125.73,94.58,127.4,81,127.54,76Z"/></clipPath><clipPath id="clip-path-18"><rect class="cls-2" x="79.43" y="73.27" width="103.39" height="93.48"/></clipPath><clipPath id="clip-path-19"><path class="cls-1" d="M111.31,121.08q20.31,2.16,32,0c1-.17,1.11-1.79.66-2.88-6.95-17-11.73-31.93-11.73-43.77-1.27.64-3.51.74-6.7.29C116.94,86.92,113,100.93,111.31,121.08Z"/></clipPath><clipPath id="clip-path-21"><path class="cls-1" d="M123.39,73.7H127c.84,4.89,3.46,71.19,11.57,92.88H94.67c1-19.87,8.45-43.74,16-63.71q-10.08,9.22-17.57,31.25L84.94,132q9.16-39.48,37.67-58l.13-.28h.31l.35-.23Z"/></clipPath><clipPath id="clip-path-23"><path class="cls-1" d="M401.57,96a11.58,11.58,0,0,0,3.08-8.33c-.64-9.17-13.39-7.15-15.88-2.53s-2.18,16.36,1,17.19c1.28.33,4-.48,6.78-2.15l-1.74,12.31h10.28Z"/></clipPath><clipPath id="clip-path-24"><rect class="cls-2" x="369.99" y="68" width="58.23" height="44.53"/></clipPath><clipPath id="clip-path-25"><path class="cls-1" d="M391.09,82.13c.23-.14.73-.43,1-.54.06,0,.47-.32.48-.32.31.11,1.22.5,1.3.83l0,.08c.13.23.25.47.36.71.25.53.46,1.09.66,1.64.4,1.07.74,2.17,1.06,3.27s.6,2.26.9,3.38c.44,1.62,1,3.2,1.44,4.82a9.56,9.56,0,0,1,.37,3.14v.06c0,.16,0,.33-.05.49s0,.28-.07.42c-.4-.79-.7-1.67-1-2.5l-.1-.25-.31-.5c-.68-1.06-1.36-2.11-2-3.18A56.47,56.47,0,0,0,391.38,88c-.41-.53-.83-1-1.24-1.57-.23-.3-.45-.6-.67-.92s-.83-1-.58-1.46A13,13,0,0,1,391.09,82.13Z"/></clipPath><clipPath id="clip-path-27"><path class="cls-1" d="M392,81.63c-.23.08-.11-.4.11-.57,1-.78,4.95-1.06,8.37-.35a16.66,16.66,0,0,1,6.78,3.18,11.42,11.42,0,0,1,3.36,5.69,16.45,16.45,0,0,1,.37,6.84c-.08.5-.24,1-.33,1.47a11.21,11.21,0,0,1-.33,1.63c-.11.33-.3.65-.39,1a2.36,2.36,0,0,0,0,1.12,12.13,12.13,0,0,0,.52,1.85c.33.9.74,1.74,1,2.67.34,1.25,1.77,5.29.73,6.39H392.29c.5-1.37,2-3,2.31-4.44.18-.87.27-2.75.29-2.82.44-3.09,1.32-4.57,1.87-5.11s1.28-.7,1.32-1.16c.15-1.93-.61-3.77-1.17-5.57-.67-2.14-1.16-4.33-1.85-6.46C394.75,86,393.18,81.23,392,81.63Z"/></clipPath><clipPath id="clip-path-29"><path class="cls-1" d="M407,100.86l-.3-.37c-4.11,1.29-3.66,4-8.84,6.64l.44.26C402.79,105.52,403.85,101.51,407,100.86ZM403.3,86.54c-.63,4.82-.82,7.57-4.13,12.84l.35.11c3.41-4.59,4-8.34,4.11-12.93ZM409.05,90c-1.4,3.4-2,5.4-5.94,8.15l.3.21c3.88-2.2,5-4.82,5.94-8.22ZM399,83.84a16.21,16.21,0,0,1,.75,6.91h.37c.68-3.07.07-6-.66-6.91Z"/></clipPath><clipPath id="clip-path-31"><polygon class="cls-1" points="423.68 166.05 390.6 166.05 386.27 219.15 435.51 219.15 423.68 166.05"/></clipPath><clipPath id="clip-path-32"><polygon class="cls-1" points="423.68 166.05 413.51 166.05 407.42 219.15 435.51 219.15 423.68 166.05"/></clipPath><clipPath id="clip-path-33"><path class="cls-1" d="M352.89,157c-3.53-2.12-9.45.6-9.44,3.63,0,9.06,8.28,51.77,8.71,54.47s5.06,3.42,5.33,0c.43-5.41,1.22-24.17.43-32.85-.33-3.58-.69-7-1-10q6.51,11.76,20.14,33.67l4.93-2.26q-5.81-19.12-9.52-27c-4.25-9-8.23-16.7-9.9-19.42C359.89,152.88,355.31,154.37,352.89,157Z"/></clipPath><clipPath id="clip-path-34"><rect class="cls-2" x="333.6" y="148.07" width="129.74" height="102.34"/></clipPath><clipPath id="clip-path-35"><path class="cls-1" d="M381.6,196.51l-16.93-40.1c-4.05-6.52-15.42,1.33-14,5.11,3.14,8.59,19.11,36.4,20,39Z"/></clipPath><clipPath id="clip-path-37"><rect class="cls-2" x="358.01" y="196.46" width="26.12" height="17.13" transform="translate(-52.8 213) rotate(-30)"/></clipPath><clipPath id="clip-path-38"><path class="cls-1" d="M382.54,201.07a9.21,9.21,0,0,1,2.06,2.12,22.71,22.71,0,0,1,1.35,3.12L365,218.39c-1.58-1.48-1.83-2.64-.74-3.46s2-1.51,2.69-2.07l7.22-9.94a.42.42,0,0,1,.6-.1h0l1.5,1.15a7.72,7.72,0,0,0,3.08-.76,7,7,0,0,0,1.9-2h0a.86.86,0,0,1,1.19-.2Z"/></clipPath><clipPath id="clip-path-40"><path class="cls-1" d="M358.57,212.9a9.15,9.15,0,0,1,.72,2.87,21.28,21.28,0,0,1-.39,3.38H334.75q-.93-3.12,1.09-3.36c1.35-.17,2.48-.32,3.37-.45l11.23-5a.42.42,0,0,1,.56.21h0l.72,1.76a7.74,7.74,0,0,0,3,.87,7,7,0,0,0,2.63-.77h0a.86.86,0,0,1,1.14.42Z"/></clipPath><clipPath id="clip-path-41"><rect class="cls-2" x="333.6" y="202.02" width="26.12" height="17.13"/></clipPath><clipPath id="clip-path-42"><path class="cls-1" d="M342.26,163.67c0,11.38,5.4,37.91,5.41,40.42h11.62q-2.55-35.51-1.81-35.89c.74-.39,30.42,3,39.33,3,12.83,0,18.14-8.09,18.57-23.09H390c-5.17.55-32.18,6-42.21,7.87C343.45,156.75,342.26,160.54,342.26,163.67Z"/></clipPath><clipPath id="clip-path-44"><path class="cls-1" d="M424.82,135l-9.38,0q15.42,34.71,16.08,36.35c1,2.45-1.1,6.19-2,8.2,2.92,1.31,2.61-3.53,6.29-1.82,3.37,1.57,5.92,4.4,9.81,2,.48-.29,1-1.4-.27-2.27-3.15-2.16-7.69-5.94-8.3-7.18Q435.79,167.75,424.82,135Zm-53.11-3.91-16.91-2.31a36.64,36.64,0,0,0-9.33-3.82c-.8,0-2.07.27-.18,1.85s3.82,3.32,3.48,4.16-2.1.53-2.39,1.83q-.3,1.29,8.58.42l13.71,5.44Z"/></clipPath><clipPath id="clip-path-45"><rect class="cls-2" x="344.3" y="103.11" width="109.62" height="80.07"/></clipPath><clipPath id="clip-path-46"><path class="cls-1" d="M399.13,105.25l-7.34.49c-1.81,16.36-11.65,26.69-33.7,23.19L355.16,150c20.61,2.66,38.68-5.59,42.38-27.93A93.92,93.92,0,0,0,399.13,105.25Z"/></clipPath><clipPath id="clip-path-48"><path class="cls-1" d="M402.76,103.12l-11.13,2.54c0,19.14-6.09,31.34-9.22,45.41h30c.43,4.86.69,9.85.82,15h22.49q-7.63-40.68-32.27-62.94h-.73Z"/></clipPath><clipPath id="clip-path-50"><path class="cls-1" d="M407.71,123.77q1.17,17.89-1.36,27.3h6.1a146.68,146.68,0,0,0-4.74-27.3Z"/></clipPath></defs><title>illustrations</title><ellipse class="cls-4" cx="251.5" cy="221.37" rx="248.5" ry="21.23"/><g class="cls-5"><path class="cls-6" d="M154.84,108.47l3.49-5.45s10.48-3.72,19.43-3.28c0,0,20.52,1.31,27.94,7.2,0,0,8.29,5.46,10.69,9l3.06,3.5.22,1.52-.66.44-.87,2.84s-1.09,3.71-8.51,3.27l-4.59-.87-20.95-4.37s-8.3-2.62-10.48-1.09l-4.15-2-1.74-1.31L166,117S154.84,109.34,154.84,108.47Z"/><path class="cls-7" d="M160.51,113.27s9.39,3.06,11.35,2.19,5.9-3.5,8.95,1.52,7.21-1.74,12.45.66,12.44,3.93,16.15,3.49,10.38-1.65,10.38-1.65-4.12,9.88-20.42,6.45c-7.8-1.64-15.7-4.81-19.46-5.66a20.86,20.86,0,0,0-4-.51l-5.12-.16S161.17,115,160.51,113.27Z"/><path class="cls-8" d="M188.85,205.41l1.09,2.72v6.34H343.86v-6.34l2.72-2.81S188.85,204.93,188.85,205.41Z"/><polygon class="cls-6" points="189.18 143.72 189.18 205.51 346.14 205.51 346.14 152.96 285.08 152.96 278.41 144.63 189.18 143.72"/><path class="cls-8" d="M189,144.63v-.34c0-2,1.94-3.65,4.33-3.65h29.43l3.22-3.93h120.2v16.07H284l-4.84-7.52Z"/><rect class="cls-9" x="197.22" y="148.97" width="77.83" height="17.03" rx="5.21"/><rect class="cls-10" x="200.27" y="154.05" width="71.31" height="9.42" rx="2.88"/><rect class="cls-9" x="197.22" y="169.63" width="77.83" height="13.05" rx="3.99"/><rect class="cls-10" x="200.27" y="171.62" width="71.31" height="9.42" rx="2.88"/><rect class="cls-9" x="197.22" y="185.21" width="77.83" height="13.05" rx="3.99"/><rect class="cls-10" x="200.27" y="187.02" width="71.31" height="9.42" rx="2.88"/><path class="cls-11" d="M152.22,129.59s1.3.18.65,4.16c0,0,0,2.72,4.79,2.54l23.69.91v-.73s-11-5.52-15.11-5.52C166.24,131,155.26,130.13,152.22,129.59Z"/><path class="cls-12" d="M152.65,130.13s17.83.54,21.53,3.44l7.39,3.63,88.05,1.08s17.61-1.26,22.17-1.08h53.92s4.78-.73,5.43-2.18.44-4.53.44-4.53-2.61-4.71-11.74-4.71H286s-5.65,4.08-9.13,2.63c0,0-6.09-4-17.18-3.81l-57-.36c-1.53,0-22.18-7.25-35.88-5.25C166.89,119,149.5,120.26,152.65,130.13Z"/><path class="cls-11" d="M194.52,137.32l28,.42s-4.33-9.12-20.11-6.37C202.42,131.37,195,133.07,194.52,137.32Z"/><path class="cls-13" d="M224.83,137.74s-.87,1.09-6.09,2.17l-5.43,1.45a8.39,8.39,0,0,0-.22,1.63s-4.78-.72-5.43-.36v-2.9s-.39-1.63,2.85-2.26Z"/><path class="cls-13" d="M203.23,144.7s11.28.53,12,0-2.06-2-4.31-2.31S204.22,142.93,203.23,144.7Z"/><ellipse class="cls-14" cx="200.7" cy="135.57" rx="0.65" ry="0.54"/><ellipse class="cls-14" cx="214.83" cy="135.57" rx="0.65" ry="0.54"/></g><rect class="cls-15" x="299.8" y="21.53" width="99.39" height="38.35" rx="9.23"/><rect class="cls-16" x="340.35" y="34.29" width="23.69" height="19.02" rx="4.88"/><rect class="cls-17" x="341.99" y="34.13" width="22.06" height="17.71" rx="4.55"/><rect class="cls-18" x="356.96" y="34.13" width="2.18" height="21.1"/><rect class="cls-19" x="346.89" y="29.7" width="2.18" height="13.02"/><rect class="cls-19" x="356.96" y="29.96" width="2.18" height="12.76"/><path class="cls-20" d="M347.43,33.87s-1.09,0-1.09-.27a2.55,2.55,0,0,0-.27-.78,7.71,7.71,0,0,1,0-3.64V27.09h.27v-.26a8.93,8.93,0,0,1,3-1l.54.26.27.78s.82,3.39.55,4.17a9.32,9.32,0,0,1-.55,1.56,5.72,5.72,0,0,0-.27,1v.27A22.25,22.25,0,0,0,347.43,33.87Z"/><path class="cls-20" d="M353.85,27.9l.66-.29,5.18.26s1.09.53,1.09,1.31a1.89,1.89,0,0,1-1.09,2.08,2.89,2.89,0,0,1-.82.26,1.33,1.33,0,0,0-1.63.26l-1.37.26h-1.63a1.73,1.73,0,0,1-1-.41"/><ellipse class="cls-21" cx="353.97" cy="29.83" rx="1.57" ry="1.95"/><ellipse class="cls-22" cx="353.97" cy="29.83" rx="1.09" ry="1.17"/><path class="cls-23" d="M346.07,53.09v4.74h.54l.55-4.74A2.31,2.31,0,0,0,346.07,53.09Z"/><path class="cls-23" d="M355.87,53.09v4.74h.55l.54-4.74A2.3,2.3,0,0,0,355.87,53.09Z"/><path class="cls-23" d="M347.43,55.2v6.27H348l.54-6.27A1.67,1.67,0,0,0,347.43,55.2Z"/><path class="cls-23" d="M357.51,55.2v6.27h.54l.55-6.27A1.68,1.68,0,0,0,357.51,55.2Z"/><path class="cls-22" d="M349.07,25.79l.27,4.58a5.34,5.34,0,0,1-.55,1.61c-.27.27,0,1.08,0,1.08v.81h1.09a1.76,1.76,0,0,1,.27-1.08c.28-.54.55-.81.55-1.35V29.83a10.68,10.68,0,0,0-.82-3.23v-.54A1.18,1.18,0,0,0,349.07,25.79Z"/><path class="cls-19" d="M346.34,30.22v1.3a11,11,0,0,1,2.45-1v-1A13.19,13.19,0,0,0,346.34,30.22Z"/><rect class="cls-18" x="346.89" y="41.94" width="2.18" height="13.28"/><path class="cls-24" d="M347.7,61.21s-.27,2.87-.27,3.39c0,0-.27,2.08.55,2.34s1.09,1.57,1.09,1.57"/><path class="cls-24" d="M357.92,61.34a11,11,0,0,0,0,3.13s0,2.86-.82,3.64"/><path class="cls-23" d="M347.16,68S345.8,83.89,345.8,84.3s-.27,4,.54,4.22a2.26,2.26,0,0,0,1.64-.4v-5l1.09-11.46.27-3.62S347.16,67.2,347.16,68Z"/><path class="cls-23" d="M354.24,68.24s1.36-.78,2.18,0c0,0-.47,11.23-1,14.92a9.4,9.4,0,0,0-.08,1.76c.1,2.33.41,7.75,1.05,7.55.82-.26,0-13-.27-15.11l-.55-10.94s1.64-.26,1.91.26c0,0,.81,13,1.09,14.07s.81,10.94-.55,13c0,0-1.09,2.34-3.54,0a22.11,22.11,0,0,1-1.09-9.38C354,78.94,354.78,69.55,354.24,68.24Z"/><path class="cls-24" d="M356,57.7s-.95,6.12.14,6.64,1.36,2.34,1.36,2.34"/><path class="cls-24" d="M346.21,58s-.55,8.07.54,8.59.82,3.39.82,3.39"/><path class="cls-17" d="M375,38.63c6.33.07,5.19-2.92,5.19-2.92l.66-8.22,1-.53,6.33.07.05,1.51s1.86.45,1.87.7l-.89,22s-1,2.05-2.57,2.09l-.59,2.42s-5.38.78-8.88-1.39c0,0-3-1.93-4.54-1.63l-1.84,0,.1-13.63Z"/><path class="cls-25" d="M380.74,28.86l.1-1.42a3.56,3.56,0,0,1,1-.5l.49,0s5.74,0,6,.21l-.23,1.27S381.26,28.6,380.74,28.86Z"/><path class="cls-16" d="M386.77,52.91l-.21,1.78-.49,1s-5.78.67-7.4-.29a12.46,12.46,0,0,0-6.16-2.85s5-.65,7.39,0Z"/><path class="cls-16" d="M370.87,39.17l.06,13.61L372.71,51s1.28-1,6.56-.19a38.83,38.83,0,0,0,8.94.5l.8.22.64-9.53s-5.74,1.77-9-.65l-1.14-3.61Z"/><ellipse class="cls-17" cx="384.9" cy="54.26" rx="0.37" ry="0.36"/><path class="cls-26" d="M372.52,38.92s-.33,3.55.55,3.67a5,5,0,0,0,1.49,0v7.82a3.68,3.68,0,0,0-1.87.52c-.5.47-1.74,1.9-1.74,1.9V39.13Z"/><path class="cls-25" d="M388.62,31.27a13.44,13.44,0,0,0-4.43-.15,9.45,9.45,0,0,0-1.76.33c-.47.25-.69.71-.6,3.68,0,0,.39,4.8,2.11,6.13,0,0,2.43,1.3,4-1.95a12.21,12.21,0,0,0,1.5-5.54s.17-2.29-.8-2.5Z"/><path class="cls-27" d="M389.27,34.15l-5.93,6.4s1,1.92,3.2.51C386.54,41.06,389.61,37.68,389.27,34.15Z"/><rect class="cls-17" x="383.55" y="32.84" width="4.24" height="0.92" rx="0.24"/><path class="cls-28" d="M385.11,29.7a26.51,26.51,0,0,0,.5-2.66V25.59a3.56,3.56,0,0,1,3.29-.24.52.52,0,0,0-.25.72,1.05,1.05,0,0,0-1.39.85,7.34,7.34,0,0,0,.25,2.9A4.16,4.16,0,0,0,385.11,29.7Z"/><path class="cls-23" d="M316.36,58s.55,18.81,9.14,16.69,6.1-12.45,6.1-12.45L331,36.77l-1.38-.8s-.42,10.2-.7,14.18-1.38,12.18-.55,14.57.28,8-5,5.83c0,0-3.32-.27-3.32-9l-.83-5.83s-1.39-.26-1.94.53,0-2.12,0-2.12h-.83S315.67,57,316.36,58Z"/><path class="cls-29" d="M317.39,51.52a14.85,14.85,0,0,0-.52,2.72"/><path class="cls-30" d="M311.57,51.44,315.91,53l12.86-.17a8.8,8.8,0,0,0,1.33-2.85C330.16,49,311.57,51.44,311.57,51.44Z"/><rect class="cls-17" x="308.45" y="31.07" width="21.64" height="20.4" rx="5.1"/><rect class="cls-23" x="309.8" y="32.26" width="19.4" height="18.28" rx="4.69"/><path class="cls-26" d="M326.75,41.25a6.62,6.62,0,0,1-2.11,4.85,7.36,7.36,0,0,1-10,.1,6.65,6.65,0,0,1,0-9.9,7.38,7.38,0,0,1,10,.1A6.64,6.64,0,0,1,326.75,41.25Zm0,0a6.56,6.56,0,0,0-2.15-4.8,7.16,7.16,0,0,0-9.74.1,6.42,6.42,0,0,0,0,9.41,7.19,7.19,0,0,0,9.74.1A6.56,6.56,0,0,0,326.75,41.25Z"/><line class="cls-31" x1="319.46" y1="41.25" x2="319.46" y2="46.91"/><polygon class="cls-32" points="34.9 17.91 34.9 77.2 70.61 77.53 70.28 19.22 34.9 17.91"/><polygon class="cls-15" points="35.66 18.67 35.66 77.96 71.37 78.29 71.04 19.98 35.66 18.67"/><path class="cls-33" d="M46.28,29.61a7.54,7.54,0,0,1,0,1.35A.42.42,0,0,1,46,31l-1.87,0-2.35,0a2.44,2.44,0,0,0-.26,0,2.61,2.61,0,0,0,0,.62,2.69,2.69,0,0,0,0,.57c.08.1.18.08.27.08h.89l3.83,0a.42.42,0,0,1,.27,0,5.77,5.77,0,0,1,0,1.28c-.07.08-.17.05-.26.05l-2.23,0-3.55,0h-.67l-.19,0a1,1,0,0,1,0-.15V26.9c.07-.07.16,0,.24,0l1.73,0,4.63.07a.67.67,0,0,1,.32,0,6.73,6.73,0,0,1,0,1.27c-.07.06-.15,0-.23,0l-1.07,0-3.63-.06a1,1,0,0,0-.34,0,1,1,0,0,0,0,.17c0,.28,0,.57,0,.86s0,.23.25.24l1.79,0,2.51,0Z"/><path class="cls-33" d="M50.73,28.75a4.74,4.74,0,0,1,1.13,0c.08.07,0,.17,0,.26,0,.43,0,.86,0,1.29a.46.46,0,0,0,0,.26c.1,0,.16,0,.22-.06l1-.62,1.55-1a.77.77,0,0,1,.47-.14c.38,0,.76,0,1.14,0h.3c0,.1,0,.12-.08.14L54.75,30.1a3.06,3.06,0,0,0-.29.21.57.57,0,0,0-.11.11.53.53,0,0,0,.14.28l1.7,2.5.29.45c-.1.07-.19,0-.28.05H55.07l-.45-.65-.47-.66-.44-.64c-.16-.21-.29-.43-.47-.63a.59.59,0,0,0-.14.06l-1.05.69a.3.3,0,0,0-.15.3v1.17c0,.09,0,.18,0,.28a1.11,1.11,0,0,1-.4,0H51.1a1,1,0,0,1-.38,0,.41.41,0,0,1,0-.08c0-1.57,0-3.13,0-4.7A.92.92,0,0,1,50.73,28.75Z"/><path class="cls-33" d="M65.7,33.64a4.78,4.78,0,0,1-1.23,0l-.16-.24c-.13-.23-.27-.45-.39-.68a.23.23,0,0,0-.23-.13H61.46a.32.32,0,0,0-.37.21c-.1.21-.23.41-.34.61l-.14.23a6.27,6.27,0,0,1-1.17,0,.38.38,0,0,1,0-.1c.85-1.6,1.69-3.21,2.56-4.81h1c.19.32.35.65.53,1s.36.66.53,1,.35.65.53,1,.35.65.53,1Zm-2.45-2.11s0-.07,0-.09l-.63-1.34s0,0-.06-.05,0,0-.06.05c-.24.44-.47.89-.69,1.34a.19.19,0,0,0,0,.08s0,0,.08,0h1.2Z"/><path class="cls-33" d="M51.83,37.25a4.46,4.46,0,0,1,0,.73.16.16,0,0,1-.05.09l-.15.13-2.33,1.88a1,1,0,0,0-.24.22c0,.09.11.07.17.07h2.5a2.64,2.64,0,0,1,0,.93l-.1,0-4.36,0-.11,0a5.57,5.57,0,0,1,0-.82c.09-.06.16-.13.24-.19l2.39-1.85a1.64,1.64,0,0,0,.24-.21c0-.08-.06-.08-.1-.08h-2.7a2.28,2.28,0,0,1,0-.87l.07,0,4.41,0Z"/><path class="cls-33" d="M66,38.36a6.18,6.18,0,0,1-.86,0l-.09-.14a.39.39,0,0,0-.25-.17,1.14,1.14,0,0,0-.32-.07,3.76,3.76,0,0,0-1.06,0,.9.9,0,0,0-.32.09.6.6,0,0,0-.21.14.29.29,0,0,0,.11.48,2.09,2.09,0,0,0,.7.15l1.12,0a2.34,2.34,0,0,1,.63.12.94.94,0,0,1,.68.86.68.68,0,0,1,0,.14,1.16,1.16,0,0,1-.7,1.2,2.53,2.53,0,0,1-.55.18,4.55,4.55,0,0,1-1.91,0,2.09,2.09,0,0,1-.73-.28,1.1,1.1,0,0,1-.52-.82v-.08l0-.07c.31,0,.63,0,.94,0,0,0,0,0,.06,0a.66.66,0,0,0,.62.44,7.3,7.3,0,0,0,.81,0,2.32,2.32,0,0,0,.52-.07.62.62,0,0,0,.25-.11.35.35,0,0,0,.17-.38.33.33,0,0,0-.26-.29,1.34,1.34,0,0,0-.39-.07c-.39,0-.78,0-1.17,0a1.92,1.92,0,0,1-1-.35,1.15,1.15,0,0,1-.3-1.59,1,1,0,0,1,.42-.36A3.31,3.31,0,0,1,63,37.2a4.72,4.72,0,0,1,1.91,0,2.14,2.14,0,0,1,.65.25A1,1,0,0,1,66,38.36Z"/><path class="cls-33" d="M58.28,38.88a7.72,7.72,0,0,0,0-.83,7,7,0,0,1,0-.79,6.43,6.43,0,0,1,.88,0,1.24,1.24,0,0,1,0,.16,1.77,1.77,0,0,1,0,.23c0,1.13,0,2.27,0,3.4a2.46,2.46,0,0,1,0,.28,1.16,1.16,0,0,1-.45,0h-.45a.81.81,0,0,1,0-.2c0-.34,0-.69,0-1a.46.46,0,0,0,0-.28.29.29,0,0,0-.1,0H55.89l-.11,0a3.77,3.77,0,0,0,0,.75v.72a2.6,2.6,0,0,1-1,0c0-.05,0-.1,0-.15,0-.83,0-3.64,0-3.9a1.42,1.42,0,0,1,.46,0h.42a.24.24,0,0,1,.07.23c0,.38,0,.75,0,1.12,0,.09,0,.18,0,.29l.17,0h2.13Z"/><path class="cls-33" d="M44.49,38.29a5.91,5.91,0,0,1-.76.37l-.13-.13A1.45,1.45,0,0,0,42.48,38a2.32,2.32,0,0,0-.79.11,1.22,1.22,0,0,0-.52,2,1.55,1.55,0,0,0,1.32.53,1.38,1.38,0,0,0,.84-.35c.16-.13.3-.27.46-.42.26.15.51.3.77.47,0,.06-.06.11-.09.16a2.57,2.57,0,0,1-2.36,1,2.51,2.51,0,0,1-.86-.2A2,2,0,0,1,40,39.55a2.37,2.37,0,0,1,0-.88,1.78,1.78,0,0,1,.8-1.14,2.76,2.76,0,0,1,2.64-.23,2.27,2.27,0,0,1,1,.8S44.44,38.21,44.49,38.29Z"/><path class="cls-33" d="M51.19,44.28h2.23a2.47,2.47,0,0,1,.39,0,.86.86,0,0,1,.76.92,1.84,1.84,0,0,1-.06.41.66.66,0,0,1-.51.47l-.31.07a2.62,2.62,0,0,0,.39.52c.13.16.28.32.41.5l-.08,0h-.67a.28.28,0,0,1-.24-.11l-.57-.73-.2-.24a4.93,4.93,0,0,0-.77,0,1.46,1.46,0,0,0-.05.54,2.83,2.83,0,0,1,0,.5,1,1,0,0,1-.34,0h-.32a.38.38,0,0,1-.07-.3c0-.59,0-1.17,0-1.76v-.61C51.17,44.47,51.18,44.39,51.19,44.28ZM52,45.49h1.51a.51.51,0,0,0,.24-.07.24.24,0,0,0,.12-.26.23.23,0,0,0-.18-.22l-.25,0H52.1l-.15,0A.93.93,0,0,0,52,45.49Z"/><path class="cls-33" d="M48.6,45.08H48L47.87,45a.47.47,0,0,0-.27-.14,2.62,2.62,0,0,0-1.08,0,.67.67,0,0,0-.23.1.23.23,0,0,0,0,.43,1.56,1.56,0,0,0,.52.11l.84,0a2.24,2.24,0,0,1,.44.07.75.75,0,0,1,.59.75.91.91,0,0,1-.63,1,2.57,2.57,0,0,1-.77.15,3.08,3.08,0,0,1-1.13-.09,1.29,1.29,0,0,1-.55-.27.72.72,0,0,1-.27-.62,3.82,3.82,0,0,1,.75,0,.59.59,0,0,0,.61.38c.21,0,.43,0,.64,0a1,1,0,0,0,.3,0,.56.56,0,0,0,.17-.09.28.28,0,0,0-.07-.51,1.85,1.85,0,0,0-.41-.07l-.7,0a1.54,1.54,0,0,1-.67-.16l-.22-.13a.88.88,0,0,1,.16-1.5,2.59,2.59,0,0,1,.37-.11,3.31,3.31,0,0,1,1.47,0,2.07,2.07,0,0,1,.47.18.71.71,0,0,1,.37.53A.4.4,0,0,1,48.6,45.08Z"/><path class="cls-33" d="M62.89,44.29a3.38,3.38,0,0,1,.71,0c.06.37,0,.72,0,1.08,0,0,.07,0,.1,0h1.73l.1,0s0-.12,0-.18v-.64a2.29,2.29,0,0,1,0-.25l.12,0h.51c.09.07.07.14.07.22v1.34c0,.4,0,.8,0,1.2v.23a1.94,1.94,0,0,1-.68,0,.72.72,0,0,1,0-.19v-.73a.39.39,0,0,0,0-.25H63.73l-.09,0a3.62,3.62,0,0,0,0,.57,5.24,5.24,0,0,1,0,.56,3.28,3.28,0,0,1-.7,0,1.1,1.1,0,0,1,0-.16c0-.89,0-1.77,0-2.66C62.88,44.41,62.89,44.35,62.89,44.29Z"/><path class="cls-33" d="M57.59,47.27a2,2,0,0,1-.64,0,1.35,1.35,0,0,1,0-.18c0-.86,0-1.73,0-2.59,0,0,0-.09,0-.15a2.33,2.33,0,0,1,.59,0,.23.23,0,0,1,.12.06l.16.16,1.64,1.63.19.17s.06,0,.1,0a.49.49,0,0,0,0-.26c0-.5,0-1,0-1.5a.6.6,0,0,1,0-.29,2.72,2.72,0,0,1,.57,0,.33.33,0,0,1,0,.25c0,.57,0,1.13,0,1.7,0,.22,0,.43,0,.64s0,.22,0,.34a1.44,1.44,0,0,1-.65,0,.33.33,0,0,1-.15-.12L58.34,46c-.17-.17-.34-.34-.52-.5a.67.67,0,0,0-.14-.09.41.41,0,0,0,0,.28c0,.44,0,.88,0,1.32C57.61,47.07,57.6,47.16,57.59,47.27Z"/><path class="cls-33" d="M42.21,45.19c.47.69.93,1.34,1.41,2l-.16,0h-.53a.32.32,0,0,1-.31-.15c-.28-.41-.57-.81-.85-1.21l-.18-.23-.13.05-.62.47a.26.26,0,0,0-.12.24c0,.18,0,.35,0,.53s0,.16,0,.26a2.41,2.41,0,0,1-.71,0A2.29,2.29,0,0,1,40,47V44.47a1.8,1.8,0,0,1,0-.22,3.19,3.19,0,0,1,.69,0c0,.06,0,.11,0,.16,0,.24,0,.48,0,.73,0,.08,0,.16,0,.27a1,1,0,0,0,.17-.07l.69-.51.62-.48a.51.51,0,0,1,.34-.11c.24,0,.48,0,.72,0l.17,0a4.9,4.9,0,0,1-.61.48C42.64,44.88,42.42,45,42.21,45.19Z"/><path class="cls-33" d="M64.11,51.31c0,.32,0,.61,0,.89a1.22,1.22,0,0,1-.6,0s0-.08,0-.12c0-.44,0-2.14,0-2.36l.15,0h1.78a1.49,1.49,0,0,1,.36,0,.66.66,0,0,1,.54.51,1.15,1.15,0,0,1,0,.66.51.51,0,0,1-.35.32,2.45,2.45,0,0,1-.32.09c0,.05,0,.1.07.14l.47.55.13.17c0,.06-.07.05-.1.05h-.47a.36.36,0,0,1-.29-.14c-.16-.22-.34-.42-.5-.64a.35.35,0,0,0-.35-.17Zm0-.6.08,0h1.22a.72.72,0,0,0,.21,0,.22.22,0,0,0,.12-.24.18.18,0,0,0-.15-.17,1.09,1.09,0,0,0-.25,0H64.26a.83.83,0,0,0-.15,0A1,1,0,0,0,64.11,50.71Z"/><path class="cls-33" d="M40,52.16a1.1,1.1,0,0,1,0-.16c0-.56,0-2.11,0-2.33l.16,0h1.7a2.32,2.32,0,0,1,.38.05,1,1,0,0,1,.76.64,1.5,1.5,0,0,1,0,1,1.17,1.17,0,0,1-.88.81,1.49,1.49,0,0,1-.36,0H40.1Zm.6-.59.11,0h.94A1.23,1.23,0,0,0,42,51.5a.52.52,0,0,0,.31-.27.7.7,0,0,0-.56-1.06h-.09c-.31,0-.63,0-.94,0a1,1,0,0,0-.17,0c0,.06,0,.1,0,.15,0,.38,0,.76,0,1.14A.41.41,0,0,0,40.56,51.57Z"/><path class="cls-33" d="M52.81,52.16l-.12,0h-.61L51.93,52l-.65-.94-.18-.22a.53.53,0,0,0-.15.08l-.43.31a.35.35,0,0,0-.15.31c0,.16,0,.32,0,.48a.74.74,0,0,1,0,.12,1.11,1.11,0,0,1-.6,0,.5.5,0,0,1,0-.12c0-.76,0-1.52,0-2.29a.51.51,0,0,1,0-.09l.16,0a2.1,2.1,0,0,1,.43,0c.07.31,0,.63,0,1a.85.85,0,0,0,.17-.1c.33-.24.66-.48,1-.74a.65.65,0,0,1,.44-.15,4.64,4.64,0,0,0,.53,0h.13a1.23,1.23,0,0,1-.34.28l-.34.25-.33.25A3.34,3.34,0,0,0,52,51l.4.57Z"/><path class="cls-33" d="M54.55,49.67a2.19,2.19,0,0,1,.57,0,1.1,1.1,0,0,1,0,.16v.62a1.8,1.8,0,0,0,0,.22,1.75,1.75,0,0,0,.51,0h1a.68.68,0,0,0,0-.17v-.59a2,2,0,0,0,0-.25,1.69,1.69,0,0,1,.55,0,8.1,8.1,0,0,1,0,.85v.81c0,.27,0,.55,0,.84a1.06,1.06,0,0,1-.56,0c0-.3,0-.6,0-.9a1.42,1.42,0,0,0-.5,0h-.53a2.22,2.22,0,0,0-.51,0,2.22,2.22,0,0,0,0,.44c0,.15,0,.3,0,.46a1.37,1.37,0,0,1-.57,0,5.89,5.89,0,0,1,0-.84c0-.27,0-.54,0-.81Z"/><path class="cls-33" d="M61.32,51.25l.46.28-.09.15a1.7,1.7,0,0,1-2.2.33,1.37,1.37,0,0,1-.07-2.14,1.76,1.76,0,0,1,1.87,0,1.13,1.13,0,0,1,.45.49,2.08,2.08,0,0,1-.45.22l-.16-.15a1.09,1.09,0,0,0-1.31-.09.77.77,0,0,0-.17,1.05.86.86,0,0,0,.6.37,1,1,0,0,0,.85-.25Z"/><path class="cls-33" d="M44.9,49.65h.61c.18.29.3.61.46.92s.29.6.43.89c.07,0,.09,0,.11-.07.23-.48.47-1,.71-1.45l.14-.27a2,2,0,0,1,.6,0,.2.2,0,0,1,0,.11c-.38.77-.77,1.54-1.16,2.31a.42.42,0,0,1-.06.08,2.09,2.09,0,0,1-.56,0C46,52,45.24,50.46,45,49.81A1,1,0,0,1,44.9,49.65Z"/><path class="cls-33" d="M47.62,54.39H49.1a.81.81,0,0,1,.79.85.61.61,0,0,1,0,.19.89.89,0,0,1-.74.83H47.68l-.09,0s0-.07,0-.11c0-.54,0-1.09,0-1.64C47.58,54.47,47.6,54.45,47.62,54.39Zm.43,1.44.1,0h.7l.16,0a.51.51,0,0,0,.4-.53.52.52,0,0,0-.42-.52h-.78l-.15,0A2.8,2.8,0,0,0,48.05,55.83Z"/><path class="cls-33" d="M65.13,54.38a3.07,3.07,0,0,1,.42.07,1,1,0,0,1,.71,1.34,1,1,0,0,1-.68.64,1.68,1.68,0,0,1-.89,0,1.06,1.06,0,0,1-.6-1.56.93.93,0,0,1,.58-.41A3.69,3.69,0,0,1,65.13,54.38Zm0,.43a3,3,0,0,0-.34.06.52.52,0,0,0-.4.61.6.6,0,0,0,.35.5.92.92,0,0,0,.76,0,.59.59,0,0,0,.35-.58.55.55,0,0,0-.4-.54Z"/><path class="cls-33" d="M45.7,54.81a.57.57,0,0,1-.29,0,.17.17,0,0,1-.12,0,.42.42,0,0,0-.31-.12h-.45a.29.29,0,0,0-.24.11.14.14,0,0,0,0,.23.71.71,0,0,0,.24.06l.58,0,.33.07a.44.44,0,0,1,.3.34.57.57,0,0,1-.36.72l-.08,0a2,2,0,0,1-1.15,0,.72.72,0,0,1-.24-.14.38.38,0,0,1-.18-.36.63.63,0,0,1,.38,0,.28.28,0,0,1,.11.08.3.3,0,0,0,.21.13,1.47,1.47,0,0,0,.66,0,.38.38,0,0,0,.13-.06.19.19,0,0,0,.08-.19.17.17,0,0,0-.12-.14l-.25,0-.53,0a.77.77,0,0,1-.41-.16.52.52,0,0,1-.22-.51.5.5,0,0,1,.33-.44,1.41,1.41,0,0,1,.49-.09,1.85,1.85,0,0,1,.77.11.48.48,0,0,1,.32.39S45.71,54.78,45.7,54.81Z"/><path class="cls-33" d="M40,54.44l.14,0a.42.42,0,0,1,.4.14c.32.33.64.64,1,1l.21.2c.1,0,.09-.09.09-.14,0-.27,0-.54,0-.81v-.29a.45.45,0,0,1,.38,0,4.51,4.51,0,0,1,0,.9c0,.31,0,.61,0,.93a.54.54,0,0,1-.59-.13c-.33-.33-.67-.64-1-1a1,1,0,0,0-.15-.1c-.07.41,0,.8-.06,1.18a.55.55,0,0,1-.38,0,.79.79,0,0,1,0-.13V54.56A.6.6,0,0,1,40,54.44Z"/><path class="cls-33" d="M62.36,59.37c.13.22.31.36.42.56a.77.77,0,0,1-.44,0,.32.32,0,0,1-.12-.11c-.12-.13-.22-.27-.33-.41a.22.22,0,0,0-.19-.1h-.32c0,.06,0,.12,0,.17s0,.27,0,.42a.73.73,0,0,1-.39,0c0-.11,0-.2,0-.29,0-.46,0-.91,0-1.38l.17,0h1a2.2,2.2,0,0,1,.36,0,.38.38,0,0,1,.28.21.65.65,0,0,1,0,.62.49.49,0,0,1-.19.16Zm-1-.41c.32,0,.62,0,.91,0l.08,0a.16.16,0,0,0,.1-.15.15.15,0,0,0-.1-.15.51.51,0,0,0-.17,0h-.69l-.13,0Z"/><path class="cls-33" d="M59.84,54.48a.7.7,0,0,1,.38,0,5.83,5.83,0,0,1,.06.71,3.52,3.52,0,0,0,1.15,0c0-.05,0-.11,0-.18v-.52a.22.22,0,0,1,.42.06v1.68a.37.37,0,0,1,0,.09.55.55,0,0,1-.38,0c-.06-.22,0-.45,0-.66a4.08,4.08,0,0,0-1.16,0c-.08.21,0,.44-.07.66a.58.58,0,0,1-.39,0c0-.21,0-.42,0-.62s0-.43,0-.64A3,3,0,0,1,59.84,54.48Z"/><path class="cls-33" d="M40,59.86V58.24a1.62,1.62,0,0,1,.19,0l1.12,0a.58.58,0,0,1,.19,0,.64.64,0,0,1,.49.42,1,1,0,0,1,0,.73.71.71,0,0,1-.5.44,1.12,1.12,0,0,1-.31,0H40.07Zm.38-.39a3.45,3.45,0,0,0,.84,0l.08,0a.45.45,0,0,0,.32-.39.45.45,0,0,0-.43-.53H40.5a.44.44,0,0,0-.15.05c0,.2,0,.4,0,.59S40.34,59.37,40.34,59.47Z"/><path class="cls-33" d="M57.77,55l-.1.07-.22.09L57.29,55a.85.85,0,0,0-.94,0,.59.59,0,0,0,0,.94.75.75,0,0,0,.89,0c.08-.06.15-.14.24-.21l.17.09.16.12s0,.08-.06.11a1.27,1.27,0,0,1-1.65.22,1,1,0,0,1,0-1.62,1.24,1.24,0,0,1,1.25-.07A.91.91,0,0,1,57.77,55Z"/><path class="cls-33" d="M55,60a1.5,1.5,0,0,1-.58-.1.94.94,0,0,1-.52-.94.83.83,0,0,1,.67-.76,1.37,1.37,0,0,1,.75,0,.91.91,0,0,1,.65,1.13.86.86,0,0,1-.7.64Zm.6-.94a.49.49,0,0,0-.37-.5.88.88,0,0,0-.6,0,.49.49,0,0,0-.3.63.54.54,0,0,0,.35.37.84.84,0,0,0,.52,0A.53.53,0,0,0,55.55,59.05Z"/><path class="cls-33" d="M52.53,59.89a1.21,1.21,0,0,1-.46,0c-.11-.16-.22-.31-.32-.47s-.21-.28-.31-.43a1.27,1.27,0,0,0-.46.32s0,.1,0,.16a1.8,1.8,0,0,1,0,.39.88.88,0,0,1-.36,0,2.76,2.76,0,0,1,0-.57c0-.18,0-.37,0-.55s0-.37,0-.56a.7.7,0,0,1,.38,0c.08.2,0,.42.06.65a.74.74,0,0,0,.16-.1c.18-.13.36-.26.53-.4a.58.58,0,0,1,.48-.16,1.92,1.92,0,0,0,.24,0c0,.08,0,.1-.05.13l-.36.26a2,2,0,0,0-.18.15.91.91,0,0,0,.09.17c.16.25.33.49.5.74Z"/><path class="cls-33" d="M66.37,58.75a.41.41,0,0,1-.4-.06.31.31,0,0,0-.18-.07h-.45a.31.31,0,0,0-.13,0,.17.17,0,0,0-.11.15.15.15,0,0,0,.12.14l.19,0,.34,0L66,59c.37,0,.49.25.43.63a.43.43,0,0,1-.21.28,1.56,1.56,0,0,1-1.32,0c-.13-.09-.16-.14-.18-.36a.89.89,0,0,1,.33,0c.22.29.53.23.84.19l.1,0a.16.16,0,0,0,0-.29.72.72,0,0,0-.21-.05l-.45,0a.69.69,0,0,1-.36-.13.43.43,0,0,1-.21-.42.42.42,0,0,1,.29-.41,2.64,2.64,0,0,1,.49-.08,1.32,1.32,0,0,1,.62.11.4.4,0,0,1,.23.23A.61.61,0,0,1,66.37,58.75Z"/><path class="cls-33" d="M47.17,58.79c-.06.39,0,.73-.06,1.08a.5.5,0,0,1-.32,0,.41.41,0,0,1,0-.08V58.46a1.65,1.65,0,0,1,0-.21l.17,0a.33.33,0,0,1,.29.12l.9.88c0,.06.1.14.21.14a.53.53,0,0,0,0-.12v-.67c0-.1,0-.2,0-.31a.44.44,0,0,1,.32,0,5.31,5.31,0,0,1,0,.8c0,.27,0,.53,0,.81a.42.42,0,0,1-.49-.09c-.26-.26-.54-.51-.81-.77Z"/><path class="cls-33" d="M57.74,58.92a3.76,3.76,0,0,0,1,0c.08-.2,0-.42.06-.63a.46.46,0,0,1,.33,0,4.63,4.63,0,0,1,0,.83,7.51,7.51,0,0,1,0,.82.62.62,0,0,1-.33,0,.78.78,0,0,1,0-.3v-.29a.86.86,0,0,0-.21,0,4.63,4.63,0,0,0-.83,0c-.06.2,0,.4-.05.59a.65.65,0,0,1-.34,0,6,6,0,0,1,0-.84c0-.27,0-.54,0-.81a.43.43,0,0,1,.33,0c.07.07,0,.16.05.24A1.39,1.39,0,0,0,57.74,58.92Z"/><path class="cls-33" d="M51.46,54.43h.42a6,6,0,0,1,.34.67l.34.7s.08-.08.09-.11c.17-.33.33-.65.49-1a2.15,2.15,0,0,1,.14-.26.89.89,0,0,1,.43,0,.42.42,0,0,1,0,.12c-.29.58-.58,1.16-.88,1.74h-.42A15.55,15.55,0,0,1,51.46,54.43Z"/><path class="cls-33" d="M44.72,58.73l-.11-.1a.67.67,0,0,0-.65-.16.54.54,0,0,0-.43.54.57.57,0,0,0,.47.52.64.64,0,0,0,.53-.13l.19-.16a.64.64,0,0,1,.28.16c0,.08,0,.11-.07.15a1.1,1.1,0,0,1-1.38.18.86.86,0,0,1-.4-.84.77.77,0,0,1,.49-.69,1,1,0,0,1,1.34.36C44.94,58.67,44.82,58.68,44.72,58.73Z"/><path class="cls-33" d="M57,62.76l0,.39a.23.23,0,0,1-.24,0,4.15,4.15,0,0,1,0-1.19s0,0,.08,0c.31,0,.63,0,.94,0a.39.39,0,0,1,.29.61.38.38,0,0,1-.11.11l-.17.07c0,.17.21.25.25.4a.41.41,0,0,1-.3,0l-.22-.27C57.36,62.72,57.36,62.72,57,62.76Zm0-.3c.22,0,.42,0,.62,0a.14.14,0,0,0,.15-.13c0-.07-.06-.12-.16-.13h-.59A.2.2,0,0,0,57.06,62.46Z"/><path class="cls-33" d="M60.35,63.28l-.21,0a.68.68,0,0,1-.5-.94A.55.55,0,0,1,60,62a1,1,0,0,1,.71,0,.65.65,0,0,1,.44.72.63.63,0,0,1-.59.57Zm.5-.65a.38.38,0,0,0-.29-.41,1,1,0,0,0-.38,0,.39.39,0,0,0-.23.61.56.56,0,0,0,.77.08A.46.46,0,0,0,60.85,62.63Z"/><path class="cls-33" d="M45.78,63.1a4.3,4.3,0,0,1,0-1.15l.15,0h.75a.5.5,0,0,1,.55.51.57.57,0,0,1-.44.67l-.17,0h-.75Zm.26-.26a.7.7,0,0,0,.14,0h.38l.14,0a.34.34,0,0,0,.23-.37.33.33,0,0,0-.28-.3,1.79,1.79,0,0,0-.61,0A1.68,1.68,0,0,0,46,62.84Z"/><path class="cls-33" d="M61.42,66.17a3,3,0,0,1,0-1,6,6,0,0,1,.85,0c.2,0,.27.12.24.32a.43.43,0,0,1,0,.14.46.46,0,0,1,.09.36.26.26,0,0,1-.2.21h-.08A8.42,8.42,0,0,1,61.42,66.17ZM62,66l.23,0a.11.11,0,0,0,0-.08.24.24,0,0,0,0-.1l-.05,0h-.44c-.06,0-.09.06-.09.12a.1.1,0,0,0,.08.1Zm0-.43a.9.9,0,0,0,.22,0s.06,0,.06-.08a.07.07,0,0,0-.06-.1h-.44c-.06,0-.08,0-.07.1a.09.09,0,0,0,.07.1Z"/><path class="cls-33" d="M52.58,62.21a.23.23,0,0,1-.26,0,.65.65,0,0,0-.51,0l-.08,0a.31.31,0,0,0,0,.12.11.11,0,0,0,.07.08.61.61,0,0,0,.18,0l.28,0,.2,0a.28.28,0,0,1,.22.22.36.36,0,0,1-.1.39.41.41,0,0,1-.11.07,1.16,1.16,0,0,1-.82,0,.3.3,0,0,1-.22-.3.32.32,0,0,1,.31.05.62.62,0,0,0,.59,0,.13.13,0,0,0,.08-.13.12.12,0,0,0-.1-.12,1.84,1.84,0,0,0-.33,0,.61.61,0,0,1-.37-.1.32.32,0,0,1-.16-.35.29.29,0,0,1,.2-.25,1.08,1.08,0,0,1,.81,0A.22.22,0,0,1,52.58,62.21Z"/><path class="cls-33" d="M48.73,61.91H49L49,62c0,.13,0,.25,0,.41a.6.6,0,0,0,.14-.07l.38-.29c.18-.14.21-.14.5-.07-.11.14-.29.2-.4.35a2.22,2.22,0,0,0,.25.42,2.75,2.75,0,0,1,.26.42l-.29,0c-.19-.2-.3-.46-.49-.66a.9.9,0,0,0-.36.25l0,.38-.22,0s0-.06,0-.08C48.72,62.69,48.73,62.31,48.73,61.91Z"/><path class="cls-33" d="M63.79,63.22a.28.28,0,0,1-.33-.06c-.18-.19-.37-.37-.56-.55l-.16-.13a.09.09,0,0,0-.08.11c0,.11,0,.21,0,.31s0,.2,0,.32h-.22a5,5,0,0,1,0-1.16.25.25,0,0,1,.34.06l.58.57.2.18c0-.06,0-.09,0-.13s0-.28,0-.42,0-.17,0-.24a.15.15,0,0,1,.19,0A5,5,0,0,1,63.79,63.22Z"/><path class="cls-33" d="M41.27,63.09H41l0-.39c-.13-.08-.26,0-.39,0a1,1,0,0,0-.35,0c-.09.13,0,.29-.08.41l-.08,0a.21.21,0,0,1-.11,0,4.51,4.51,0,0,1,0-1.17h.22l0,.44a1.61,1.61,0,0,0,.74,0c.09-.12,0-.28.06-.42s.13-.06.21,0a1.82,1.82,0,0,1,0,.57C41.29,62.67,41.28,62.87,41.27,63.09Z"/><path class="cls-33" d="M66,65.18h.76l.17,0a.29.29,0,0,1,.2.24.31.31,0,0,1-.19.38l-.08.06.22.33a.28.28,0,0,1-.35-.1,1.47,1.47,0,0,1-.1-.13.3.3,0,0,0-.4-.12l0,.35H66A3.87,3.87,0,0,1,66,65.18Zm.21.21,0,.22c.18,0,.35,0,.51,0a.15.15,0,0,0,.1,0,.12.12,0,0,0,0-.09s0-.06-.06-.09l0,0A2.85,2.85,0,0,0,66.19,65.39Z"/><path class="cls-33" d="M43.86,61.91h.23a.7.7,0,0,1,0,.14c0,.2,0,.41,0,.61a.46.46,0,0,1-.48.5,2.54,2.54,0,0,1-.39,0c-.28,0-.4-.16-.41-.44s0-.49,0-.73a.92.92,0,0,1,0-.09H43a.15.15,0,0,1,0,.06c0,.17,0,.34,0,.5a2.26,2.26,0,0,0,0,.26.21.21,0,0,0,.22.21,1.29,1.29,0,0,0,.28,0,.28.28,0,0,0,.26-.28,1.21,1.21,0,0,0,0-.19C43.86,62.29,43.86,62.11,43.86,61.91Z"/><path class="cls-33" d="M55.23,62.75l.17.12s0,.05,0,.06a.82.82,0,0,1-1,.21.6.6,0,0,1-.35-.58.58.58,0,0,1,.34-.57.78.78,0,0,1,1,.25l-.16.12-.11-.08a.51.51,0,0,0-.53-.09.35.35,0,0,0-.26.32.39.39,0,0,0,.2.4.45.45,0,0,0,.5,0A2.08,2.08,0,0,0,55.23,62.75Z"/><path class="cls-33" d="M59,65.13a4.23,4.23,0,0,1,.8,0,.45.45,0,0,1,.45.45.51.51,0,0,1-.35.54l-.11,0H59a1.49,1.49,0,0,1,0-.51A1.88,1.88,0,0,1,59,65.13Zm.22.79a1.21,1.21,0,0,0,.57,0,.27.27,0,0,0,.2-.3.3.3,0,0,0-.23-.28,1.46,1.46,0,0,0-.55,0A1.82,1.82,0,0,0,59.24,65.92Z"/><path class="cls-33" d="M50.33,65.29c-.26-.06-.48,0-.69-.06v-.14a3.5,3.5,0,0,1,1.13,0c0,.1,0,.17-.08.24l-.43.35-.14.14a.33.33,0,0,0,.27.07.63.63,0,0,1,.38,0v.14a4.13,4.13,0,0,1-1.11,0,.17.17,0,0,1,.05-.24l.47-.37S50.25,65.37,50.33,65.29Z"/><path class="cls-33" d="M40.53,66.06l-.26,0a.58.58,0,0,1-.42-.66.46.46,0,0,1,.29-.38.79.79,0,0,1,.67,0,.59.59,0,0,1,.35.53.54.54,0,0,1-.37.5Zm0-1-.2,0a.31.31,0,0,0-.22.29.32.32,0,0,0,.16.33.5.5,0,0,0,.5,0,.37.37,0,0,0,.16-.39.33.33,0,0,0-.27-.25Z"/><path class="cls-33" d="M54.34,66.1c0-.35,0-.67,0-1,.07-.07.14-.06.23,0l0,.36a.91.91,0,0,0,.14-.07l.26-.2a.39.39,0,0,1,.41-.11c0,.06,0,.08-.05.11l-.24.19a6.77,6.77,0,0,0,.41.7.28.28,0,0,1-.24,0,6.59,6.59,0,0,0-.42-.54.54.54,0,0,0-.26.2,1.09,1.09,0,0,0-.06.34Z"/><path class="cls-33" d="M63.72,65.94A.21.21,0,0,1,64,66a.5.5,0,0,0,.5,0s.07-.06.09-.1,0-.11-.09-.12l-.28,0a.89.89,0,0,1-.32-.08.28.28,0,0,1-.15-.28.27.27,0,0,1,.19-.25,1,1,0,0,1,.68,0c.08,0,.15.08.14.19a.18.18,0,0,1-.21,0,.55.55,0,0,0-.4-.05.2.2,0,0,0-.11,0,.15.15,0,0,0,0,.09.07.07,0,0,0,0,.07l.22.06.35,0a.24.24,0,0,1,.22.22.3.3,0,0,1-.13.32.67.67,0,0,1-.15.06,1.14,1.14,0,0,1-.55,0,.29.29,0,0,1-.22-.15A.35.35,0,0,1,63.72,65.94Z"/><path class="cls-33" d="M65.43,62.05h.27c.18.27.28.59.45.84l0,0,0,0,0,0c.13-.25.26-.51.38-.76a.23.23,0,0,1,.25,0,9,9,0,0,1-.56,1.15.38.38,0,0,1-.28,0C65.83,62.86,65.63,62.48,65.43,62.05Z"/><path class="cls-33" d="M46,66.05h-.17l0-.34a1.63,1.63,0,0,0-.62,0c-.09.11,0,.25-.08.37H44.9a3.41,3.41,0,0,1,0-1h.17l0,.4a1.58,1.58,0,0,0,.65,0l0-.37.15,0A2.69,2.69,0,0,1,46,66.05Z"/><path class="cls-33" d="M43,65a4.75,4.75,0,0,1,.5,1c-.19.1-.22-.1-.34-.19h-.51c-.24.26-.2.26-.37.18l0-.1c.14-.25.28-.5.4-.76A.22.22,0,0,1,43,65Zm-.1.28a.34.34,0,0,0-.13.28.28.28,0,0,0,.28,0A.43.43,0,0,0,42.88,65.3Z"/><path class="cls-33" d="M53.09,65.29l-.1.08h-.07a.56.56,0,0,0-.35-.15.36.36,0,0,0-.38.38.37.37,0,0,0,.46.32,2.38,2.38,0,0,0,.32-.16l.13.09a.35.35,0,0,1-.17.19.71.71,0,0,1-.69,0,.52.52,0,0,1-.28-.53.47.47,0,0,1,.34-.46.66.66,0,0,1,.46,0A.51.51,0,0,1,53.09,65.29Z"/><path class="cls-33" d="M62.62,68.4c-.07,0-.08.06-.1.1s-.07.17-.12.25a.2.2,0,0,1-.1.08c-.06,0-.1,0-.13-.09l-.08-.18a1.83,1.83,0,0,1-.1-.2,1.14,1.14,0,0,0-.06.15c0,.08,0,.16,0,.24s0,.06-.08.06a.09.09,0,0,1-.07-.06,4.45,4.45,0,0,1,0-.73h.16a.14.14,0,0,1,.15.09c.06.14.12.27.2.43,0,0,.08-.07.1-.11s.12-.25.18-.39h.24a1.72,1.72,0,0,1,0,.79c-.13,0-.13,0-.14-.07A1.34,1.34,0,0,0,62.62,68.4Z"/><path class="cls-33" d="M46.2,68.41l.15.24a.17.17,0,0,1-.21,0L46,68.45a.21.21,0,0,0-.28-.06l0,.25c-.08,0-.15,0-.16,0a4.24,4.24,0,0,1,0-.71l.17,0h.47a.26.26,0,0,1,.13.49ZM46,68l-.21,0s0,0,0,.09,0,.06,0,.06a.82.82,0,0,0,.44,0s0-.05,0-.08a.08.08,0,0,0-.07-.07A1.08,1.08,0,0,0,46,68Z"/><path class="cls-33" d="M47.67,68.69a4.82,4.82,0,0,1,0-.76.53.53,0,0,1,.16,0h.53a.18.18,0,0,1,.18.23.33.33,0,0,0,0,.24.29.29,0,0,1,0,.16.15.15,0,0,1-.13.15l-.09,0Zm.43-.34a.47.47,0,0,0-.17,0s-.06,0-.06.08,0,.08.05.08a2.41,2.41,0,0,0,.38,0s.05-.06.05-.09a.16.16,0,0,0-.07-.07A.58.58,0,0,0,48.1,68.35Zm0-.13.16,0a.15.15,0,0,0,0-.06s0-.06,0-.06a.52.52,0,0,0-.35,0,.11.11,0,0,0,0,.08s0,.06.07.07Z"/><path class="cls-33" d="M47.2,65.08c.16-.06.19-.06.25.06l.24.5.11.15.15-.3c.06-.11.12-.23.17-.34a.17.17,0,0,1,.24-.09,3.1,3.1,0,0,1-.46,1h-.21A6,6,0,0,1,47.2,65.08Z"/><path class="cls-33" d="M52.88,68.35a.41.41,0,0,1-.29.39.64.64,0,0,1-.41,0,.45.45,0,0,1-.32-.47.4.4,0,0,1,.37-.38.92.92,0,0,1,.33,0A.43.43,0,0,1,52.88,68.35Zm-.49.26h0a.3.3,0,0,0,.26-.29.26.26,0,0,0-.26-.27.53.53,0,0,0-.22,0,.25.25,0,0,0-.17.31A.3.3,0,0,0,52.39,68.61Z"/><path class="cls-33" d="M66.67,68.25a1,1,0,0,1-.19,0,.6.6,0,0,0-.3,0c-.06,0-.13,0-.15.1s0,.09.13.11l.2,0,.16,0a.23.23,0,0,1,.09.39.62.62,0,0,1-.74,0,.08.08,0,0,1,0-.07.08.08,0,0,1,.07,0l.1,0a.44.44,0,0,0,.37,0h0s.06,0,.06-.08,0-.09-.07-.1a1,1,0,0,0-.25,0,.48.48,0,0,1-.23-.07.23.23,0,0,1,0-.39.68.68,0,0,1,.59,0S66.61,68.16,66.67,68.25Z"/><path class="cls-33" d="M56.86,66.13a4.09,4.09,0,0,1,0-1H57c0,.27,0,.54,0,.78s.15.07.22.08h.39s.07,0,.07.1,0,.09-.07.09h-.61Z"/><path class="cls-33" d="M64.06,68a5,5,0,0,1,.67,0,.24.24,0,0,1,.23.29.2.2,0,0,1-.2.19h-.47l-.06,0a1.77,1.77,0,0,1,0,.2c0,.06,0,.06-.12.06A1.92,1.92,0,0,1,64.06,68Zm.43.14a1.25,1.25,0,0,0-.21,0,.12.12,0,0,0-.06.08s0,.08,0,.08a.93.93,0,0,0,.44,0s.05,0,0-.06,0-.08,0-.09Z"/><path class="cls-33" d="M56.44,70.37c0,.12,0,.2,0,.28s0,0-.12,0a3,3,0,0,1,0-.6c.19,0,.21,0,.26.07s.1.18.14.27l0,0s0,0,.06-.07l.1-.2c.06-.12.07-.13.26-.09a2.18,2.18,0,0,1,0,.57s0,.06-.05,0-.07,0-.07-.06a1.06,1.06,0,0,1,0-.25c-.09,0-.09,0-.12.1s0,.22-.18.21-.11-.13-.15-.21A1.37,1.37,0,0,0,56.44,70.37Z"/><path class="cls-33" d="M40.88,68.61a.16.16,0,0,1-.21,0l-.37-.35-.14-.09c-.09.16,0,.33-.08.47s-.11,0-.11,0a4,4,0,0,1,0-.69.19.19,0,0,1,.24.05l.35.36.12.09c.07,0,.06-.08.07-.13s0-.22,0-.33.07,0,.13-.07A3.83,3.83,0,0,1,40.88,68.61Z"/><path class="cls-33" d="M44.46,68.64a.76.76,0,0,1-.47,0,.41.41,0,0,1-.34-.46.45.45,0,0,1,.79-.21.08.08,0,0,1,0,.08.08.08,0,0,1-.08,0L44.2,68a.27.27,0,0,0-.36.29.21.21,0,0,0,.17.19h.19a.11.11,0,0,0,.09,0c0-.06,0-.07-.07-.09l-.08,0a.27.27,0,0,1,.32,0A.44.44,0,0,1,44.46,68.64Z"/><path class="cls-33" d="M58,68.26a.45.45,0,0,0,.14-.06c.08,0,.16-.12.24-.18a.26.26,0,0,1,.28,0l-.24.21c0,.21.24.35.31.56a.16.16,0,0,1-.22,0l-.26-.37c-.17.06-.28.14-.28.32,0,0,0,0,0,0s-.05,0-.08,0,0,0-.06,0a0,0,0,0,1,0,0,4.33,4.33,0,0,1,0-.72h.14Z"/><path class="cls-33" d="M50.45,68.43a1.11,1.11,0,0,0-.48,0,1.43,1.43,0,0,1,0,.22c0,.06-.06.08-.12.06a2,2,0,0,1,0-.77c.06,0,.11,0,.13.06s0,.15,0,.22a.92.92,0,0,0,.46,0c.1-.08,0-.18.09-.26a.08.08,0,0,1,.05,0,.15.15,0,0,1,.09,0,1.62,1.62,0,0,1,0,.22c0,.14,0,.28,0,.42s0,.09-.08.09-.07,0-.08-.09A1.62,1.62,0,0,0,50.45,68.43Z"/><path class="cls-33" d="M54.69,68c-.22.09-.43,0-.63.06,0,.14,0,.17.07.17l.39,0s.09,0,.08.1-.16,0-.24,0h-.22c-.08,0-.11,0-.11.1s.06.09.12.09h.33l.22,0c-.05,0-.07.09-.09.09a3.57,3.57,0,0,1-.73,0,3.08,3.08,0,0,1,0-.74,1.47,1.47,0,0,1,.62,0A.22.22,0,0,1,54.69,68Z"/><path class="cls-33" d="M58,70.73a1.78,1.78,0,0,1,0-.61,1.22,1.22,0,0,1,.6,0s.1.08.09.12a1.16,1.16,0,0,0,0,.32c0,.12,0,.19-.18.2A3.33,3.33,0,0,1,58,70.73Zm.34-.09a.9.9,0,0,0,.16,0s0,0,0-.06,0-.06,0-.06h-.3s0,0,0,.06,0,.06,0,.06Zm.2-.34a.3.3,0,0,0-.36-.07.08.08,0,0,0,0,0s0,0,0,0A.36.36,0,0,0,58.55,70.3Z"/><path class="cls-33" d="M60.64,68.21c-.08,0-.13,0-.16,0a.41.41,0,0,0-.26-.09.28.28,0,0,0-.29.17.26.26,0,0,0,.06.28.28.28,0,0,0,.33.09,1.58,1.58,0,0,0,.23-.11l.08.07a.34.34,0,0,1-.23.18.53.53,0,0,1-.33,0,.42.42,0,0,1-.32-.49.35.35,0,0,1,.15-.26.49.49,0,0,1,.39-.09A.4.4,0,0,1,60.64,68.21Z"/><path class="cls-33" d="M56.62,68.73c-.06.06-.12,0-.15,0-.13-.21-.32-.14-.5-.13s-.09.08-.14.12-.09.06-.15,0A6.24,6.24,0,0,1,56,68a.13.13,0,0,1,.23,0A5.15,5.15,0,0,1,56.62,68.73Zm-.35-.31c-.08-.2-.08-.2-.14-.21a.18.18,0,0,0-.07.21Z"/><path class="cls-33" d="M62.17,70.79a2.26,2.26,0,0,1,0-.64,1.36,1.36,0,0,1,.53,0,.25.25,0,0,1,.26.21.35.35,0,0,1-.15.39.38.38,0,0,1-.15.05Zm.14-.17a.72.72,0,0,0,.35,0,.18.18,0,0,0,.16-.19.19.19,0,0,0-.14-.21.53.53,0,0,0-.37,0Z"/><path class="cls-33" d="M53.78,70.49l.09.17a.09.09,0,0,1-.15,0l-.12-.14a.17.17,0,0,0-.22,0,1.54,1.54,0,0,1-.05.17s-.06,0-.12,0,0-.11,0-.16v-.42a1.06,1.06,0,0,1,.61,0,.2.2,0,0,1,.1.31S53.83,70.44,53.78,70.49Zm-.43-.21a.69.69,0,0,0,.4,0,.1.1,0,0,0,0-.07s0-.06,0-.06h-.33S53.38,70.23,53.35,70.28Z"/><path class="cls-33" d="M66.42,70.14a.44.44,0,0,1,.15,0,.35.35,0,0,1,.26.35.34.34,0,0,1-.29.33.61.61,0,0,1-.3,0,.35.35,0,0,1-.24-.39.34.34,0,0,1,.32-.3Zm0,.6c.19,0,.29-.09.3-.23a.24.24,0,0,0-.24-.25.33.33,0,0,0-.17,0,.2.2,0,0,0-.14.15.24.24,0,0,0,.1.25Z"/><path class="cls-33" d="M41.88,67.9c.09-.06.14,0,.17,0a2.53,2.53,0,0,1,.12.23c0,.09.09.18.15.29,0-.07.1-.12.13-.17l.18-.35s0,0,.14,0a.08.08,0,0,1,0,0c-.1.2-.2.42-.31.62a.15.15,0,0,1-.28,0C42.09,68.34,42,68.13,41.88,67.9Z"/><path class="cls-33" d="M47.17,70.23a3.39,3.39,0,0,1,0,.35s0,0-.06,0l0,0a1.27,1.27,0,0,1,0-.61c.24.08.34.33.55.44.1-.12,0-.28.09-.39l0,0a1.14,1.14,0,0,1,0,.58C47.5,70.6,47.42,70.32,47.17,70.23Z"/><path class="cls-33" d="M42,70l-.17.19.25.41c-.15,0-.18-.06-.23-.12l-.15-.19a.27.27,0,0,0-.23.26q0,.09-.12,0a1.42,1.42,0,0,1,0-.58l.07,0,.06.2s0,0,0,0l.26-.17A.14.14,0,0,1,42,70Z"/><path class="cls-33" d="M46.75,72.31l-.19.3s-.08-.06-.1-.1a2,2,0,0,1-.12-.22l-.07.27c-.07,0-.08,0-.08-.07s0-.24,0-.36.05-.06.07-.07a.12.12,0,0,1,.1,0,.71.71,0,0,1,.08.15l.09.14c.11-.08.12-.19.18-.26a.15.15,0,0,1,.09-.06s.05,0,.08,0a1.11,1.11,0,0,1,0,.48c-.06,0-.08,0-.09,0S46.77,72.4,46.75,72.31Z"/><path class="cls-33" d="M61.35,70.19l-.15,0-.28,0s0,.06-.09.12l.46.06c0,.06,0,.08,0,.08H61a.12.12,0,0,0-.13.08s0,.08.12.09h.28a.59.59,0,0,1,.14,0,1.82,1.82,0,0,1-.65,0,1.34,1.34,0,0,1,0-.63A1,1,0,0,1,61.35,70.19Z"/><path class="cls-33" d="M49.27,70.26v.17a.19.19,0,0,1,0,.08c0,.14-.16.2-.39.19s-.29-.07-.3-.22a2.77,2.77,0,0,1,0-.41s0,0,.06,0l.06.06c0,.11,0,.22,0,.33s.06.18.19.19.22,0,.24-.18a2.44,2.44,0,0,0,0-.27l0-.11h0l0,0a1.55,1.55,0,0,1,0,.21Z"/><path class="cls-33" d="M43.33,70.39c.12-.12,0-.28.12-.41,0,0,0,.06,0,.08,0,.17,0,.33,0,.52-.07,0-.14,0-.17,0s-.18-.17-.27-.25l-.14-.11c-.13.11,0,.27-.12.37s0,0,0,0a1.42,1.42,0,0,1,0-.58.38.38,0,0,1,.15,0c.07.06.14.14.21.21Z"/><path class="cls-33" d="M40.06,70.34l-.05.12,0,.11s-.07,0-.07,0a3.49,3.49,0,0,1,0-.56,1.32,1.32,0,0,1,.59,0,.21.21,0,0,1,.11.32l-.1,0H40.3Zm.21-.13.16,0s0,0,0-.06a.08.08,0,0,0,0-.05.5.5,0,0,0-.38,0,.15.15,0,0,0,0,.07s0,.06,0,.06Z"/><path class="cls-33" d="M51.67,70.69a2.56,2.56,0,0,1,.31-.62c0-.06.12,0,.16,0a3.74,3.74,0,0,1,.29.56s-.09,0-.11,0a.27.27,0,0,0-.26-.12.31.31,0,0,0-.27.11S51.75,70.66,51.67,70.69Zm.36-.46L52,70.4c.08,0,.14,0,.16,0S52.13,70.25,52,70.23Z"/><path class="cls-33" d="M64.24,70.31l-.12,0a.75.75,0,0,0-.16,0,.24.24,0,0,0-.24.11.23.23,0,0,0,0,.24.26.26,0,0,0,.27.11c.06,0,.11-.06.17-.08a.11.11,0,0,1,.07,0s0,0,0,0a.4.4,0,0,1-.65-.1.34.34,0,0,1,.24-.47.42.42,0,0,1,.27,0A.18.18,0,0,1,64.24,70.31Z"/><path class="cls-33" d="M55.13,70.53c-.12,0-.13.22-.3.14l.15-.29-.14-.3c.18-.06.18.12.27.16s.12-.21.28-.14l-.15.29.15.27a.09.09,0,0,1-.15,0Z"/><path class="cls-33" d="M47.72,72.08c.17,0,.12.2.21.26s.07-.14.12-.19.05-.06.08-.06.06,0,.08.06,0,.16.08.24.07-.24.2-.29a.78.78,0,0,1-.15.51.36.36,0,0,1-.1-.07,1.34,1.34,0,0,1-.09-.24c-.13.06-.09.23-.2.3s-.06,0-.07,0A1.66,1.66,0,0,1,47.72,72.08Z"/><path class="cls-33" d="M50.37,70.26a.68.68,0,0,0,.4,0l.06-.23s.06,0,.06,0a1.08,1.08,0,0,1,0,.59c-.14,0-.06-.15-.13-.22a1,1,0,0,0-.38,0l-.07.22s-.08,0-.08-.05a4.51,4.51,0,0,1,0-.52s0,0,.06,0,0,0,0,0A1.16,1.16,0,0,1,50.37,70.26Z"/><path class="cls-33" d="M45.11,72.38l-.12.2a.75.75,0,0,1,0-.52,1.14,1.14,0,0,1,.45,0,.16.16,0,0,1,0,.31Zm.34-.19c-.18-.07-.22-.07-.31,0a.15.15,0,0,0,0,.06s0,.06,0,.06h.25S45.41,72.23,45.45,72.19Z"/><path class="cls-33" d="M66.13,72.81a1.47,1.47,0,0,1,0-.51.78.78,0,0,1,.5,0,.24.24,0,0,1,.15.27.27.27,0,0,1-.23.25h-.41Zm.09-.44a.39.39,0,0,0,0,.34,1.23,1.23,0,0,0,.27,0,.16.16,0,0,0,.12-.16.17.17,0,0,0-.11-.17A.44.44,0,0,0,66.22,72.37Z"/><path class="cls-33" d="M51,72.08c.22,0,.36.15.33.35,0,0,0,0,0,.06a.36.36,0,0,1-.47.16.31.31,0,0,1-.16-.42A.34.34,0,0,1,51,72.08Zm0,.1c-.15,0-.25.07-.25.2a.22.22,0,0,0,.23.2.22.22,0,0,0,.23-.19A.19.19,0,0,0,51,72.18Z"/><path class="cls-33" d="M58.43,72.61l.27.06s.11,0,.13-.07,0-.09-.1-.1l-.14,0a.25.25,0,0,1-.11,0,.14.14,0,0,1,0-.25.4.4,0,0,1,.42.07l-.07,0a.37.37,0,0,0-.25,0s-.05,0-.05.06a.08.08,0,0,0,0,.06,2.61,2.61,0,0,1,.27.06.11.11,0,0,1,.1.11.47.47,0,0,1-.06.15s0,0,0,0a.41.41,0,0,1-.4,0S58.45,72.66,58.43,72.61Z"/><path class="cls-33" d="M60.12,72.56l0-.33c.09.13.1.17.06.5a.35.35,0,0,1-.12,0,1.54,1.54,0,0,1-.19-.17l-.17-.13-.08.32s0-.06,0-.08a2.53,2.53,0,0,1,0-.28s0-.12.06-.14.1,0,.14.07l.22.22A.38.38,0,0,0,60.12,72.56Z"/><path class="cls-33" d="M42.84,72.58a2.16,2.16,0,0,0-.16-.19c-.08-.06-.16,0-.22.07l-.05.06c-.06-.17-.06-.17,0-.46a.69.69,0,0,1,.4,0c.17,0,.22.14.13.28A.51.51,0,0,0,42.84,72.58Zm-.17-.31.14,0s0,0,0,0a.08.08,0,0,0,0,0,.3.3,0,0,0-.29,0s0,0,0,.06a.08.08,0,0,0,0,.06Z"/><path class="cls-33" d="M45,70l-.27.51c-.05.09-.16.1-.2,0s-.16-.33-.24-.5c0,0,0,0,0-.06s0,0,.05,0l.1.17.13.25c.18-.11.16-.36.35-.43Z"/><path class="cls-33" d="M56.32,72.68a.46.46,0,0,1-.32,0,.28.28,0,0,1-.23-.3.26.26,0,0,1,.28-.26.24.24,0,0,1,.26.14H56.2a.76.76,0,0,0-.16,0,.18.18,0,0,0,0,.34,1.33,1.33,0,0,0,.2,0l0-.14c.15,0,.16,0,.16.1A.26.26,0,0,1,56.32,72.68Z"/><path class="cls-33" d="M46,70.61c-.07-.15,0-.31-.06-.48l-.17-.08s0-.06,0-.06h.52c0,.13-.12.07-.18.18s0,.22,0,.36S46.09,70.63,46,70.61Z"/><path class="cls-33" d="M52.42,72.41l-.34,0-.08.18s0,0,0,0a1,1,0,0,1,0-.45.72.72,0,0,1,.48,0c-.11.06-.23,0-.32,0a.06.06,0,0,0,0,.12h.25Z"/><path class="cls-33" d="M62.72,72.28a.74.74,0,0,1,0,.39.19.19,0,0,1-.11.12.43.43,0,0,1-.35,0,.2.2,0,0,1-.08-.1.7.7,0,0,1,0-.43s.05,0,.05.07a1.7,1.7,0,0,1,0,.22c0,.14.07.19.19.19s.19,0,.2-.18,0-.18,0-.27Z"/><path class="cls-33" d="M64.72,72.74v-.38a.33.33,0,0,1,0-.1l.13.17.29-.17,0,0a1,1,0,0,1-.07.15l.18.32c0,.06-.08,0-.11,0s-.12-.16-.18-.24a.22.22,0,0,0-.21.2S64.78,72.77,64.72,72.74Z"/><path class="cls-33" d="M54.81,72.49h-.25l-.12.21a.93.93,0,0,1,0-.57l.11.24h.29l.08-.18s0,0,0,0a1.19,1.19,0,0,1,0,.42C54.85,72.66,54.91,72.52,54.81,72.49Z"/><path class="cls-33" d="M60,70.32v.21a.23.23,0,0,1-.12.18.32.32,0,0,1-.34,0,.07.07,0,0,1,0-.11.13.13,0,0,1,.09,0c.26.06.26,0,.27-.2v0c0-.08-.06-.2.08-.24S59.94,70.26,60,70.32Z"/><path class="cls-33" d="M44,72a1.46,1.46,0,0,1,.28.5c-.09,0-.11-.07-.17-.07h-.22a.75.75,0,0,0-.17.1A1,1,0,0,1,44,72Zm.09.28L44,72.22l-.06.06s0,.06,0,.06Z"/><path class="cls-33" d="M53.68,72.55c0,.12-.12.13-.2.14a.32.32,0,0,1-.26-.07.3.3,0,0,1,0-.42.31.31,0,0,1,.26-.09.22.22,0,0,1,.2.14,1,1,0,0,0-.23,0,.19.19,0,0,0-.21.2.21.21,0,0,0,.23.19Z"/><path class="cls-33" d="M41.28,72.26l-.09-.21c.11,0,.12.08.21.1l.19-.14c0,.13-.08.18-.09.29l.1.21c-.12,0-.13-.1-.22-.1l-.2.15C41.16,72.42,41.26,72.37,41.28,72.26Z"/><path class="cls-33" d="M49.47,72.1l.11.1a.76.76,0,0,1,.09.09c.13,0,.13-.2.27-.18s0,.09,0,.13a.63.63,0,0,0-.15.32.06.06,0,0,1-.06,0s-.06,0-.06,0a.49.49,0,0,0-.14-.32.41.41,0,0,0-.07-.11Z"/><path class="cls-33" d="M65.17,70.78s-.11,0-.12,0a1.37,1.37,0,0,1,0-.57c.07,0,.12,0,.13.06A1.63,1.63,0,0,1,65.17,70.78Z"/><path class="cls-33" d="M57,72.24c.16.06.15.23.27.32.13-.07.12-.27.27-.34a1.39,1.39,0,0,1-.19.46.09.09,0,0,1-.15,0l-.15-.29A.88.88,0,0,1,57,72.24Z"/><path class="cls-33" d="M63.89,72.27l-.16.09c0,.13,0,.27-.07.4,0,0,0-.05,0-.07a1.23,1.23,0,0,1,0-.19.19.19,0,0,0-.14-.21c0-.06.06-.06.1-.06A.7.7,0,0,1,63.89,72.27Z"/><path class="cls-33" d="M61,72.25c.1.12,0,.27.08.4l.25.06v0a1.29,1.29,0,0,1-.34,0A.67.67,0,0,1,61,72.25Z"/><path class="cls-33" d="M40,72.38l.15,0a.11.11,0,0,0,.17-.11c0-.09,0-.18,0-.29l.08,0a2.72,2.72,0,0,1,0,.28.18.18,0,0,1-.22.19.32.32,0,0,1-.14,0S40,72.46,40,72.38Z"/><path class="cls-33" d="M68.36,26.41c.08-.08.17-.06.27,0l-.14.4Z"/><path class="cls-33" d="M68.49,30.88l0,.07v-.07Z"/><path class="cls-33" d="M68.23,30.89h0s0,0,0,0a0,0,0,0,1,0,0Z"/><path class="cls-33" d="M68.19,39.59s0,0,0,0h0l0,0Z"/><path class="cls-33" d="M38.16,39.6v0h0s0,0,0,0Z"/><polygon class="cls-33" points="38.23 38.78 38.21 38.78 38.22 38.77 38.23 38.78"/><polygon class="cls-33" points="68.43 39.91 68.42 39.92 68.42 39.9 68.43 39.91"/><polygon class="cls-33" points="38.02 30.72 38.03 30.73 38.01 30.73 38.02 30.72"/><g class="cls-34"><g class="cls-35"><rect class="cls-32" x="91.92" y="210.68" width="30.59" height="13.35"/></g></g><g class="cls-36"><g class="cls-37"><rect class="cls-38" x="118.2" y="47.85" width="25.87" height="31.89"/></g></g><g class="cls-39"><g class="cls-37"><rect class="cls-40" x="119.49" y="49.57" width="22.4" height="35.75"/></g></g><g class="cls-41"><g class="cls-37"><rect class="cls-42" x="112.17" y="48.28" width="27.72" height="31.25"/></g></g><g class="cls-43"><g class="cls-44"><rect class="cls-45" x="116.04" y="116.78" width="39.63" height="99.51"/></g></g><g class="cls-46"><g class="cls-44"><rect class="cls-47" x="92.69" y="116.78" width="50.92" height="99.51"/></g></g><g class="cls-48"><g class="cls-49"><rect class="cls-32" x="141.89" y="210.68" width="30.59" height="13.35"/></g></g><path class="cls-50" d="M95.65,107.1l7.63,1.11Q91,134.87,90.11,136.4c-1.33,2.31.24,6.33.85,8.45-3.09.9-2.11-3.88-6-2.69-3.56,1.09-6.51,3.55-10,.62-.44-.36-.81-1.54.58-2.22,3.44-1.72,8.49-4.85,9.28-6Q86.37,132.21,95.65,107.1Zm58.89,4.77,13,11a37.13,37.13,0,0,1,9.06,4.4c.55.58,1.19,1.71-1.24,1.36s-5-.63-5.4.18,1,1.91.25,3q-.77,1.06-6.05-6.09L151,119.15Z"/><g class="cls-51"><g class="cls-52"><rect class="cls-40" x="72.35" y="104.94" width="106.91" height="42.17"/></g></g><g class="cls-53"><g class="cls-54"><rect class="cls-55" x="119.11" y="77.79" width="53.1" height="44.61" transform="translate(33.25 236.48) rotate(-85)"/></g></g><g class="cls-56"><g class="cls-54"><rect class="cls-57" x="109.15" y="72.28" width="37.2" height="52.04"/></g></g><g class="cls-58"><g class="cls-54"><rect class="cls-59" x="82.79" y="71.32" width="57.9" height="97.41"/></g></g><ellipse class="cls-60" cx="386.94" cy="224.87" rx="22.66" ry="3.23"/><path class="cls-61" d="M387.45,211.57s-.58,10,4.68,12.29a.53.53,0,0,1-.09,1,20.56,20.56,0,0,1-10.7-.12.54.54,0,0,1-.15-.95c1.54-1.12,4.43-4.28,4.45-12.18"/><path class="cls-62" d="M411.37,175.71l-.15.15s-47.14-3-53.49-4.21c0,0,1.13-3.17,34.23-1.9,0,0,9.27.78,14.65-.84C411,167.6,414.39,172.51,411.37,175.71Z"/><path class="cls-61" d="M387.88,178.19v9.63a2.41,2.41,0,0,1-3.82-.64v-9.63S386.19,178.83,387.88,178.19Z"/><path class="cls-62" d="M398.29,176.92l-22.93-2.11s5.86,4.9,12.82,4.74c.53,0,1.07,0,1.62-.1Z"/><path class="cls-62" d="M415.49,175s-16.34-49-2.12-61.14c12.31-10.54,10.19,14.34,7.22,21.08S420.59,171.65,415.49,175Z"/><path class="cls-61" d="M420.37,157.1c-2.54-8.32,2.55-22.77,2.55-22.77s7.15-16.77.85-21.5c-7-5.27-12.53,3.16-12.53,3.16l-2.55,5.48s7.22-11.38,12.11-6.11c3.68,4-.43,17.71-.43,17.71s-5.09,14.33-3,24,.43,14.76-3,17.29-54.79-3.8-54.79-3.8c-2.12.42-2.55,1.27-2.55,1.27,3,2.11,45,6.74,53.09,5.9s8.68-3.93,10.19-6.32C420.37,171.44,423.35,166.8,420.37,157.1Z"/><path class="cls-62" d="M388.73,188.09V213s-1.7.84-5.09,0V186.83A17.35,17.35,0,0,0,388.73,188.09Z"/><g class="cls-63"><g class="cls-64"><rect class="cls-65" x="384.98" y="79.13" width="22.27" height="35.54"/></g></g><g class="cls-66"><g class="cls-64"><rect class="cls-67" x="386.69" y="79.13" width="14.13" height="23.12"/></g></g><g class="cls-68"><g class="cls-64"><rect class="cls-69" x="389.73" y="78.16" width="25" height="36.51"/></g></g><g class="cls-70"><g class="cls-64"><rect class="cls-71" x="395.68" y="81.7" width="15.81" height="27.84"/></g></g><g class="cls-74"><g class="cls-75"><rect class="cls-65" x="341.31" y="152.32" width="42.79" height="67.18"/></g></g><g class="cls-76"><g class="cls-75"><rect class="cls-77" x="354.65" y="150.85" width="21.41" height="52.17" transform="translate(-38.48 135.63) rotate(-20)"/></g></g><g class="cls-78"><g class="cls-79"><g class="cls-75"><rect class="cls-32" x="358.76" y="201.93" width="29.12" height="13.13" transform="translate(-54.23 214.59) rotate(-30)"/></g></g></g><g class="cls-80"><g class="cls-81"><rect class="cls-32" x="332.31" y="208.16" width="29.12" height="13.13"/></g></g><g class="cls-82"><g class="cls-75"><rect class="cls-83" x="340.12" y="145.93" width="77.4" height="60.31"/></g></g><g class="cls-84"><g class="cls-85"><rect class="cls-86" x="342.16" y="122.81" width="106.12" height="60.01"/></g></g><g class="cls-87"><g class="cls-85"><rect class="cls-88" x="351.2" y="104.96" width="51.99" height="46.48" transform="translate(-9.74 33.36) rotate(-5)"/></g></g><g class="cls-89"><g class="cls-85"><rect class="cls-55" x="380.27" y="100.97" width="57.63" height="67.23"/></g></g><g class="cls-90"><g class="cls-85"><rect class="cls-91" x="404.21" y="121.63" width="10.39" height="31.58"/></g></g></svg>