<svg id="Layer_1" data-name="Layer 1" xmlns="http://www.w3.org/2000/svg" xmlns:xlink="http://www.w3.org/1999/xlink" viewBox="0 0 500 250"><defs><style>.cls-1,.cls-115,.cls-2,.cls-4{fill:none;}.cls-2,.cls-3{clip-rule:evenodd;}.cls-142,.cls-3{fill:#f09e42;}.cls-142,.cls-4{fill-rule:evenodd;}.cls-5{fill:#dce1e6;}.cls-6{fill:#ebeded;}.cls-7{fill:#d3d3d3;}.cls-8{fill:#eaeaea;}.cls-9{fill:#759da7;}.cls-10{clip-path:url(#clip-path);}.cls-11{fill:#f1f1f1;}.cls-12{clip-path:url(#clip-path-2);}.cls-13{fill:#fff;}.cls-14{clip-path:url(#clip-path-3);}.cls-15{fill:#dde2e7;}.cls-16{clip-path:url(#clip-path-4);}.cls-17{clip-path:url(#clip-path-5);}.cls-18{clip-path:url(#clip-path-6);}.cls-19{fill:#c6ced4;}.cls-20{clip-path:url(#clip-path-7);}.cls-21{clip-path:url(#clip-path-8);}.cls-22{clip-path:url(#clip-path-9);}.cls-23{clip-path:url(#clip-path-10);}.cls-24{clip-path:url(#clip-path-11);}.cls-25{clip-path:url(#clip-path-12);}.cls-26{fill:#b0b8c3;}.cls-27{clip-path:url(#clip-path-13);}.cls-28{clip-path:url(#clip-path-14);}.cls-29{clip-path:url(#clip-path-15);}.cls-30{clip-path:url(#clip-path-16);}.cls-31{clip-path:url(#clip-path-17);}.cls-32{clip-path:url(#clip-path-18);}.cls-33{clip-path:url(#clip-path-19);}.cls-34{clip-path:url(#clip-path-20);}.cls-35{clip-path:url(#clip-path-21);}.cls-36{clip-path:url(#clip-path-22);}.cls-37{clip-path:url(#clip-path-23);}.cls-38{clip-path:url(#clip-path-24);}.cls-39{clip-path:url(#clip-path-25);}.cls-40{clip-path:url(#clip-path-26);}.cls-41{clip-path:url(#clip-path-27);}.cls-42{clip-path:url(#clip-path-28);}.cls-43{clip-path:url(#clip-path-29);}.cls-44{clip-path:url(#clip-path-30);}.cls-45{clip-path:url(#clip-path-31);}.cls-46{clip-path:url(#clip-path-32);}.cls-47{clip-path:url(#clip-path-33);}.cls-48{clip-path:url(#clip-path-34);}.cls-49{clip-path:url(#clip-path-35);}.cls-50{clip-path:url(#clip-path-36);}.cls-51{clip-path:url(#clip-path-37);}.cls-52{clip-path:url(#clip-path-38);}.cls-53{clip-path:url(#clip-path-39);}.cls-54{clip-path:url(#clip-path-40);}.cls-55{clip-path:url(#clip-path-41);}.cls-56{clip-path:url(#clip-path-42);}.cls-57{clip-path:url(#clip-path-43);}.cls-58{clip-path:url(#clip-path-44);}.cls-59{clip-path:url(#clip-path-45);}.cls-60{clip-path:url(#clip-path-46);}.cls-61{clip-path:url(#clip-path-47);}.cls-62{clip-path:url(#clip-path-48);}.cls-63{clip-path:url(#clip-path-49);}.cls-64{clip-path:url(#clip-path-50);}.cls-65{clip-path:url(#clip-path-51);}.cls-66{clip-path:url(#clip-path-52);}.cls-67{clip-path:url(#clip-path-53);}.cls-68{clip-path:url(#clip-path-54);}.cls-69{clip-path:url(#clip-path-55);}.cls-70{clip-path:url(#clip-path-56);}.cls-71{clip-path:url(#clip-path-57);}.cls-72{clip-path:url(#clip-path-58);}.cls-73{clip-path:url(#clip-path-59);}.cls-74{clip-path:url(#clip-path-60);}.cls-75{clip-path:url(#clip-path-61);}.cls-76{clip-path:url(#clip-path-62);}.cls-77{clip-path:url(#clip-path-63);}.cls-78{clip-path:url(#clip-path-64);}.cls-79{clip-path:url(#clip-path-65);}.cls-80{clip-path:url(#clip-path-66);}.cls-81{clip-path:url(#clip-path-67);}.cls-82{clip-path:url(#clip-path-68);}.cls-83{clip-path:url(#clip-path-69);}.cls-84{clip-path:url(#clip-path-70);}.cls-85{clip-path:url(#clip-path-71);}.cls-86{clip-path:url(#clip-path-72);}.cls-87{clip-path:url(#clip-path-73);}.cls-88{clip-path:url(#clip-path-74);}.cls-89{clip-path:url(#clip-path-75);}.cls-90{clip-path:url(#clip-path-76);}.cls-91{clip-path:url(#clip-path-77);}.cls-92{clip-path:url(#clip-path-78);}.cls-93{clip-path:url(#clip-path-79);}.cls-94{clip-path:url(#clip-path-80);}.cls-95{clip-path:url(#clip-path-81);}.cls-96{clip-path:url(#clip-path-82);}.cls-97{clip-path:url(#clip-path-83);}.cls-98{clip-path:url(#clip-path-84);}.cls-99{clip-path:url(#clip-path-85);}.cls-100{clip-path:url(#clip-path-86);}.cls-101{clip-path:url(#clip-path-87);}.cls-102{clip-path:url(#clip-path-88);}.cls-103{clip-path:url(#clip-path-89);}.cls-104{clip-path:url(#clip-path-90);}.cls-105{clip-path:url(#clip-path-91);}.cls-106{clip-path:url(#clip-path-92);}.cls-107{clip-path:url(#clip-path-93);}.cls-108{clip-path:url(#clip-path-94);}.cls-109{clip-path:url(#clip-path-95);}.cls-110{clip-path:url(#clip-path-96);}.cls-111{clip-path:url(#clip-path-99);}.cls-112{clip-path:url(#clip-path-100);}.cls-113{clip-path:url(#clip-path-101);}.cls-114{clip-path:url(#clip-path-102);}.cls-115{stroke:#a8a8a8;stroke-miterlimit:10;stroke-width:1.31px;}.cls-116{fill:#bcbcbc;}.cls-117{fill:#b5b4b4;}.cls-118{fill:#a3a3a3;}.cls-119{clip-path:url(#clip-path-103);}.cls-120{clip-path:url(#clip-path-104);}.cls-121{fill:#caa184;}.cls-122{clip-path:url(#clip-path-105);}.cls-123{clip-path:url(#clip-path-106);}.cls-124{clip-path:url(#clip-path-107);}.cls-125{clip-path:url(#clip-path-108);}.cls-126{clip-path:url(#clip-path-109);}.cls-127{fill:#b29bb6;}.cls-128{clip-path:url(#clip-path-111);}.cls-129{clip-path:url(#clip-path-113);}.cls-130{clip-path:url(#clip-path-114);}.cls-131{fill:#e2e2e2;}.cls-132{clip-path:url(#clip-path-116);}.cls-133{clip-path:url(#clip-path-117);}.cls-134{clip-path:url(#clip-path-118);}.cls-135{fill:#cbb5cd;}.cls-136{clip-path:url(#clip-path-120);}.cls-137{clip-path:url(#clip-path-121);}.cls-138{clip-path:url(#clip-path-122);}.cls-139{clip-path:url(#clip-path-124);}.cls-140{fill:#979ea2;}.cls-141{clip-path:url(#clip-path-126);}.cls-143{clip-path:url(#clip-path-128);}.cls-144{fill:#303030;}.cls-145{clip-path:url(#clip-path-129);}.cls-146{clip-path:url(#clip-path-130);}.cls-147{fill:#ab8b6c;}.cls-148{clip-path:url(#clip-path-131);}.cls-149{clip-path:url(#clip-path-133);}.cls-150{clip-path:url(#clip-path-134);}.cls-151{clip-path:url(#clip-path-135);}.cls-152{fill:#85b2b6;}.cls-153{clip-path:url(#clip-path-137);}.cls-154{clip-path:url(#clip-path-139);}.cls-155{clip-path:url(#clip-path-140);}.cls-156{fill:#e3e3e3;}.cls-157{clip-path:url(#clip-path-142);}.cls-158{clip-path:url(#clip-path-143);}.cls-159{clip-path:url(#clip-path-144);}.cls-160{fill:#93c1c8;}.cls-161{clip-path:url(#clip-path-146);}.cls-162{clip-path:url(#clip-path-147);}.cls-163{clip-path:url(#clip-path-148);}.cls-164{clip-path:url(#clip-path-150);}.cls-165{opacity:0.2;}</style><clipPath id="clip-path"><rect class="cls-1" x="251.3" y="21" width="52.29" height="54" rx="1.25"/></clipPath><clipPath id="clip-path-2"><rect class="cls-1" x="290.16" y="27.71" width="10.93" height="12.64" rx="1.25"/></clipPath><clipPath id="clip-path-3"><circle class="cls-1" cx="295.63" cy="32.55" r="2.5"/></clipPath><clipPath id="clip-path-4"><path class="cls-2" d="M292.19,35.67h6.87a.47.47,0,0,1,0,.94h-6.87a.47.47,0,0,1,0-.94Z"/></clipPath><clipPath id="clip-path-5"><path class="cls-2" d="M293.44,37.23h4.37a.47.47,0,0,1,0,.94h-4.37a.47.47,0,0,1,0-.94Z"/></clipPath><clipPath id="clip-path-6"><path class="cls-2" d="M252.55,21h49.79a1.25,1.25,0,0,1,1.25,1.25v3H251.3v-3A1.25,1.25,0,0,1,252.55,21Z"/></clipPath><clipPath id="clip-path-7"><circle class="cls-1" cx="253.33" cy="23.19" r="0.62"/></clipPath><clipPath id="clip-path-8"><circle class="cls-1" cx="255.2" cy="23.19" r="0.62"/></clipPath><clipPath id="clip-path-9"><circle class="cls-1" cx="257.08" cy="23.19" r="0.62"/></clipPath><clipPath id="clip-path-10"><rect class="cls-1" x="290.16" y="41.6" width="10.93" height="30.28" rx="1.25"/></clipPath><clipPath id="clip-path-11"><rect class="cls-1" x="292.97" y="44.41" width="5.31" height="4.06" rx="0.62"/></clipPath><clipPath id="clip-path-12"><rect class="cls-1" x="292.97" y="49.72" width="5.31" height="3.9" rx="0.62"/></clipPath><clipPath id="clip-path-13"><rect class="cls-1" x="292.97" y="54.87" width="5.31" height="3.9" rx="0.62"/></clipPath><clipPath id="clip-path-14"><rect class="cls-1" x="292.97" y="65.17" width="5.31" height="3.9" rx="0.62"/></clipPath><clipPath id="clip-path-15"><rect class="cls-1" x="292.97" y="60.02" width="5.31" height="3.9" rx="0.62"/></clipPath><clipPath id="clip-path-16"><rect class="cls-1" x="253.8" y="27.87" width="35.12" height="7.34" rx="0.62"/></clipPath><clipPath id="clip-path-17"><rect class="cls-1" x="255.2" y="30.07" width="26.06" height="1.1" rx="0.47"/></clipPath><clipPath id="clip-path-18"><rect class="cls-1" x="255.2" y="31.9" width="17.5" height="1.1" rx="0.47"/></clipPath><clipPath id="clip-path-19"><circle class="cls-1" cx="285.16" cy="31.54" r="1.09"/></clipPath><clipPath id="clip-path-20"><circle class="cls-1" cx="285.16" cy="31.54" r="0.47"/></clipPath><clipPath id="clip-path-21"><rect class="cls-1" x="253.8" y="36.45" width="35.12" height="6.09" rx="0.62"/></clipPath><clipPath id="clip-path-22"><path class="cls-2" d="M255.66,38.28h25.15a.46.46,0,1,1,0,.91H255.66a.46.46,0,1,1,0-.91Z"/></clipPath><clipPath id="clip-path-23"><path class="cls-2" d="M255.66,39.8h16.58a.46.46,0,1,1,0,.91H255.66a.46.46,0,1,1,0-.91Z"/></clipPath><clipPath id="clip-path-24"><circle class="cls-1" cx="285.16" cy="39.49" r="1.09"/></clipPath><clipPath id="clip-path-25"><circle class="cls-1" cx="285.16" cy="39.49" r="0.47"/></clipPath><clipPath id="clip-path-26"><rect class="cls-1" x="253.8" y="43.79" width="35.12" height="6.09" rx="0.62"/></clipPath><clipPath id="clip-path-27"><path class="cls-2" d="M255.66,45.61h25.15a.46.46,0,1,1,0,.92H255.66a.46.46,0,0,1,0-.92Z"/></clipPath><clipPath id="clip-path-28"><path class="cls-2" d="M255.66,47.13h16.58a.46.46,0,1,1,0,.92H255.66a.46.46,0,1,1,0-.92Z"/></clipPath><clipPath id="clip-path-29"><circle class="cls-1" cx="285.16" cy="46.83" r="1.09"/></clipPath><clipPath id="clip-path-30"><circle class="cls-1" cx="285.16" cy="46.83" r="0.47"/></clipPath><clipPath id="clip-path-31"><rect class="cls-1" x="253.8" y="65.79" width="35.12" height="6.09" rx="0.62"/></clipPath><clipPath id="clip-path-32"><path class="cls-2" d="M255.66,67.62h25.15a.46.46,0,1,1,0,.91H255.66a.46.46,0,1,1,0-.91Z"/></clipPath><clipPath id="clip-path-33"><path class="cls-2" d="M255.66,69.14h16.58a.46.46,0,0,1,.46.46.45.45,0,0,1-.46.45H255.66a.46.46,0,0,1-.46-.45A.47.47,0,0,1,255.66,69.14Z"/></clipPath><clipPath id="clip-path-34"><circle class="cls-1" cx="285.16" cy="68.84" r="1.09"/></clipPath><clipPath id="clip-path-35"><circle class="cls-1" cx="285.16" cy="68.84" r="0.47"/></clipPath><clipPath id="clip-path-36"><rect class="cls-1" x="253.8" y="58.46" width="35.12" height="6.09" rx="0.62"/></clipPath><clipPath id="clip-path-37"><path class="cls-2" d="M255.66,60.28h25.15a.46.46,0,1,1,0,.92H255.66a.46.46,0,0,1,0-.92Z"/></clipPath><clipPath id="clip-path-38"><path class="cls-2" d="M255.66,61.81h16.58a.45.45,0,0,1,.46.45.46.46,0,0,1-.46.46H255.66a.47.47,0,0,1-.46-.46A.46.46,0,0,1,255.66,61.81Z"/></clipPath><clipPath id="clip-path-39"><circle class="cls-1" cx="285.16" cy="61.5" r="1.09"/></clipPath><clipPath id="clip-path-40"><circle class="cls-1" cx="285.16" cy="61.5" r="0.47"/></clipPath><clipPath id="clip-path-41"><rect class="cls-1" x="253.8" y="51.12" width="35.12" height="6.09" rx="0.62"/></clipPath><clipPath id="clip-path-42"><path class="cls-2" d="M255.66,53h25.15a.46.46,0,1,1,0,.91H255.66a.46.46,0,1,1,0-.91Z"/></clipPath><clipPath id="clip-path-43"><path class="cls-2" d="M255.66,54.47h16.58a.46.46,0,1,1,0,.91H255.66a.46.46,0,1,1,0-.91Z"/></clipPath><clipPath id="clip-path-44"><circle class="cls-1" cx="285.16" cy="54.17" r="1.09"/></clipPath><clipPath id="clip-path-45"><circle class="cls-1" cx="285.16" cy="54.17" r="0.47"/></clipPath><clipPath id="clip-path-46"><rect class="cls-1" x="307.27" y="39.6" width="35.25" height="36.4" rx="0.84"/></clipPath><clipPath id="clip-path-47"><rect class="cls-1" x="333.47" y="44.12" width="7.37" height="8.52" rx="0.84"/></clipPath><clipPath id="clip-path-48"><circle class="cls-1" cx="337.15" cy="47.38" r="1.68"/></clipPath><clipPath id="clip-path-49"><path class="cls-2" d="M334.83,49.49h4.63a.32.32,0,1,1,0,.63h-4.63a.32.32,0,0,1,0-.63Z"/></clipPath><clipPath id="clip-path-50"><path class="cls-2" d="M335.67,50.54h2.95a.32.32,0,1,1,0,.63h-2.95a.32.32,0,0,1,0-.63Z"/></clipPath><clipPath id="clip-path-51"><path class="cls-2" d="M308.11,39.6h33.56a.83.83,0,0,1,.84.84v2H307.27v-2A.83.83,0,0,1,308.11,39.6Z"/></clipPath><clipPath id="clip-path-52"><circle class="cls-1" cx="308.63" cy="41.07" r="0.42"/></clipPath><clipPath id="clip-path-53"><circle class="cls-1" cx="309.9" cy="41.07" r="0.42"/></clipPath><clipPath id="clip-path-54"><circle class="cls-1" cx="311.16" cy="41.07" r="0.42"/></clipPath><clipPath id="clip-path-55"><rect class="cls-1" x="333.47" y="53.49" width="7.37" height="20.41" rx="0.84"/></clipPath><clipPath id="clip-path-56"><rect class="cls-1" x="335.36" y="55.38" width="3.58" height="2.74" rx="0.42"/></clipPath><clipPath id="clip-path-57"><rect class="cls-1" x="335.36" y="58.96" width="3.58" height="2.63" rx="0.42"/></clipPath><clipPath id="clip-path-58"><rect class="cls-1" x="335.36" y="62.43" width="3.58" height="2.63" rx="0.42"/></clipPath><clipPath id="clip-path-59"><rect class="cls-1" x="335.36" y="69.37" width="3.58" height="2.63" rx="0.42"/></clipPath><clipPath id="clip-path-60"><rect class="cls-1" x="335.36" y="65.9" width="3.58" height="2.63" rx="0.42"/></clipPath><clipPath id="clip-path-61"><rect class="cls-1" x="308.95" y="44.23" width="23.67" height="4.95" rx="0.42"/></clipPath><clipPath id="clip-path-62"><rect class="cls-1" x="309.9" y="45.71" width="17.57" height="0.74" rx="0.32"/></clipPath><clipPath id="clip-path-63"><rect class="cls-1" x="309.9" y="46.95" width="11.79" height="0.74" rx="0.32"/></clipPath><clipPath id="clip-path-64"><circle class="cls-1" cx="330.09" cy="46.7" r="0.74"/></clipPath><clipPath id="clip-path-65"><circle class="cls-1" cx="330.09" cy="46.7" r="0.32"/></clipPath><clipPath id="clip-path-66"><rect class="cls-1" x="308.95" y="50.01" width="23.67" height="4.1" rx="0.42"/></clipPath><clipPath id="clip-path-67"><path class="cls-2" d="M310.2,51.24h17a.31.31,0,1,1,0,.62h-17a.31.31,0,0,1,0-.62Z"/></clipPath><clipPath id="clip-path-68"><path class="cls-2" d="M310.2,52.27h11.18a.31.31,0,1,1,0,.62H310.2a.31.31,0,0,1,0-.62Z"/></clipPath><clipPath id="clip-path-69"><circle class="cls-1" cx="330.09" cy="52.07" r="0.74"/></clipPath><clipPath id="clip-path-70"><circle class="cls-1" cx="330.09" cy="52.07" r="0.32"/></clipPath><clipPath id="clip-path-71"><rect class="cls-1" x="308.95" y="54.96" width="23.67" height="4.1" rx="0.42"/></clipPath><clipPath id="clip-path-72"><path class="cls-2" d="M310.2,56.19h17a.31.31,0,1,1,0,.62h-17a.31.31,0,0,1,0-.62Z"/></clipPath><clipPath id="clip-path-73"><path class="cls-2" d="M310.2,57.22h11.18a.3.3,0,0,1,.31.3.31.31,0,0,1-.31.31H310.2a.3.3,0,0,1-.3-.31A.29.29,0,0,1,310.2,57.22Z"/></clipPath><clipPath id="clip-path-74"><circle class="cls-1" cx="330.09" cy="57.01" r="0.74"/></clipPath><clipPath id="clip-path-75"><circle class="cls-1" cx="330.09" cy="57.01" r="0.32"/></clipPath><clipPath id="clip-path-76"><rect class="cls-1" x="308.95" y="69.79" width="23.67" height="4.1" rx="0.42"/></clipPath><clipPath id="clip-path-77"><path class="cls-2" d="M310.2,71h17a.3.3,0,0,1,.31.3.31.31,0,0,1-.31.31h-17a.3.3,0,0,1-.3-.31A.29.29,0,0,1,310.2,71Z"/></clipPath><clipPath id="clip-path-78"><path class="cls-2" d="M310.2,72.05h11.18a.31.31,0,0,1,0,.62H310.2a.31.31,0,0,1,0-.62Z"/></clipPath><clipPath id="clip-path-79"><circle class="cls-1" cx="330.09" cy="71.85" r="0.74"/></clipPath><clipPath id="clip-path-80"><circle class="cls-1" cx="330.09" cy="71.85" r="0.32"/></clipPath><clipPath id="clip-path-81"><rect class="cls-1" x="308.95" y="64.85" width="23.67" height="4.1" rx="0.42"/></clipPath><clipPath id="clip-path-82"><path class="cls-2" d="M310.2,66.08h17a.31.31,0,1,1,0,.62h-17a.31.31,0,0,1,0-.62Z"/></clipPath><clipPath id="clip-path-83"><path class="cls-2" d="M310.2,67.11h11.18a.3.3,0,0,1,.31.3.31.31,0,0,1-.31.31H310.2a.3.3,0,0,1-.3-.31A.29.29,0,0,1,310.2,67.11Z"/></clipPath><clipPath id="clip-path-84"><circle class="cls-1" cx="330.09" cy="66.9" r="0.74"/></clipPath><clipPath id="clip-path-85"><circle class="cls-1" cx="330.09" cy="66.9" r="0.32"/></clipPath><clipPath id="clip-path-86"><rect class="cls-1" x="308.95" y="59.9" width="23.67" height="4.1" rx="0.42"/></clipPath><clipPath id="clip-path-87"><path class="cls-2" d="M310.2,61.14h17a.3.3,0,0,1,.31.3.31.31,0,0,1-.31.31h-17a.3.3,0,0,1-.3-.31A.29.29,0,0,1,310.2,61.14Z"/></clipPath><clipPath id="clip-path-88"><path class="cls-2" d="M310.2,62.16h11.18a.31.31,0,0,1,0,.62H310.2a.31.31,0,0,1,0-.62Z"/></clipPath><clipPath id="clip-path-89"><circle class="cls-1" cx="330.09" cy="61.96" r="0.74"/></clipPath><clipPath id="clip-path-90"><circle class="cls-1" cx="330.09" cy="61.96" r="0.32"/></clipPath><clipPath id="clip-path-91"><path class="cls-2" d="M317.87,32.55h0"/></clipPath><clipPath id="clip-path-92"><path class="cls-2" d="M317.87,32.56h0"/></clipPath><clipPath id="clip-path-93"><path class="cls-2" d="M317.89,32.52v0h0c0,.12,0,0,0,0"/></clipPath><clipPath id="clip-path-94"><path class="cls-2" d="M317.88,32.55h0"/></clipPath><clipPath id="clip-path-95"><path class="cls-2" d="M317.87,32.56Z"/></clipPath><clipPath id="clip-path-96"><polyline class="cls-2" points="317.87 32.56 317.87 32.55 317.87 32.56"/></clipPath><clipPath id="clip-path-99"><rect class="cls-1" x="307.21" y="21" width="21.11" height="14" rx="0.89"/></clipPath><clipPath id="clip-path-100"><polygon class="cls-2" points="315.21 25 308.98 35 321.43 35 315.21 25"/></clipPath><clipPath id="clip-path-101"><polygon class="cls-2" points="321.32 27.67 315.87 35 326.76 35 321.32 27.67"/></clipPath><clipPath id="clip-path-102"><circle class="cls-1" cx="323.65" cy="25.67" r="2"/></clipPath><clipPath id="clip-path-103"><path class="cls-2" d="M149.07,109.49a10.23,10.23,0,0,1-2.72-7.36c.56-8.09,11.83-6.31,14-2.23s1.93,14.45-.9,15.18c-1.13.29-3.54-.42-6-1.9L155,124.06H146Z"/></clipPath><clipPath id="clip-path-104"><rect class="cls-1" x="99.42" y="82.08" width="77.54" height="41.98"/></clipPath><clipPath id="clip-path-105"><path class="cls-2" d="M155.2,95.2c-1.2-.2-4.42-.34-5-.34-.38,0-.79.09-1-.26a3.06,3.06,0,0,1-.17-1.1c-.06-.38-.16-.76-.25-1.14a11.74,11.74,0,0,0-1.2-3.07,9.48,9.48,0,0,0-4.47-4,14.42,14.42,0,0,0-6.79-.94,30.13,30.13,0,0,0-6.93,1.76,14.46,14.46,0,0,1-6.78.65c-2.31-.35-4-1.6-6-2.79A11.23,11.23,0,0,0,110,82.1a12.68,12.68,0,0,0-6,2.3,9.78,9.78,0,0,0-3.9,4.42,6,6,0,0,0,.55,6.16c2,2.65,5.8,3.34,8.94,3.27a17.24,17.24,0,0,0,5.32-1,52.17,52.17,0,0,0,6.4-3.28,16.62,16.62,0,0,1,3.13-1.25,3.48,3.48,0,0,1,3.05.2,14.2,14.2,0,0,0,3.07,1.76,9.81,9.81,0,0,0,3.47.62,33.57,33.57,0,0,0,6.8-1.21,14.1,14.1,0,0,1,5.63-.41c.77.16,1.9.49,2.18,1.29-4.71.85-6.56,6.68-5.23,11,.72,2.31,5,5,6.7,3.79,1.06-.77.42-1.78,0-2.44-.8-1.28-1.07-2.92.41-3.81,1.27-.76,2.61,1.06,2.64,1a16.37,16.37,0,0,0,5.46-4.23c2.06.12,2.37-1.24,1.88-2.35S156.85,95.47,155.2,95.2Z"/></clipPath><clipPath id="clip-path-106"><path class="cls-2" d="M158.05,181.93a1.51,1.51,0,0,1,1.51,1.51v22.69a1.52,1.52,0,0,1-1.51,1.52H126.66a1.52,1.52,0,0,1-1.52-1.52V183.44a1.51,1.51,0,0,1,1.52-1.51Zm-43.5-4.54v34.8a6.05,6.05,0,0,0,6,6.05h43.5a6.05,6.05,0,0,0,6.05-6.05v-34.8a6.05,6.05,0,0,0-6.05-6H120.6A6.05,6.05,0,0,0,114.55,177.39Z"/></clipPath><clipPath id="clip-path-107"><path class="cls-2" d="M207.66,216.35q-11.19-13.66-15.14-20.26c-4.51-7.52-8.2-14.22-9.37-16.78-2.78-6.1,6.4-9,8.47-6.11q4.73,6.47,20.14,40.66Z"/></clipPath><clipPath id="clip-path-108"><rect class="cls-1" x="94.51" y="155.45" width="128.6" height="71.48"/></clipPath><clipPath id="clip-path-109"><path class="cls-2" d="M192.37,213.7,178.5,178.76c-3-6.36,11.36-10.55,13.54-7.59,5,6.73,16.73,33.27,18.2,35.28Z"/></clipPath><clipPath id="clip-path-111"><path class="cls-2" d="M155.41,206.69c2.71-3.94,12.54-17.21,17.9-22.7,1.53-1.57,3-3.09,4.46-4.5,4.22-4.19,12.63,2.86,8.41,6.68-10.49,9.51-25.81,22.35-27.08,23.49C157.3,211.27,153.71,209.17,155.41,206.69Z"/></clipPath><clipPath id="clip-path-113"><rect class="cls-1" x="158.62" y="196.87" width="15.13" height="23.07" transform="translate(-97.39 248.12) rotate(-60)"/></clipPath><clipPath id="clip-path-114"><path class="cls-2" d="M156.05,204.91a7.93,7.93,0,0,0-1.82,1.88,19.23,19.23,0,0,0-1.2,2.76l18.47,10.66q2.1-2,.66-3.05c-1-.72-1.76-1.33-2.38-1.83l-6.38-8.79a.39.39,0,0,0-.53-.08h0l-1.32,1a6.77,6.77,0,0,1-2.72-.68,6.13,6.13,0,0,1-1.68-1.75h0a.75.75,0,0,0-1-.18Z"/></clipPath><clipPath id="clip-path-116"><path class="cls-2" d="M204.45,215a8,8,0,0,0-.64,2.54,20,20,0,0,0,.34,3h21.34q.82-2.76-1-3c-1.2-.15-2.19-.28-3-.4l-9.92-4.42a.37.37,0,0,0-.49.19h0l-.64,1.55a6.85,6.85,0,0,1-2.69.77,6,6,0,0,1-2.33-.68h0a.76.76,0,0,0-1,.37Z"/></clipPath><clipPath id="clip-path-117"><rect class="cls-1" x="203.43" y="205.38" width="19.67" height="15.13"/></clipPath><clipPath id="clip-path-118"><path class="cls-2" d="M173.5,180.51q-17.3-2.82-23.17-3.86c-11.17-2-14.43-8-12.5-21.08H158.4q4.08,1.17,34.13,14.58c3.6,1.79,2.93,7.07,2.27,8.81q0,.1-18.22,31.23l-16.83-10.73,13.78-17.69Q174.09,180.68,173.5,180.51Z"/></clipPath><clipPath id="clip-path-120"><path class="cls-2" d="M113.56,169.18c-.69,1-5.13,3.76-8.15,5.26-1.21.6-.89,1.64-.51,1.95,3.1,2.58,5.69.41,8.82-.54,3.43-1,2.57,3.15,5.28,2.36-.53-1.87-1.91-5.39-.74-7.42q.78-1.35,11.57-24.75l-6.7-1Q115,167.11,113.56,169.18Zm58.15-13.54,11.57,5.78q4.64,6.29,5.31,5.35c.66-1-.57-1.92-.23-2.63s2.61-.47,4.74-.16,1.58-.68,1.09-1.19a32.36,32.36,0,0,0-7.95-3.86l-11.41-9.68Z"/></clipPath><clipPath id="clip-path-121"><rect class="cls-1" x="102.83" y="115.36" width="96.82" height="82.07"/></clipPath><clipPath id="clip-path-122"><path class="cls-2" d="M151.13,117.76l4.15-1.38c5.63,14.07,14,27.68,28.06,39.17l-3.47,6c-12.34-7.26-24-12.91-28.74-23.81C149.54,134.08,151,122.13,151.13,117.76Z"/></clipPath><clipPath id="clip-path-124"><path class="cls-2" d="M136.87,157.34q17.83,1.89,28.08,0c.84-.15,1-1.57.58-2.53-6.11-15-10.3-28-10.3-38.43-1.12.57-3.08.65-5.88.26C141.82,127.35,138.36,139.64,136.87,157.34Z"/></clipPath><clipPath id="clip-path-126"><path class="cls-2" d="M147.48,115.74h3.14c.73,4.3,3,62.5,10.15,81.55H122.26c.84-17.45,7.42-38.4,14.09-55.94q-8.83,8.1-15.42,27.44l-7.21-1.85q8-34.66,33.07-50.95l.11-.25h.28l.31-.2Z"/></clipPath><clipPath id="clip-path-128"><path class="cls-3" d="M151.28,107.48c-1.68,2-3.7,3.36-5.34,3-3.1-.69-4.39-5.34-3.4-9.8,0-.16.07-.31.11-.47-3.78,1.53-7.3,5.41-11.65,4.45-5.92-1.32-5.62-13.77,2.65-11.93,5.62,1.24,8.2,2.68,10.32,4.42a7.85,7.85,0,0,1,2.77-2.76,3.43,3.43,0,0,1,1.1-.47,5.31,5.31,0,0,1,.87-.16,20.4,20.4,0,0,1,6.06.31l1.28.27a4.07,4.07,0,1,1,3.31,4.92,21.1,21.1,0,0,1-4.62-.23,8.3,8.3,0,0,1-.22,2.19,11.94,11.94,0,0,1-.71,2.17,1.91,1.91,0,0,0-1.21-1,2.42,2.42,0,0,0-2.91,1.85A2.58,2.58,0,0,0,151.28,107.48Z"/></clipPath><clipPath id="clip-path-129"><path class="cls-2" d="M339.08,112.36a10.65,10.65,0,0,0,2.84-7.68c-.59-8.43-12.34-6.58-14.62-2.32s-2,15.06.94,15.82c1.18.31,3.68-.44,6.24-2l-1.61,11.34h9.47Z"/></clipPath><clipPath id="clip-path-130"><rect class="cls-1" x="310.01" y="86.54" width="53.62" height="41"/></clipPath><clipPath id="clip-path-131"><path class="cls-2" d="M339.81,114.26c1.18-5.29,4.57-8.89,4.05-11.25a3.59,3.59,0,0,0-2.75-2.94q-1.16-4.68-7.47-4c-6.31.7-10.16,3.32-8.49,9.08,1.52,0,3.37-.55,5.92.4q1.21.45,1.74,2.79H334q1.68-2.77,3.31-2t.74,3.58l.57,4.36Z"/></clipPath><clipPath id="clip-path-133"><path class="cls-2" d="M278,223.74q11.65-14.24,15.78-21.11c4.7-7.84,8.55-14.83,9.76-17.49,2.9-6.36-6.66-9.34-8.83-6.37q-4.91,6.73-21,42.38Z"/></clipPath><clipPath id="clip-path-134"><rect class="cls-1" x="258.36" y="160.27" width="137.6" height="94.23"/></clipPath><clipPath id="clip-path-135"><path class="cls-2" d="M293.94,221l14.46-36.41c3.1-6.64-11.84-11-14.12-7.92-5.16,7-17.43,34.69-19,36.78Z"/></clipPath><clipPath id="clip-path-137"><path class="cls-2" d="M332.47,213.68c-2.82-4.11-13.07-17.94-18.65-23.66-1.61-1.65-3.17-3.23-4.65-4.7-4.4-4.37-13.17,3-8.78,7,10.94,9.92,26.91,23.3,28.24,24.5C330.5,218.45,334.24,216.26,332.47,213.68Z"/></clipPath><clipPath id="clip-path-139"><rect class="cls-1" x="309.22" y="207.58" width="24.05" height="15.77" transform="translate(-64.69 189.49) rotate(-30)"/></clipPath><clipPath id="clip-path-140"><path class="cls-2" d="M331.81,211.82a8.33,8.33,0,0,1,1.89,2,19.73,19.73,0,0,1,1.25,2.87q-1.06.63-19.26,11.12-2.18-2-.68-3.18c1-.75,1.83-1.39,2.48-1.91l6.65-9.15a.39.39,0,0,1,.55-.09h0l1.38,1.06a7.11,7.11,0,0,0,2.84-.71,6.22,6.22,0,0,0,1.74-1.82h0a.79.79,0,0,1,1.1-.19Z"/></clipPath><clipPath id="clip-path-142"><path class="cls-2" d="M281.35,222.32A8.5,8.5,0,0,1,282,225a19.21,19.21,0,0,1-.35,3.11H259.42c-.58-1.91-.24-2.94,1-3.09s2.28-.29,3.11-.42l10.33-4.6a.4.4,0,0,1,.52.19v0l.66,1.61a7.19,7.19,0,0,0,2.81.8,6.27,6.27,0,0,0,2.43-.71h0a.79.79,0,0,1,1,.39Z"/></clipPath><clipPath id="clip-path-143"><rect class="cls-1" x="258.36" y="212.31" width="24.05" height="15.77"/></clipPath><clipPath id="clip-path-144"><path class="cls-2" d="M313.61,186.39q18-2.94,24.16-4c11.64-2.05,15-8.32,13-22H329.35q-4.26,1.23-35.57,15.21c-3.76,1.87-3.06,7.36-2.37,9.18q0,.1,19,32.55L328,206.14,313.58,187.7C313.2,186.94,313.21,186.5,313.61,186.39Z"/></clipPath><clipPath id="clip-path-146"><path class="cls-2" d="M343.48,119.77c-.09-.3-.18-.6-.28-.9l-.35.16-.16-.16-11,1.7c0,6.21-4.94,12-8.06,17-4.86,7.77-13.5,16.38-8,27.92q7.5,15.58,39,5.06c0-5.6-4.6-11.23-4.75-18C349.75,146,348.54,126.4,343.48,119.77Z"/></clipPath><clipPath id="clip-path-147"><rect class="cls-1" x="286.35" y="118.87" width="100.93" height="73.73"/></clipPath><clipPath id="clip-path-148"><path class="cls-2" d="M319.62,142.24a3.59,3.59,0,0,0-3.24,1.9c-.91,1.27-1.76,7.27-.31,7.27s7.51-2.32,7.51-3.88-4.14-2.22-4.14-3.39S321.14,142.24,319.62,142.24Zm10.15,20.31q-1.09-5.72-1.43-7.63-8.82,10-10.19,10.08c-1.72.15-3-1.38-3.35-.95-.6,1.77,1.09,6.22,4.32,6.86,1.54.31,3.92-2.87,4.9-4A62.81,62.81,0,0,1,329.77,162.55Z"/></clipPath><clipPath id="clip-path-150"><path class="cls-2" d="M332.85,168.34c.09.33.18.66.28,1,17.27-12.06,17.27-26.69,12.14-43.08C349.14,142.39,347.56,156,332.85,168.34Z"/></clipPath></defs><title>illustrations</title><rect class="cls-5" x="40.25" y="28.28" width="44.36" height="71.72" rx="1.38"/><ellipse class="cls-6" cx="250" cy="224.26" rx="250" ry="21.35"/><ellipse class="cls-7" cx="412.5" cy="229.32" rx="21.53" ry="3.42"/><path class="cls-8" d="M395.68,205.2v20.22a4.64,4.64,0,0,0,3.74,4.55c5.88,1.18,17.54,2.72,26.76-1a4,4,0,0,0,2.51-3.72V205.9a3.47,3.47,0,0,0-3.39-3.46l-26-.7A3.47,3.47,0,0,0,395.68,205.2Z"/><ellipse class="cls-8" cx="411.96" cy="204.08" rx="16.28" ry="4.21"/><ellipse class="cls-7" cx="411.96" cy="204.08" rx="12.85" ry="3.32"/><path class="cls-9" d="M412.69,207.35c.58-3.16,1.09-6.34,1.55-9.52s.94-6.36,1.33-9.55c.8-6.38,1.47-12.77,1.78-19.18a118.57,118.57,0,0,0-.26-19.22,43.27,43.27,0,0,0-2-9.37,19,19,0,0,0-2.06-4.31,10.44,10.44,0,0,0-3.42-3.32,10.47,10.47,0,0,1,3.57,3.21,19.72,19.72,0,0,1,2.25,4.29,43.06,43.06,0,0,1,2.19,9.43,113.47,113.47,0,0,1,.44,19.33q-.57,9.65-2,19.22C415.22,194.73,414.09,201.07,412.69,207.35Z"/><path class="cls-9" d="M416.45,204.58c.59-3.71,1.12-7.43,1.56-11.16s.84-7.46,1-11.2a68.77,68.77,0,0,0-.12-11.21,24.7,24.7,0,0,0-1.09-5.46,8.23,8.23,0,0,0-3.13-4.49,8.1,8.1,0,0,1,3.47,4.36,24.53,24.53,0,0,1,1.32,5.52,64,64,0,0,1,.3,11.32c-.23,3.76-.62,7.52-1.18,11.24S417.34,200.93,416.45,204.58Z"/><path class="cls-9" d="M408.75,205c.17-2.62.28-5.25.3-7.87a70.4,70.4,0,0,0-.3-7.83,30.23,30.23,0,0,0-1.53-7.62,11,11,0,0,0-1.87-3.36,6.07,6.07,0,0,0-3.22-2.06,5.94,5.94,0,0,1,3.49,1.82,11.32,11.32,0,0,1,2.14,3.39,28.79,28.79,0,0,1,1.73,7.76,58.17,58.17,0,0,1,.13,7.92A60.8,60.8,0,0,1,408.75,205Z"/><path class="cls-9" d="M412.43,203.58a67.21,67.21,0,0,1-1.41-6.71c-.36-2.26-.6-4.54-.75-6.83a37.81,37.81,0,0,1,.21-6.89,15.86,15.86,0,0,1,.85-3.37,5,5,0,0,1,2.18-2.62,5,5,0,0,0-1.84,2.75,15.86,15.86,0,0,0-.62,3.31,45.11,45.11,0,0,0,0,6.78c.09,2.26.34,4.53.58,6.79S412.13,201.31,412.43,203.58Z"/><path class="cls-9" d="M414.72,203.67a116.82,116.82,0,0,1-2.19-11.75,101.25,101.25,0,0,1-.91-11.93q0-3,.23-6a33.23,33.23,0,0,1,1-5.93,17.41,17.41,0,0,1,2.44-5.5,8,8,0,0,1,4.88-3.3,8,8,0,0,0-4.58,3.51,16.92,16.92,0,0,0-2.18,5.43,48.94,48.94,0,0,0-1,11.78,118,118,0,0,0,.74,11.87C413.52,195.8,414.07,199.74,414.72,203.67Z"/><path class="cls-9" d="M414,203.69c-1.34-5.84-2.38-11.76-3.15-17.71A156.07,156.07,0,0,1,409.55,168c0-3,.07-6,.33-9a52.9,52.9,0,0,1,1.46-8.91,25.54,25.54,0,0,1,3.6-8.27,12,12,0,0,1,7.29-5,11.91,11.91,0,0,0-7,5.21,25.38,25.38,0,0,0-3.34,8.21A74.07,74.07,0,0,0,410.29,168a175.55,175.55,0,0,0,1.16,17.89q.49,4.47,1.15,8.91C413,197.78,413.49,200.74,414,203.69Z"/><path class="cls-9" d="M411.22,205.28c.47-3.82.87-7.66,1.23-11.5s.7-7.67,1-11.52c.56-7.68,1-15.38,1-23.08a159.56,159.56,0,0,0-1.13-23,55.07,55.07,0,0,0-2.52-11.22,22.4,22.4,0,0,0-2.51-5.16,12.47,12.47,0,0,0-1.86-2.18,9.63,9.63,0,0,0-2.4-1.59,9.62,9.62,0,0,1,2.46,1.52,13.29,13.29,0,0,1,1.95,2.15,22.45,22.45,0,0,1,2.7,5.13,55.27,55.27,0,0,1,2.75,11.26,151.64,151.64,0,0,1,1.31,23.13Q415,170.77,414,182.31C413.32,190,412.41,197.66,411.22,205.28Z"/><path class="cls-9" d="M406.18,204.4c.39-2.83.68-5.67.92-8.52s.47-5.69.62-8.54c.31-5.71.44-11.42.23-17.12a108.65,108.65,0,0,0-1.77-17A58.33,58.33,0,0,0,404,145a36.52,36.52,0,0,0-3.55-7.76,45,45,0,0,1,6.28,15.9,102.13,102.13,0,0,1,1.95,17.08,171.78,171.78,0,0,1-2.51,34.2Z"/><polygon class="cls-6" points="245.5 15.01 245.5 87 251.53 80.97 349.51 80.97 349.51 15.01 245.5 15.01"/><g class="cls-10"><rect class="cls-11" x="250.52" y="20.22" width="53.85" height="55.56"/></g><g class="cls-12"><rect class="cls-13" x="289.38" y="26.93" width="12.49" height="14.2"/></g><g class="cls-14"><rect class="cls-15" x="292.35" y="29.27" width="6.56" height="6.56"/></g><g class="cls-16"><rect class="cls-15" x="290.95" y="34.89" width="9.36" height="2.5"/></g><g class="cls-17"><rect class="cls-15" x="292.19" y="36.45" width="6.87" height="2.5"/></g><g class="cls-18"><rect class="cls-19" x="250.52" y="20.22" width="53.85" height="5.77"/></g><g class="cls-20"><rect class="cls-11" x="251.93" y="21.78" width="2.81" height="2.81"/></g><g class="cls-21"><rect class="cls-11" x="253.8" y="21.78" width="2.81" height="2.81"/></g><g class="cls-22"><rect class="cls-11" x="255.67" y="21.78" width="2.81" height="2.81"/></g><g class="cls-23"><rect class="cls-13" x="289.38" y="40.82" width="12.49" height="31.84"/></g><g class="cls-24"><rect class="cls-15" x="292.19" y="43.63" width="6.87" height="5.62"/></g><g class="cls-25"><rect class="cls-26" x="292.19" y="48.94" width="6.87" height="5.46"/></g><g class="cls-27"><rect class="cls-15" x="292.19" y="54.09" width="6.87" height="5.46"/></g><g class="cls-28"><rect class="cls-15" x="292.19" y="64.39" width="6.87" height="5.46"/></g><g class="cls-29"><rect class="cls-19" x="292.19" y="59.24" width="6.87" height="5.46"/></g><g class="cls-30"><rect class="cls-13" x="253.02" y="27.09" width="36.68" height="8.9"/></g><g class="cls-31"><rect class="cls-15" x="254.42" y="29.29" width="27.63" height="2.66"/></g><g class="cls-32"><rect class="cls-15" x="254.42" y="31.12" width="19.06" height="2.66"/></g><g class="cls-33"><rect class="cls-15" x="283.29" y="29.66" width="3.75" height="3.75"/></g><g class="cls-34"><rect class="cls-11" x="283.91" y="30.29" width="2.5" height="2.5"/></g><g class="cls-35"><rect class="cls-13" x="253.02" y="35.67" width="36.68" height="7.65"/></g><g class="cls-36"><rect class="cls-15" x="254.42" y="37.5" width="27.63" height="2.47"/></g><g class="cls-37"><rect class="cls-15" x="254.42" y="39.02" width="19.06" height="2.47"/></g><g class="cls-38"><rect class="cls-15" x="283.29" y="37.62" width="3.75" height="3.75"/></g><g class="cls-39"><rect class="cls-11" x="283.91" y="38.25" width="2.5" height="2.5"/></g><g class="cls-40"><rect class="cls-13" x="253.02" y="43.01" width="36.68" height="7.65"/></g><g class="cls-41"><rect class="cls-15" x="254.42" y="44.83" width="27.63" height="2.47"/></g><g class="cls-42"><rect class="cls-15" x="254.42" y="46.35" width="19.06" height="2.47"/></g><g class="cls-43"><rect class="cls-15" x="283.29" y="44.96" width="3.75" height="3.75"/></g><g class="cls-44"><rect class="cls-26" x="283.91" y="45.58" width="2.5" height="2.5"/></g><g class="cls-45"><rect class="cls-13" x="253.02" y="65.01" width="36.68" height="7.65"/></g><g class="cls-46"><rect class="cls-15" x="254.42" y="66.84" width="27.63" height="2.47"/></g><g class="cls-47"><rect class="cls-15" x="254.42" y="68.36" width="19.06" height="2.47"/></g><g class="cls-48"><rect class="cls-15" x="283.29" y="66.96" width="3.75" height="3.75"/></g><g class="cls-49"><rect class="cls-11" x="283.91" y="67.59" width="2.5" height="2.5"/></g><g class="cls-50"><rect class="cls-13" x="253.02" y="57.68" width="36.68" height="7.65"/></g><g class="cls-51"><rect class="cls-15" x="254.42" y="59.5" width="27.63" height="2.47"/></g><g class="cls-52"><rect class="cls-15" x="254.42" y="61.03" width="19.06" height="2.47"/></g><g class="cls-53"><rect class="cls-15" x="283.29" y="59.63" width="3.75" height="3.75"/></g><g class="cls-54"><rect class="cls-11" x="283.91" y="60.25" width="2.5" height="2.5"/></g><g class="cls-55"><rect class="cls-13" x="253.02" y="50.34" width="36.68" height="7.65"/></g><g class="cls-56"><rect class="cls-15" x="254.42" y="52.17" width="27.63" height="2.47"/></g><g class="cls-57"><rect class="cls-15" x="254.42" y="53.69" width="19.06" height="2.47"/></g><g class="cls-58"><rect class="cls-15" x="283.29" y="52.29" width="3.75" height="3.75"/></g><g class="cls-59"><rect class="cls-11" x="283.91" y="52.92" width="2.5" height="2.5"/></g><g class="cls-60"><rect class="cls-11" x="306.74" y="39.07" width="36.3" height="37.46"/></g><g class="cls-61"><rect class="cls-13" x="332.94" y="43.6" width="8.42" height="9.57"/></g><g class="cls-62"><rect class="cls-15" x="334.94" y="45.17" width="4.42" height="4.42"/></g><g class="cls-63"><rect class="cls-15" x="333.99" y="48.96" width="6.31" height="1.68"/></g><g class="cls-64"><rect class="cls-15" x="334.83" y="50.01" width="4.63" height="1.68"/></g><g class="cls-65"><rect class="cls-19" x="306.74" y="39.07" width="36.3" height="3.89"/></g><g class="cls-66"><rect class="cls-11" x="307.69" y="40.12" width="1.89" height="1.89"/></g><g class="cls-67"><rect class="cls-11" x="308.95" y="40.12" width="1.89" height="1.89"/></g><g class="cls-68"><rect class="cls-11" x="310.21" y="40.12" width="1.89" height="1.89"/></g><g class="cls-69"><rect class="cls-13" x="332.94" y="52.96" width="8.42" height="21.46"/></g><g class="cls-70"><rect class="cls-15" x="334.83" y="54.85" width="4.63" height="3.79"/></g><g class="cls-71"><rect class="cls-26" x="334.83" y="58.43" width="4.63" height="3.68"/></g><g class="cls-72"><rect class="cls-15" x="334.83" y="61.9" width="4.63" height="3.68"/></g><g class="cls-73"><rect class="cls-15" x="334.83" y="68.85" width="4.63" height="3.68"/></g><g class="cls-74"><rect class="cls-19" x="334.83" y="65.38" width="4.63" height="3.68"/></g><g class="cls-75"><rect class="cls-13" x="308.42" y="43.7" width="24.73" height="6"/></g><g class="cls-76"><rect class="cls-15" x="309.37" y="45.18" width="18.62" height="1.79"/></g><g class="cls-77"><rect class="cls-15" x="309.37" y="46.42" width="12.85" height="1.79"/></g><g class="cls-78"><rect class="cls-15" x="328.83" y="45.44" width="2.53" height="2.53"/></g><g class="cls-79"><rect class="cls-11" x="329.25" y="45.86" width="1.68" height="1.68"/></g><g class="cls-80"><rect class="cls-13" x="308.42" y="49.49" width="24.73" height="5.16"/></g><g class="cls-81"><rect class="cls-15" x="309.37" y="50.72" width="18.62" height="1.67"/></g><g class="cls-82"><rect class="cls-15" x="309.37" y="51.74" width="12.85" height="1.67"/></g><g class="cls-83"><rect class="cls-15" x="328.83" y="50.8" width="2.53" height="2.53"/></g><g class="cls-84"><rect class="cls-11" x="329.25" y="51.22" width="1.68" height="1.68"/></g><g class="cls-85"><rect class="cls-13" x="308.42" y="54.43" width="24.73" height="5.16"/></g><g class="cls-86"><rect class="cls-15" x="309.37" y="55.66" width="18.62" height="1.67"/></g><g class="cls-87"><rect class="cls-15" x="309.37" y="56.69" width="12.85" height="1.67"/></g><g class="cls-88"><rect class="cls-15" x="328.83" y="55.75" width="2.53" height="2.53"/></g><g class="cls-89"><rect class="cls-26" x="329.25" y="56.17" width="1.68" height="1.68"/></g><g class="cls-90"><rect class="cls-13" x="308.42" y="69.27" width="24.73" height="5.16"/></g><g class="cls-91"><rect class="cls-15" x="309.37" y="70.5" width="18.62" height="1.67"/></g><g class="cls-92"><rect class="cls-15" x="309.37" y="71.53" width="12.85" height="1.67"/></g><g class="cls-93"><rect class="cls-15" x="328.83" y="70.58" width="2.53" height="2.53"/></g><g class="cls-94"><rect class="cls-11" x="329.25" y="71" width="1.68" height="1.68"/></g><g class="cls-95"><rect class="cls-13" x="308.42" y="64.32" width="24.73" height="5.16"/></g><g class="cls-96"><rect class="cls-15" x="309.37" y="65.55" width="18.62" height="1.67"/></g><g class="cls-97"><rect class="cls-15" x="309.37" y="66.58" width="12.85" height="1.67"/></g><g class="cls-98"><rect class="cls-15" x="328.83" y="65.64" width="2.53" height="2.53"/></g><g class="cls-99"><rect class="cls-11" x="329.25" y="66.06" width="1.68" height="1.68"/></g><g class="cls-100"><rect class="cls-13" x="308.42" y="59.38" width="24.73" height="5.16"/></g><g class="cls-101"><rect class="cls-15" x="309.37" y="60.61" width="18.62" height="1.67"/></g><g class="cls-102"><rect class="cls-15" x="309.37" y="61.64" width="12.85" height="1.67"/></g><g class="cls-103"><rect class="cls-15" x="328.83" y="60.69" width="2.53" height="2.53"/></g><g class="cls-104"><rect class="cls-11" x="329.25" y="61.11" width="1.68" height="1.68"/></g><g class="cls-105"><rect class="cls-19" x="316.76" y="31.44" width="2.23" height="2.23"/></g><g class="cls-106"><rect class="cls-19" x="316.76" y="31.44" width="2.22" height="2.23"/></g><g class="cls-107"><rect class="cls-19" x="316.75" y="31.41" width="2.25" height="2.3"/></g><g class="cls-108"><rect class="cls-19" x="316.76" y="31.43" width="2.23" height="2.24"/></g><g class="cls-109"><rect class="cls-19" x="316.76" y="31.44" width="2.22" height="2.22"/></g><g class="cls-110"><rect class="cls-19" x="316.76" y="31.44" width="2.22" height="2.22"/></g><g class="cls-106"><rect class="cls-19" x="316.76" y="31.44" width="2.23" height="2.23"/></g><g class="cls-110"><rect class="cls-19" x="316.76" y="31.44" width="2.22" height="2.22"/></g><g class="cls-111"><rect class="cls-15" x="306.1" y="19.89" width="23.33" height="16.22"/></g><g class="cls-112"><rect class="cls-26" x="307.87" y="23.89" width="14.67" height="12.22"/></g><g class="cls-113"><rect class="cls-19" x="314.76" y="26.56" width="13.11" height="9.56"/></g><g class="cls-114"><rect class="cls-13" x="320.54" y="22.56" width="6.22" height="6.22"/></g><polygon class="cls-13" points="203.75 138.79 218.62 135.56 265.29 135.35 264.26 138.58 203.75 138.79"/><polygon class="cls-8" points="264.26 141.88 204.1 141.88 204.1 138.79 264.26 138.44 264.26 141.88"/><rect class="cls-7" x="204.79" y="141.88" width="59.81" height="20.94"/><path class="cls-115" d="M206.52,162.81h56.7a0,0,0,0,1,0,0v53.68a7.51,7.51,0,0,1-7.51,7.51H214a7.51,7.51,0,0,1-7.51-7.51V162.81A0,0,0,0,1,206.52,162.81Z"/><polygon class="cls-116" points="265.29 135.35 265.29 160.75 264.6 162.81 264.26 138.44 265.29 135.35"/><polygon class="cls-7" points="241.73 124.81 240.99 128.89 243.6 136.68 247.34 136.68 243.23 124.07 241.73 124.81"/><path class="cls-117" d="M242.11,97.74l-5.23,36.34h1.49l2.62-.74,1.49-8.53s1.49-.37,1.87-1.11c0,0,3-13.72,1.49-21.14l-1.12-5.19L243.23,97Z"/><ellipse class="cls-118" cx="149.92" cy="222.73" rx="21.37" ry="3.05"/><path class="cls-7" d="M149.44,210.19s.55,9.45-4.41,11.59a.51.51,0,0,0,.08,1,19.32,19.32,0,0,0,10.09-.12.5.5,0,0,0,.14-.89c-1.45-1.06-4.18-4-4.2-11.49"/><path class="cls-117" d="M126.87,176.36l.14.15s44.48-2.79,50.46-4c0,0-1.07-3-32.28-1.79,0,0-8.75.74-13.83-.79C127.25,168.71,124,173.35,126.87,176.36Z"/><path class="cls-7" d="M149,178.7v9.09a2.27,2.27,0,0,0,3.6-.61V178.1S150.63,179.31,149,178.7Z"/><path class="cls-117" d="M139.21,177.5l21.64-2s-5.54,4.63-12.1,4.48c-.51,0-1,0-1.52-.1Z"/><path class="cls-117" d="M123,175.71s15.41-46.19,2-57.67c-11.62-9.94-9.62,13.52-6.81,19.89S118.18,172.53,123,175.71Z"/><path class="cls-7" d="M118.38,158.81c2.4-7.85-2.4-21.48-2.4-21.48s-6.75-15.82-.81-20.28c6.62-5,11.82,3,11.82,3l2.41,5.17s-6.81-10.74-11.42-5.77c-3.47,3.75.4,16.71.4,16.71s4.81,13.52,2.8,22.67-.4,13.92,2.81,16.31,51.68-3.58,51.68-3.58c2,.39,2.4,1.19,2.4,1.19-2.8,2-42.46,6.36-50.08,5.57s-8.19-3.71-9.61-6C118.38,172.33,115.58,168,118.38,158.81Z"/><path class="cls-117" d="M148.23,188v23.47s1.6.79,4.8,0V186.85A16.43,16.43,0,0,1,148.23,188Z"/><g class="cls-119"><g class="cls-120"><rect class="cls-121" x="144.05" y="94.56" width="19.67" height="31.39"/></g></g><g class="cls-124"><g class="cls-125"><rect class="cls-121" x="180.74" y="170.2" width="32.91" height="48.03"/></g></g><g class="cls-126"><g class="cls-125"><rect class="cls-127" x="176.2" y="168.31" width="35.93" height="47.28"/></g></g><g class="cls-128"><g class="cls-125"><rect class="cls-121" x="148.57" y="187.6" width="45.39" height="15.51" transform="translate(-88.34 205.51) rotate(-51)"/></g></g><g class="cls-129"><g class="cls-130"><g class="cls-125"><rect class="cls-131" x="158.39" y="198.61" width="11.6" height="25.72" transform="translate(-101.05 247.93) rotate(-60)"/></g></g></g><g class="cls-132"><g class="cls-133"><rect class="cls-131" x="201.92" y="210.8" width="25.72" height="11.6"/></g></g><g class="cls-134"><g class="cls-125"><rect class="cls-135" x="135.42" y="153.68" width="61.8" height="58.4"/></g></g><g class="cls-136"><g class="cls-137"><rect class="cls-121" x="102.66" y="143.17" width="93.87" height="37.03"/></g></g><g class="cls-138"><g class="cls-137"><rect class="cls-5" x="143.72" y="119.33" width="46.62" height="39.16" transform="translate(14.09 293.2) rotate(-85)"/></g></g><g class="cls-139"><g class="cls-137"><rect class="cls-140" x="134.98" y="114.49" width="32.66" height="45.69"/></g></g><g class="cls-141"><g class="cls-137"><rect class="cls-5" x="111.83" y="113.65" width="50.83" height="85.53"/></g></g><path class="cls-142" d="M151.28,107.48c-1.68,2-3.7,3.36-5.34,3-3.1-.69-4.39-5.34-3.4-9.8,0-.16.07-.31.11-.47-3.78,1.53-7.3,5.41-11.65,4.45-5.92-1.32-5.62-13.77,2.65-11.93,5.62,1.24,8.2,2.68,10.32,4.42a7.85,7.85,0,0,1,2.77-2.76,3.43,3.43,0,0,1,1.1-.47,5.31,5.31,0,0,1,.87-.16,20.4,20.4,0,0,1,6.06.31l1.28.27a4.07,4.07,0,1,1,3.31,4.92,21.1,21.1,0,0,1-4.62-.23,8.3,8.3,0,0,1-.22,2.19,11.94,11.94,0,0,1-.71,2.17,1.91,1.91,0,0,0-1.21-1,2.42,2.42,0,0,0-2.91,1.85A2.58,2.58,0,0,0,151.28,107.48Z"/><g class="cls-143"><rect class="cls-144" x="131.96" y="79.04" width="26.07" height="39.93" transform="translate(16.94 219.11) rotate(-77.49)"/></g><g id="rGHy4F"><path class="cls-117" d="M363.71,144.09c2.32.25,2.81.83,2.1,3a10.28,10.28,0,0,0,0,5.45c1.18,5.79,2.42,11.58,3.43,17.41a20.75,20.75,0,0,1-1.73,13.1,8.72,8.72,0,0,1-8.39,5.23c-1.68,0-3.37-.08-5.06-.05a11.93,11.93,0,0,0-4.19.53c-1.58.6-3.42.15-5.15.18-.82,0-1.71-.15-1.48,1.19.1.57-.39.51-.75.51-3.17,0-6.34,0-9.51,0-.62,0-.83-.24-.74-.8.13-.84-.32-.92-1-.91-3.25,0-6.5,0-9.75,0-2.34,0-3-.66-3-3,0-.45,0-.9,0-1.35h33c.05.68.57.46.93.46,2.06,0,4.12,0,6.17,0,3.43,0,5.31-1.31,6.55-4.52a18.16,18.16,0,0,0,1.07-8.25c-.45-4.76-1.73-9.37-2.59-14.06-.05-.28.08-.67-.39-.84q-1.26,4.92-2.5,9.8c-.49,1.93-1.05,2.21-3,1.5-.32-.37-.14-.75,0-1.15.53-2.07,1-4.15,1.56-6.22Q361.5,152.7,363.71,144.09Z"/><path class="cls-7" d="M363.71,144.09q-2.2,8.59-4.4,17.2c-.53,2.07-1,4.15-1.56,6.22-.1.4-.28.78,0,1.15-.79.62-.65,1.6-.93,2.42a1.26,1.26,0,0,1-1.66,1,5.52,5.52,0,0,1-3.85-2.11h-.1l-.08-.06c.71-1.17.3-2.49.5-3.72a12,12,0,0,0,.42-1.14c1-3.85,2-7.7,2.9-11.57a51.18,51.18,0,0,0,1.58-6.8,97,97,0,0,0,3-11.5,2,2,0,0,0,0-.49c.26-.74.58-1.45.78-2.21.83-3.22,1.64-6.46,2.45-9.69.73-3,3.46-4,6-2.36.83.54.53,1.31.35,2-1.36,5.42-2.74,10.84-4.1,16.27C364.57,140.49,364.15,142.29,363.71,144.09Z"/><path class="cls-7" d="M351.55,184.56h-33l-4.28,0c-1.38,0-1.57-.3-1.71-1.62a5.6,5.6,0,0,1,1.4-4.37c2.81.09,5.61.36,8.41.66,3.75.41,7.49.88,11.25,1.08,1.82.1,3.57.49,5.36.66a11.19,11.19,0,0,0,8.69-2.58c1.15,0,2.31,0,3.46,0a3,3,0,0,1,3.19,3.06C354.37,184.48,354.41,184.56,351.55,184.56Z"/><path class="cls-117" d="M341,210.14c0,1.87.07,3.36,0,4.84-.06.91.31,1.18,1.1,1.39,5.64,1.5,11.27,3,16.91,4.54.84.22,1.19.54,1.07,1.42-.07.56,0,1.15,0,1.72a1.89,1.89,0,0,1-1.92,1.86,1.82,1.82,0,0,1-1.94-1.81c0-.73-.25-.86-.87-1-5-1-10-2-15-3-.43-.09-.92,0-1-.71,0-.35.3-1-.31-1a15.57,15.57,0,0,0-2.46,0c-.07,0-.19.28-.17.4.24,1.16-.57,1.21-1.36,1.37-4.84,1-9.68,1.94-14.53,2.88-.65.12-1,.25-1,1a1.74,1.74,0,0,1-2,1.76,1.84,1.84,0,0,1-1.82-1.93c-.14-2.74-.14-2.74,2.45-3.44,5.16-1.39,10.31-2.81,15.48-4.17.82-.22,1.13-.53,1.06-1.4-.51-6.1,1-12.13.62-18.22-.05-.7.28-.82.88-.81,1.07,0,2.14,0,3.21,0,.74,0,1,.2,1,1-.05,2.23-.37,4.53.08,6.66A37.78,37.78,0,0,1,341,210.14Z"/></g><rect class="cls-7" x="336.05" y="190.44" width="2.76" height="6.52"/><g class="cls-145"><g class="cls-146"><rect class="cls-147" x="323.81" y="96.79" width="20.5" height="32.72"/></g></g><g class="cls-148"><g class="cls-146"><rect class="cls-144" x="322.79" y="94.03" width="23.1" height="22.2"/></g></g><g class="cls-149"><g class="cls-150"><rect class="cls-147" x="271.76" y="175.64" width="34.3" height="50.07"/></g></g><g class="cls-151"><g class="cls-150"><rect class="cls-152" x="273.34" y="173.67" width="37.46" height="49.28"/></g></g><g class="cls-153"><g class="cls-150"><rect class="cls-147" x="307.87" y="178.2" width="16.16" height="47.31" transform="translate(-56.62 243.82) rotate(-39)"/></g></g><g class="cls-154"><g class="cls-155"><g class="cls-150"><rect class="cls-156" x="309.91" y="212.62" width="26.81" height="12.09" transform="translate(-66.02 190.96) rotate(-30)"/></g></g></g><g class="cls-157"><g class="cls-158"><rect class="cls-156" x="257.18" y="217.96" width="26.81" height="12.09"/></g></g><g class="cls-159"><g class="cls-150"><rect class="cls-160" x="288.89" y="158.41" width="64.42" height="60.88"/></g></g><g class="cls-161"><g class="cls-162"><rect class="cls-5" x="311.87" y="116.9" width="44.74" height="59.88"/></g></g><g class="cls-163"><g class="cls-162"><rect class="cls-147" x="312.71" y="140.27" width="19.04" height="32.63"/></g></g><g class="cls-164"><g class="cls-162"><rect class="cls-165" x="330.88" y="124.28" width="19.34" height="47.03"/></g></g></svg>